# Low-poly anime boy generated for Blender
mtllib anime_boy.mtl
v 0.000000 0.000000 3.760000
v 0.000000 0.000000 3.760000
v 0.000000 0.000000 3.760000
v 0.000000 0.000000 3.760000
v 0.000000 0.000000 3.760000
v 0.000000 0.000000 3.760000
v 0.000000 0.000000 3.760000
v 0.000000 0.000000 3.760000
v 0.000000 0.000000 3.760000
v 0.000000 0.000000 3.760000
v 0.000000 0.000000 3.760000
v 0.000000 0.000000 3.760000
v 0.000000 0.000000 3.760000
v 0.000000 0.000000 3.760000
v 0.000000 0.000000 3.760000
v 0.000000 0.000000 3.760000
v 0.000000 0.000000 3.760000
v 0.000000 0.000000 3.760000
v 0.129410 0.000000 3.740237
v 0.121605 0.039835 3.740237
v 0.099133 0.074865 3.740237
v 0.064705 0.100865 3.740237
v 0.022472 0.114699 3.740237
v -0.022472 0.114699 3.740237
v -0.064705 0.100865 3.740237
v -0.099133 0.074865 3.740237
v -0.121605 0.039835 3.740237
v -0.129410 0.000000 3.740237
v -0.121605 -0.039835 3.740237
v -0.099133 -0.074865 3.740237
v -0.064705 -0.100865 3.740237
v -0.022472 -0.114699 3.740237
v 0.022472 -0.114699 3.740237
v 0.064705 -0.100865 3.740237
v 0.099133 -0.074865 3.740237
v 0.121605 -0.039835 3.740237
v 0.250000 0.000000 3.682295
v 0.234923 0.076955 3.682295
v 0.191511 0.144627 3.682295
v 0.125000 0.194856 3.682295
v 0.043412 0.221582 3.682295
v -0.043412 0.221582 3.682295
v -0.125000 0.194856 3.682295
v -0.191511 0.144627 3.682295
v -0.234923 0.076955 3.682295
v -0.250000 0.000000 3.682295
v -0.234923 -0.076955 3.682295
v -0.191511 -0.144627 3.682295
v -0.125000 -0.194856 3.682295
v -0.043412 -0.221582 3.682295
v 0.043412 -0.221582 3.682295
v 0.125000 -0.194856 3.682295
v 0.191511 -0.144627 3.682295
v 0.234923 -0.076955 3.682295
v 0.353553 0.000000 3.590122
v 0.332232 0.108830 3.590122
v 0.270838 0.204534 3.590122
v 0.176777 0.275568 3.590122
v 0.061394 0.313364 3.590122
v -0.061394 0.313364 3.590122
v -0.176777 0.275568 3.590122
v -0.270838 0.204534 3.590122
v -0.332232 0.108830 3.590122
v -0.353553 0.000000 3.590122
v -0.332232 -0.108830 3.590122
v -0.270838 -0.204534 3.590122
v -0.176777 -0.275568 3.590122
v -0.061394 -0.313364 3.590122
v 0.061394 -0.313364 3.590122
v 0.176777 -0.275568 3.590122
v 0.270838 -0.204534 3.590122
v 0.332232 -0.108830 3.590122
v 0.433013 0.000000 3.470000
v 0.406899 0.133289 3.470000
v 0.331707 0.250502 3.470000
v 0.216506 0.337500 3.470000
v 0.075192 0.383791 3.470000
v -0.075192 0.383791 3.470000
v -0.216506 0.337500 3.470000
v -0.331707 0.250502 3.470000
v -0.406899 0.133289 3.470000
v -0.433013 0.000000 3.470000
v -0.406899 -0.133289 3.470000
v -0.331707 -0.250502 3.470000
v -0.216506 -0.337500 3.470000
v -0.075192 -0.383791 3.470000
v 0.075192 -0.383791 3.470000
v 0.216506 -0.337500 3.470000
v 0.331707 -0.250502 3.470000
v 0.406899 -0.133289 3.470000
v 0.482963 0.000000 3.330115
v 0.453837 0.148665 3.330115
v 0.369971 0.279398 3.330115
v 0.241481 0.376432 3.330115
v 0.083866 0.428063 3.330115
v -0.083866 0.428063 3.330115
v -0.241481 0.376432 3.330115
v -0.369971 0.279398 3.330115
v -0.453837 0.148665 3.330115
v -0.482963 0.000000 3.330115
v -0.453837 -0.148665 3.330115
v -0.369971 -0.279398 3.330115
v -0.241481 -0.376432 3.330115
v -0.083866 -0.428063 3.330115
v 0.083866 -0.428063 3.330115
v 0.241481 -0.376432 3.330115
v 0.369971 -0.279398 3.330115
v 0.453837 -0.148665 3.330115
v 0.500000 0.000000 3.180000
v 0.469846 0.153909 3.180000
v 0.383022 0.289254 3.180000
v 0.250000 0.389711 3.180000
v 0.086824 0.443163 3.180000
v -0.086824 0.443163 3.180000
v -0.250000 0.389711 3.180000
v -0.383022 0.289254 3.180000
v -0.469846 0.153909 3.180000
v -0.500000 0.000000 3.180000
v -0.469846 -0.153909 3.180000
v -0.383022 -0.289254 3.180000
v -0.250000 -0.389711 3.180000
v -0.086824 -0.443163 3.180000
v 0.086824 -0.443163 3.180000
v 0.250000 -0.389711 3.180000
v 0.383022 -0.289254 3.180000
v 0.469846 -0.153909 3.180000
v 0.482963 0.000000 3.029885
v 0.453837 0.148665 3.029885
v 0.369971 0.279398 3.029885
v 0.241481 0.376432 3.029885
v 0.083866 0.428063 3.029885
v -0.083866 0.428063 3.029885
v -0.241481 0.376432 3.029885
v -0.369971 0.279398 3.029885
v -0.453837 0.148665 3.029885
v -0.482963 0.000000 3.029885
v -0.453837 -0.148665 3.029885
v -0.369971 -0.279398 3.029885
v -0.241481 -0.376432 3.029885
v -0.083866 -0.428063 3.029885
v 0.083866 -0.428063 3.029885
v 0.241481 -0.376432 3.029885
v 0.369971 -0.279398 3.029885
v 0.453837 -0.148665 3.029885
v 0.433013 0.000000 2.890000
v 0.406899 0.133289 2.890000
v 0.331707 0.250502 2.890000
v 0.216506 0.337500 2.890000
v 0.075192 0.383791 2.890000
v -0.075192 0.383791 2.890000
v -0.216506 0.337500 2.890000
v -0.331707 0.250502 2.890000
v -0.406899 0.133289 2.890000
v -0.433013 0.000000 2.890000
v -0.406899 -0.133289 2.890000
v -0.331707 -0.250502 2.890000
v -0.216506 -0.337500 2.890000
v -0.075192 -0.383791 2.890000
v 0.075192 -0.383791 2.890000
v 0.216506 -0.337500 2.890000
v 0.331707 -0.250502 2.890000
v 0.406899 -0.133289 2.890000
v 0.353553 0.000000 2.769878
v 0.332232 0.108830 2.769878
v 0.270838 0.204534 2.769878
v 0.176777 0.275568 2.769878
v 0.061394 0.313364 2.769878
v -0.061394 0.313364 2.769878
v -0.176777 0.275568 2.769878
v -0.270838 0.204534 2.769878
v -0.332232 0.108830 2.769878
v -0.353553 0.000000 2.769878
v -0.332232 -0.108830 2.769878
v -0.270838 -0.204534 2.769878
v -0.176777 -0.275568 2.769878
v -0.061394 -0.313364 2.769878
v 0.061394 -0.313364 2.769878
v 0.176777 -0.275568 2.769878
v 0.270838 -0.204534 2.769878
v 0.332232 -0.108830 2.769878
v 0.250000 0.000000 2.677705
v 0.234923 0.076955 2.677705
v 0.191511 0.144627 2.677705
v 0.125000 0.194856 2.677705
v 0.043412 0.221582 2.677705
v -0.043412 0.221582 2.677705
v -0.125000 0.194856 2.677705
v -0.191511 0.144627 2.677705
v -0.234923 0.076955 2.677705
v -0.250000 0.000000 2.677705
v -0.234923 -0.076955 2.677705
v -0.191511 -0.144627 2.677705
v -0.125000 -0.194856 2.677705
v -0.043412 -0.221582 2.677705
v 0.043412 -0.221582 2.677705
v 0.125000 -0.194856 2.677705
v 0.191511 -0.144627 2.677705
v 0.234923 -0.076955 2.677705
v 0.129410 0.000000 2.619763
v 0.121605 0.039835 2.619763
v 0.099133 0.074865 2.619763
v 0.064705 0.100865 2.619763
v 0.022472 0.114699 2.619763
v -0.022472 0.114699 2.619763
v -0.064705 0.100865 2.619763
v -0.099133 0.074865 2.619763
v -0.121605 0.039835 2.619763
v -0.129410 0.000000 2.619763
v -0.121605 -0.039835 2.619763
v -0.099133 -0.074865 2.619763
v -0.064705 -0.100865 2.619763
v -0.022472 -0.114699 2.619763
v 0.022472 -0.114699 2.619763
v 0.064705 -0.100865 2.619763
v 0.099133 -0.074865 2.619763
v 0.121605 -0.039835 2.619763
v 0.000000 0.000000 2.600000
v 0.000000 0.000000 2.600000
v 0.000000 0.000000 2.600000
v 0.000000 0.000000 2.600000
v 0.000000 0.000000 2.600000
v -0.000000 0.000000 2.600000
v -0.000000 0.000000 2.600000
v -0.000000 0.000000 2.600000
v -0.000000 0.000000 2.600000
v -0.000000 0.000000 2.600000
v -0.000000 -0.000000 2.600000
v -0.000000 -0.000000 2.600000
v -0.000000 -0.000000 2.600000
v -0.000000 -0.000000 2.600000
v 0.000000 -0.000000 2.600000
v 0.000000 -0.000000 2.600000
v 0.000000 -0.000000 2.600000
v 0.000000 -0.000000 2.600000
v 0.000000 0.020000 3.860000
v 0.000000 0.020000 3.860000
v 0.000000 0.020000 3.860000
v 0.000000 0.020000 3.860000
v 0.000000 0.020000 3.860000
v 0.000000 0.020000 3.860000
v 0.000000 0.020000 3.860000
v 0.000000 0.020000 3.860000
v 0.000000 0.020000 3.860000
v 0.000000 0.020000 3.860000
v 0.000000 0.020000 3.860000
v 0.000000 0.020000 3.860000
v 0.000000 0.020000 3.860000
v 0.000000 0.020000 3.860000
v 0.000000 0.020000 3.860000
v 0.000000 0.020000 3.860000
v 0.000000 0.020000 3.860000
v 0.000000 0.020000 3.860000
v 0.139762 0.020000 3.840237
v 0.131334 0.062490 3.840237
v 0.107064 0.099856 3.840237
v 0.069881 0.127589 3.840237
v 0.024269 0.142346 3.840237
v -0.024269 0.142346 3.840237
v -0.069881 0.127589 3.840237
v -0.107064 0.099856 3.840237
v -0.131334 0.062490 3.840237
v -0.139762 0.020000 3.840237
v -0.131334 -0.022490 3.840237
v -0.107064 -0.059856 3.840237
v -0.069881 -0.087589 3.840237
v -0.024269 -0.102346 3.840237
v 0.024269 -0.102346 3.840237
v 0.069881 -0.087589 3.840237
v 0.107064 -0.059856 3.840237
v 0.131334 -0.022490 3.840237
v 0.270000 0.020000 3.782295
v 0.253717 0.102085 3.782295
v 0.206832 0.174269 3.782295
v 0.135000 0.227846 3.782295
v 0.046885 0.256354 3.782295
v -0.046885 0.256354 3.782295
v -0.135000 0.227846 3.782295
v -0.206832 0.174269 3.782295
v -0.253717 0.102085 3.782295
v -0.270000 0.020000 3.782295
v -0.253717 -0.062085 3.782295
v -0.206832 -0.134269 3.782295
v -0.135000 -0.187846 3.782295
v -0.046885 -0.216354 3.782295
v 0.046885 -0.216354 3.782295
v 0.135000 -0.187846 3.782295
v 0.206832 -0.134269 3.782295
v 0.253717 -0.062085 3.782295
v 0.381838 0.020000 3.690122
v 0.358810 0.136085 3.690122
v 0.292505 0.238169 3.690122
v 0.190919 0.313939 3.690122
v 0.066305 0.354255 3.690122
v -0.066305 0.354255 3.690122
v -0.190919 0.313939 3.690122
v -0.292505 0.238169 3.690122
v -0.358810 0.136085 3.690122
v -0.381838 0.020000 3.690122
v -0.358810 -0.096085 3.690122
v -0.292505 -0.198169 3.690122
v -0.190919 -0.273939 3.690122
v -0.066305 -0.314255 3.690122
v 0.066305 -0.314255 3.690122
v 0.190919 -0.273939 3.690122
v 0.292505 -0.198169 3.690122
v 0.358810 -0.096085 3.690122
v 0.467654 0.020000 3.570000
v 0.439451 0.162175 3.570000
v 0.358244 0.287202 3.570000
v 0.233827 0.380000 3.570000
v 0.081207 0.429377 3.570000
v -0.081207 0.429377 3.570000
v -0.233827 0.380000 3.570000
v -0.358244 0.287202 3.570000
v -0.439451 0.162175 3.570000
v -0.467654 0.020000 3.570000
v -0.439451 -0.122175 3.570000
v -0.358244 -0.247202 3.570000
v -0.233827 -0.340000 3.570000
v -0.081207 -0.389377 3.570000
v 0.081207 -0.389377 3.570000
v 0.233827 -0.340000 3.570000
v 0.358244 -0.247202 3.570000
v 0.439451 -0.122175 3.570000
v 0.521600 0.020000 3.430115
v 0.490144 0.178576 3.430115
v 0.399569 0.318025 3.430115
v 0.260800 0.421528 3.430115
v 0.090575 0.476601 3.430115
v -0.090575 0.476601 3.430115
v -0.260800 0.421528 3.430115
v -0.399569 0.318025 3.430115
v -0.490144 0.178576 3.430115
v -0.521600 0.020000 3.430115
v -0.490144 -0.138576 3.430115
v -0.399569 -0.278025 3.430115
v -0.260800 -0.381528 3.430115
v -0.090575 -0.436601 3.430115
v 0.090575 -0.436601 3.430115
v 0.260800 -0.381528 3.430115
v 0.399569 -0.278025 3.430115
v 0.490144 -0.138576 3.430115
v 0.540000 0.020000 3.280000
v 0.507434 0.184170 3.280000
v 0.413664 0.328538 3.280000
v 0.270000 0.435692 3.280000
v 0.093770 0.492708 3.280000
v -0.093770 0.492708 3.280000
v -0.270000 0.435692 3.280000
v -0.413664 0.328538 3.280000
v -0.507434 0.184170 3.280000
v -0.540000 0.020000 3.280000
v -0.507434 -0.144170 3.280000
v -0.413664 -0.288538 3.280000
v -0.270000 -0.395692 3.280000
v -0.093770 -0.452708 3.280000
v 0.093770 -0.452708 3.280000
v 0.270000 -0.395692 3.280000
v 0.413664 -0.288538 3.280000
v 0.507434 -0.144170 3.280000
v 0.521600 0.020000 3.129885
v 0.490144 0.178576 3.129885
v 0.399569 0.318025 3.129885
v 0.260800 0.421528 3.129885
v 0.090575 0.476601 3.129885
v -0.090575 0.476601 3.129885
v -0.260800 0.421528 3.129885
v -0.399569 0.318025 3.129885
v -0.490144 0.178576 3.129885
v -0.521600 0.020000 3.129885
v -0.490144 -0.138576 3.129885
v -0.399569 -0.278025 3.129885
v -0.260800 -0.381528 3.129885
v -0.090575 -0.436601 3.129885
v 0.090575 -0.436601 3.129885
v 0.260800 -0.381528 3.129885
v 0.399569 -0.278025 3.129885
v 0.490144 -0.138576 3.129885
v 0.467654 0.020000 2.990000
v 0.439451 0.162175 2.990000
v 0.358244 0.287202 2.990000
v 0.233827 0.380000 2.990000
v 0.081207 0.429377 2.990000
v -0.081207 0.429377 2.990000
v -0.233827 0.380000 2.990000
v -0.358244 0.287202 2.990000
v -0.439451 0.162175 2.990000
v -0.467654 0.020000 2.990000
v -0.439451 -0.122175 2.990000
v -0.358244 -0.247202 2.990000
v -0.233827 -0.340000 2.990000
v -0.081207 -0.389377 2.990000
v 0.081207 -0.389377 2.990000
v 0.233827 -0.340000 2.990000
v 0.358244 -0.247202 2.990000
v 0.439451 -0.122175 2.990000
v 0.381838 0.020000 2.869878
v 0.358810 0.136085 2.869878
v 0.292505 0.238169 2.869878
v 0.190919 0.313939 2.869878
v 0.066305 0.354255 2.869878
v -0.066305 0.354255 2.869878
v -0.190919 0.313939 2.869878
v -0.292505 0.238169 2.869878
v -0.358810 0.136085 2.869878
v -0.381838 0.020000 2.869878
v -0.358810 -0.096085 2.869878
v -0.292505 -0.198169 2.869878
v -0.190919 -0.273939 2.869878
v -0.066305 -0.314255 2.869878
v 0.066305 -0.314255 2.869878
v 0.190919 -0.273939 2.869878
v 0.292505 -0.198169 2.869878
v 0.358810 -0.096085 2.869878
v 0.270000 0.020000 2.777705
v 0.253717 0.102085 2.777705
v 0.206832 0.174269 2.777705
v 0.135000 0.227846 2.777705
v 0.046885 0.256354 2.777705
v -0.046885 0.256354 2.777705
v -0.135000 0.227846 2.777705
v -0.206832 0.174269 2.777705
v -0.253717 0.102085 2.777705
v -0.270000 0.020000 2.777705
v -0.253717 -0.062085 2.777705
v -0.206832 -0.134269 2.777705
v -0.135000 -0.187846 2.777705
v -0.046885 -0.216354 2.777705
v 0.046885 -0.216354 2.777705
v 0.135000 -0.187846 2.777705
v 0.206832 -0.134269 2.777705
v 0.253717 -0.062085 2.777705
v 0.139762 0.020000 2.719763
v 0.131334 0.062490 2.719763
v 0.107064 0.099856 2.719763
v 0.069881 0.127589 2.719763
v 0.024269 0.142346 2.719763
v -0.024269 0.142346 2.719763
v -0.069881 0.127589 2.719763
v -0.107064 0.099856 2.719763
v -0.131334 0.062490 2.719763
v -0.139762 0.020000 2.719763
v -0.131334 -0.022490 2.719763
v -0.107064 -0.059856 2.719763
v -0.069881 -0.087589 2.719763
v -0.024269 -0.102346 2.719763
v 0.024269 -0.102346 2.719763
v 0.069881 -0.087589 2.719763
v 0.107064 -0.059856 2.719763
v 0.131334 -0.022490 2.719763
v 0.000000 0.020000 2.700000
v 0.000000 0.020000 2.700000
v 0.000000 0.020000 2.700000
v 0.000000 0.020000 2.700000
v 0.000000 0.020000 2.700000
v -0.000000 0.020000 2.700000
v -0.000000 0.020000 2.700000
v -0.000000 0.020000 2.700000
v -0.000000 0.020000 2.700000
v -0.000000 0.020000 2.700000
v -0.000000 0.020000 2.700000
v -0.000000 0.020000 2.700000
v -0.000000 0.020000 2.700000
v -0.000000 0.020000 2.700000
v 0.000000 0.020000 2.700000
v 0.000000 0.020000 2.700000
v 0.000000 0.020000 2.700000
v 0.000000 0.020000 2.700000
v 0.000000 -0.200000 3.610000
v 0.000000 -0.200000 3.610000
v 0.000000 -0.200000 3.610000
v 0.000000 -0.200000 3.610000
v 0.000000 -0.200000 3.610000
v 0.000000 -0.200000 3.610000
v 0.000000 -0.200000 3.610000
v 0.000000 -0.200000 3.610000
v 0.000000 -0.200000 3.610000
v 0.000000 -0.200000 3.610000
v 0.000000 -0.200000 3.610000
v 0.000000 -0.200000 3.610000
v 0.000000 -0.200000 3.610000
v 0.000000 -0.200000 3.610000
v 0.000000 -0.200000 3.610000
v 0.000000 -0.200000 3.610000
v 0.000000 -0.200000 3.610000
v 0.000000 -0.200000 3.610000
v 0.129787 -0.200000 3.586507
v 0.121960 -0.178862 3.586507
v 0.099423 -0.160274 3.586507
v 0.064894 -0.146477 3.586507
v 0.022537 -0.139136 3.586507
v -0.022537 -0.139136 3.586507
v -0.064894 -0.146477 3.586507
v -0.099423 -0.160274 3.586507
v -0.121960 -0.178862 3.586507
v -0.129787 -0.200000 3.586507
v -0.121960 -0.221138 3.586507
v -0.099423 -0.239726 3.586507
v -0.064894 -0.253523 3.586507
v -0.022537 -0.260864 3.586507
v 0.022537 -0.260864 3.586507
v 0.064894 -0.253523 3.586507
v 0.099423 -0.239726 3.586507
v 0.121960 -0.221138 3.586507
v 0.246870 -0.200000 3.518328
v 0.231982 -0.159793 3.518328
v 0.189113 -0.124436 3.518328
v 0.123435 -0.098193 3.518328
v 0.042868 -0.084229 3.518328
v -0.042868 -0.084229 3.518328
v -0.123435 -0.098193 3.518328
v -0.189113 -0.124436 3.518328
v -0.231982 -0.159793 3.518328
v -0.246870 -0.200000 3.518328
v -0.231982 -0.240207 3.518328
v -0.189113 -0.275564 3.518328
v -0.123435 -0.301807 3.518328
v -0.042868 -0.315771 3.518328
v 0.042868 -0.315771 3.518328
v 0.123435 -0.301807 3.518328
v 0.189113 -0.275564 3.518328
v 0.231982 -0.240207 3.518328
v 0.339787 -0.200000 3.412137
v 0.319295 -0.144660 3.412137
v 0.260292 -0.095995 3.412137
v 0.169894 -0.059874 3.412137
v 0.059003 -0.040655 3.412137
v -0.059003 -0.040655 3.412137
v -0.169894 -0.059874 3.412137
v -0.260292 -0.095995 3.412137
v -0.319295 -0.144660 3.412137
v -0.339787 -0.200000 3.412137
v -0.319295 -0.255340 3.412137
v -0.260292 -0.304005 3.412137
v -0.169894 -0.340126 3.412137
v -0.059003 -0.359345 3.412137
v 0.059003 -0.359345 3.412137
v 0.169894 -0.340126 3.412137
v 0.260292 -0.304005 3.412137
v 0.319295 -0.255340 3.412137
v 0.399444 -0.200000 3.278328
v 0.375354 -0.134944 3.278328
v 0.305992 -0.077735 3.278328
v 0.199722 -0.035272 3.278328
v 0.069363 -0.012678 3.278328
v -0.069363 -0.012678 3.278328
v -0.199722 -0.035272 3.278328
v -0.305992 -0.077735 3.278328
v -0.375354 -0.134944 3.278328
v -0.399444 -0.200000 3.278328
v -0.375354 -0.265056 3.278328
v -0.305992 -0.322265 3.278328
v -0.199722 -0.364728 3.278328
v -0.069363 -0.387322 3.278328
v 0.069363 -0.387322 3.278328
v 0.199722 -0.364728 3.278328
v 0.305992 -0.322265 3.278328
v 0.375354 -0.265056 3.278328
v 0.420000 -0.200000 3.130000
v 0.394671 -0.131596 3.130000
v 0.321739 -0.071442 3.130000
v 0.210000 -0.026795 3.130000
v 0.072932 -0.003038 3.130000
v -0.072932 -0.003038 3.130000
v -0.210000 -0.026795 3.130000
v -0.321739 -0.071442 3.130000
v -0.394671 -0.131596 3.130000
v -0.420000 -0.200000 3.130000
v -0.394671 -0.268404 3.130000
v -0.321739 -0.328558 3.130000
v -0.210000 -0.373205 3.130000
v -0.072932 -0.396962 3.130000
v 0.072932 -0.396962 3.130000
v 0.210000 -0.373205 3.130000
v 0.321739 -0.328558 3.130000
v 0.394671 -0.268404 3.130000
v 0.399444 -0.200000 2.981672
v 0.375354 -0.134944 2.981672
v 0.305992 -0.077735 2.981672
v 0.199722 -0.035272 2.981672
v 0.069363 -0.012678 2.981672
v -0.069363 -0.012678 2.981672
v -0.199722 -0.035272 2.981672
v -0.305992 -0.077735 2.981672
v -0.375354 -0.134944 2.981672
v -0.399444 -0.200000 2.981672
v -0.375354 -0.265056 2.981672
v -0.305992 -0.322265 2.981672
v -0.199722 -0.364728 2.981672
v -0.069363 -0.387322 2.981672
v 0.069363 -0.387322 2.981672
v 0.199722 -0.364728 2.981672
v 0.305992 -0.322265 2.981672
v 0.375354 -0.265056 2.981672
v 0.339787 -0.200000 2.847863
v 0.319295 -0.144660 2.847863
v 0.260292 -0.095995 2.847863
v 0.169894 -0.059874 2.847863
v 0.059003 -0.040655 2.847863
v -0.059003 -0.040655 2.847863
v -0.169894 -0.059874 2.847863
v -0.260292 -0.095995 2.847863
v -0.319295 -0.144660 2.847863
v -0.339787 -0.200000 2.847863
v -0.319295 -0.255340 2.847863
v -0.260292 -0.304005 2.847863
v -0.169894 -0.340126 2.847863
v -0.059003 -0.359345 2.847863
v 0.059003 -0.359345 2.847863
v 0.169894 -0.340126 2.847863
v 0.260292 -0.304005 2.847863
v 0.319295 -0.255340 2.847863
v 0.246870 -0.200000 2.741672
v 0.231982 -0.159793 2.741672
v 0.189113 -0.124436 2.741672
v 0.123435 -0.098193 2.741672
v 0.042868 -0.084229 2.741672
v -0.042868 -0.084229 2.741672
v -0.123435 -0.098193 2.741672
v -0.189113 -0.124436 2.741672
v -0.231982 -0.159793 2.741672
v -0.246870 -0.200000 2.741672
v -0.231982 -0.240207 2.741672
v -0.189113 -0.275564 2.741672
v -0.123435 -0.301807 2.741672
v -0.042868 -0.315771 2.741672
v 0.042868 -0.315771 2.741672
v 0.123435 -0.301807 2.741672
v 0.189113 -0.275564 2.741672
v 0.231982 -0.240207 2.741672
v 0.129787 -0.200000 2.673493
v 0.121960 -0.178862 2.673493
v 0.099423 -0.160274 2.673493
v 0.064894 -0.146477 2.673493
v 0.022537 -0.139136 2.673493
v -0.022537 -0.139136 2.673493
v -0.064894 -0.146477 2.673493
v -0.099423 -0.160274 2.673493
v -0.121960 -0.178862 2.673493
v -0.129787 -0.200000 2.673493
v -0.121960 -0.221138 2.673493
v -0.099423 -0.239726 2.673493
v -0.064894 -0.253523 2.673493
v -0.022537 -0.260864 2.673493
v 0.022537 -0.260864 2.673493
v 0.064894 -0.253523 2.673493
v 0.099423 -0.239726 2.673493
v 0.121960 -0.221138 2.673493
v 0.000000 -0.200000 2.650000
v 0.000000 -0.200000 2.650000
v 0.000000 -0.200000 2.650000
v 0.000000 -0.200000 2.650000
v 0.000000 -0.200000 2.650000
v -0.000000 -0.200000 2.650000
v -0.000000 -0.200000 2.650000
v -0.000000 -0.200000 2.650000
v -0.000000 -0.200000 2.650000
v -0.000000 -0.200000 2.650000
v -0.000000 -0.200000 2.650000
v -0.000000 -0.200000 2.650000
v -0.000000 -0.200000 2.650000
v -0.000000 -0.200000 2.650000
v 0.000000 -0.200000 2.650000
v 0.000000 -0.200000 2.650000
v 0.000000 -0.200000 2.650000
v 0.000000 -0.200000 2.650000
v -0.110054 -0.020000 3.582737
v -0.123754 -0.060207 3.590942
v -0.158938 -0.085057 3.594967
v -0.202167 -0.085057 3.593275
v -0.236929 -0.060207 3.586513
v -0.249946 -0.020000 3.577263
v -0.236246 0.020207 3.569058
v -0.201062 0.045057 3.565033
v -0.157833 0.045057 3.566725
v -0.123071 0.020207 3.573487
v -0.092054 -0.120000 3.122737
v -0.105754 -0.160207 3.130942
v -0.140938 -0.185057 3.134967
v -0.184167 -0.185057 3.133275
v -0.218929 -0.160207 3.126513
v -0.231946 -0.120000 3.117263
v -0.218246 -0.079793 3.109058
v -0.183062 -0.054943 3.105033
v -0.139833 -0.054943 3.106725
v -0.105071 -0.079793 3.113487
v 0.070000 -0.020000 3.580000
v 0.056631 -0.060206 3.588740
v 0.021631 -0.085054 3.594142
v -0.021631 -0.085054 3.594142
v -0.056631 -0.060206 3.588740
v -0.070000 -0.020000 3.580000
v -0.056631 0.020206 3.571260
v -0.021631 0.045054 3.565858
v 0.021631 0.045054 3.565858
v 0.056631 0.020206 3.571260
v 0.070000 -0.120000 3.120000
v 0.056631 -0.160206 3.128740
v 0.021631 -0.185054 3.134142
v -0.021631 -0.185054 3.134142
v -0.056631 -0.160206 3.128740
v -0.070000 -0.120000 3.120000
v -0.056631 -0.079794 3.111260
v -0.021631 -0.054946 3.105858
v 0.021631 -0.054946 3.105858
v 0.056631 -0.079794 3.111260
v 0.249946 -0.020000 3.577263
v 0.236929 -0.060207 3.586513
v 0.202167 -0.085057 3.593275
v 0.158938 -0.085057 3.594967
v 0.123754 -0.060207 3.590942
v 0.110054 -0.020000 3.582737
v 0.123071 0.020207 3.573487
v 0.157833 0.045057 3.566725
v 0.201062 0.045057 3.565033
v 0.236246 0.020207 3.569058
v 0.231946 -0.120000 3.117263
v 0.218929 -0.160207 3.126513
v 0.184167 -0.185057 3.133275
v 0.140938 -0.185057 3.134967
v 0.105754 -0.160207 3.130942
v 0.092054 -0.120000 3.122737
v 0.105071 -0.079793 3.113487
v 0.139833 -0.054943 3.106725
v 0.183062 -0.054943 3.105033
v 0.218246 -0.079793 3.109058
v -0.170000 -0.400000 3.300000
v -0.170000 -0.400000 3.300000
v -0.170000 -0.400000 3.300000
v -0.170000 -0.400000 3.300000
v -0.170000 -0.400000 3.300000
v -0.170000 -0.400000 3.300000
v -0.170000 -0.400000 3.300000
v -0.170000 -0.400000 3.300000
v -0.170000 -0.400000 3.300000
v -0.170000 -0.400000 3.300000
v -0.170000 -0.400000 3.300000
v -0.170000 -0.400000 3.300000
v -0.143212 -0.400000 3.292388
v -0.146801 -0.394260 3.292388
v -0.156606 -0.390058 3.292388
v -0.170000 -0.388519 3.292388
v -0.183394 -0.390058 3.292388
v -0.193199 -0.394260 3.292388
v -0.196788 -0.400000 3.292388
v -0.193199 -0.405740 3.292388
v -0.183394 -0.409942 3.292388
v -0.170000 -0.411481 3.292388
v -0.156606 -0.409942 3.292388
v -0.146801 -0.405740 3.292388
v -0.120503 -0.400000 3.270711
v -0.127134 -0.389393 3.270711
v -0.145251 -0.381629 3.270711
v -0.170000 -0.378787 3.270711
v -0.194749 -0.381629 3.270711
v -0.212866 -0.389393 3.270711
v -0.219497 -0.400000 3.270711
v -0.212866 -0.410607 3.270711
v -0.194749 -0.418371 3.270711
v -0.170000 -0.421213 3.270711
v -0.145251 -0.418371 3.270711
v -0.127134 -0.410607 3.270711
v -0.105328 -0.400000 3.238268
v -0.113993 -0.386142 3.238268
v -0.137664 -0.375997 3.238268
v -0.170000 -0.372284 3.238268
v -0.202336 -0.375997 3.238268
v -0.226007 -0.386142 3.238268
v -0.234672 -0.400000 3.238268
v -0.226007 -0.413858 3.238268
v -0.202336 -0.424003 3.238268
v -0.170000 -0.427716 3.238268
v -0.137664 -0.424003 3.238268
v -0.113993 -0.413858 3.238268
v -0.100000 -0.400000 3.200000
v -0.109378 -0.385000 3.200000
v -0.135000 -0.374019 3.200000
v -0.170000 -0.370000 3.200000
v -0.205000 -0.374019 3.200000
v -0.230622 -0.385000 3.200000
v -0.240000 -0.400000 3.200000
v -0.230622 -0.415000 3.200000
v -0.205000 -0.425981 3.200000
v -0.170000 -0.430000 3.200000
v -0.135000 -0.425981 3.200000
v -0.109378 -0.415000 3.200000
v -0.105328 -0.400000 3.161732
v -0.113993 -0.386142 3.161732
v -0.137664 -0.375997 3.161732
v -0.170000 -0.372284 3.161732
v -0.202336 -0.375997 3.161732
v -0.226007 -0.386142 3.161732
v -0.234672 -0.400000 3.161732
v -0.226007 -0.413858 3.161732
v -0.202336 -0.424003 3.161732
v -0.170000 -0.427716 3.161732
v -0.137664 -0.424003 3.161732
v -0.113993 -0.413858 3.161732
v -0.120503 -0.400000 3.129289
v -0.127134 -0.389393 3.129289
v -0.145251 -0.381629 3.129289
v -0.170000 -0.378787 3.129289
v -0.194749 -0.381629 3.129289
v -0.212866 -0.389393 3.129289
v -0.219497 -0.400000 3.129289
v -0.212866 -0.410607 3.129289
v -0.194749 -0.418371 3.129289
v -0.170000 -0.421213 3.129289
v -0.145251 -0.418371 3.129289
v -0.127134 -0.410607 3.129289
v -0.143212 -0.400000 3.107612
v -0.146801 -0.394260 3.107612
v -0.156606 -0.390058 3.107612
v -0.170000 -0.388519 3.107612
v -0.183394 -0.390058 3.107612
v -0.193199 -0.394260 3.107612
v -0.196788 -0.400000 3.107612
v -0.193199 -0.405740 3.107612
v -0.183394 -0.409942 3.107612
v -0.170000 -0.411481 3.107612
v -0.156606 -0.409942 3.107612
v -0.146801 -0.405740 3.107612
v -0.170000 -0.400000 3.100000
v -0.170000 -0.400000 3.100000
v -0.170000 -0.400000 3.100000
v -0.170000 -0.400000 3.100000
v -0.170000 -0.400000 3.100000
v -0.170000 -0.400000 3.100000
v -0.170000 -0.400000 3.100000
v -0.170000 -0.400000 3.100000
v -0.170000 -0.400000 3.100000
v -0.170000 -0.400000 3.100000
v -0.170000 -0.400000 3.100000
v -0.170000 -0.400000 3.100000
v 0.170000 -0.400000 3.300000
v 0.170000 -0.400000 3.300000
v 0.170000 -0.400000 3.300000
v 0.170000 -0.400000 3.300000
v 0.170000 -0.400000 3.300000
v 0.170000 -0.400000 3.300000
v 0.170000 -0.400000 3.300000
v 0.170000 -0.400000 3.300000
v 0.170000 -0.400000 3.300000
v 0.170000 -0.400000 3.300000
v 0.170000 -0.400000 3.300000
v 0.170000 -0.400000 3.300000
v 0.196788 -0.400000 3.292388
v 0.193199 -0.394260 3.292388
v 0.183394 -0.390058 3.292388
v 0.170000 -0.388519 3.292388
v 0.156606 -0.390058 3.292388
v 0.146801 -0.394260 3.292388
v 0.143212 -0.400000 3.292388
v 0.146801 -0.405740 3.292388
v 0.156606 -0.409942 3.292388
v 0.170000 -0.411481 3.292388
v 0.183394 -0.409942 3.292388
v 0.193199 -0.405740 3.292388
v 0.219497 -0.400000 3.270711
v 0.212866 -0.389393 3.270711
v 0.194749 -0.381629 3.270711
v 0.170000 -0.378787 3.270711
v 0.145251 -0.381629 3.270711
v 0.127134 -0.389393 3.270711
v 0.120503 -0.400000 3.270711
v 0.127134 -0.410607 3.270711
v 0.145251 -0.418371 3.270711
v 0.170000 -0.421213 3.270711
v 0.194749 -0.418371 3.270711
v 0.212866 -0.410607 3.270711
v 0.234672 -0.400000 3.238268
v 0.226007 -0.386142 3.238268
v 0.202336 -0.375997 3.238268
v 0.170000 -0.372284 3.238268
v 0.137664 -0.375997 3.238268
v 0.113993 -0.386142 3.238268
v 0.105328 -0.400000 3.238268
v 0.113993 -0.413858 3.238268
v 0.137664 -0.424003 3.238268
v 0.170000 -0.427716 3.238268
v 0.202336 -0.424003 3.238268
v 0.226007 -0.413858 3.238268
v 0.240000 -0.400000 3.200000
v 0.230622 -0.385000 3.200000
v 0.205000 -0.374019 3.200000
v 0.170000 -0.370000 3.200000
v 0.135000 -0.374019 3.200000
v 0.109378 -0.385000 3.200000
v 0.100000 -0.400000 3.200000
v 0.109378 -0.415000 3.200000
v 0.135000 -0.425981 3.200000
v 0.170000 -0.430000 3.200000
v 0.205000 -0.425981 3.200000
v 0.230622 -0.415000 3.200000
v 0.234672 -0.400000 3.161732
v 0.226007 -0.386142 3.161732
v 0.202336 -0.375997 3.161732
v 0.170000 -0.372284 3.161732
v 0.137664 -0.375997 3.161732
v 0.113993 -0.386142 3.161732
v 0.105328 -0.400000 3.161732
v 0.113993 -0.413858 3.161732
v 0.137664 -0.424003 3.161732
v 0.170000 -0.427716 3.161732
v 0.202336 -0.424003 3.161732
v 0.226007 -0.413858 3.161732
v 0.219497 -0.400000 3.129289
v 0.212866 -0.389393 3.129289
v 0.194749 -0.381629 3.129289
v 0.170000 -0.378787 3.129289
v 0.145251 -0.381629 3.129289
v 0.127134 -0.389393 3.129289
v 0.120503 -0.400000 3.129289
v 0.127134 -0.410607 3.129289
v 0.145251 -0.418371 3.129289
v 0.170000 -0.421213 3.129289
v 0.194749 -0.418371 3.129289
v 0.212866 -0.410607 3.129289
v 0.196788 -0.400000 3.107612
v 0.193199 -0.394260 3.107612
v 0.183394 -0.390058 3.107612
v 0.170000 -0.388519 3.107612
v 0.156606 -0.390058 3.107612
v 0.146801 -0.394260 3.107612
v 0.143212 -0.400000 3.107612
v 0.146801 -0.405740 3.107612
v 0.156606 -0.409942 3.107612
v 0.170000 -0.411481 3.107612
v 0.183394 -0.409942 3.107612
v 0.193199 -0.405740 3.107612
v 0.170000 -0.400000 3.100000
v 0.170000 -0.400000 3.100000
v 0.170000 -0.400000 3.100000
v 0.170000 -0.400000 3.100000
v 0.170000 -0.400000 3.100000
v 0.170000 -0.400000 3.100000
v 0.170000 -0.400000 3.100000
v 0.170000 -0.400000 3.100000
v 0.170000 -0.400000 3.100000
v 0.170000 -0.400000 3.100000
v 0.170000 -0.400000 3.100000
v 0.170000 -0.400000 3.100000
v 0.000000 -0.420000 3.040000
v 0.000000 -0.420000 3.040000
v 0.000000 -0.420000 3.040000
v 0.000000 -0.420000 3.040000
v 0.000000 -0.420000 3.040000
v 0.000000 -0.420000 3.040000
v 0.000000 -0.420000 3.040000
v 0.000000 -0.420000 3.040000
v 0.000000 -0.420000 3.040000
v 0.000000 -0.420000 3.040000
v 0.040000 -0.420000 3.035981
v 0.032361 -0.415592 3.035981
v 0.012361 -0.412867 3.035981
v -0.012361 -0.412867 3.035981
v -0.032361 -0.415592 3.035981
v -0.040000 -0.420000 3.035981
v -0.032361 -0.424408 3.035981
v -0.012361 -0.427133 3.035981
v 0.012361 -0.427133 3.035981
v 0.032361 -0.424408 3.035981
v 0.069282 -0.420000 3.025000
v 0.056050 -0.412364 3.025000
v 0.021409 -0.407645 3.025000
v -0.021409 -0.407645 3.025000
v -0.056050 -0.412364 3.025000
v -0.069282 -0.420000 3.025000
v -0.056050 -0.427636 3.025000
v -0.021409 -0.432355 3.025000
v 0.021409 -0.432355 3.025000
v 0.056050 -0.427636 3.025000
v 0.080000 -0.420000 3.010000
v 0.064721 -0.411183 3.010000
v 0.024721 -0.405734 3.010000
v -0.024721 -0.405734 3.010000
v -0.064721 -0.411183 3.010000
v -0.080000 -0.420000 3.010000
v -0.064721 -0.428817 3.010000
v -0.024721 -0.434266 3.010000
v 0.024721 -0.434266 3.010000
v 0.064721 -0.428817 3.010000
v 0.069282 -0.420000 2.995000
v 0.056050 -0.412364 2.995000
v 0.021409 -0.407645 2.995000
v -0.021409 -0.407645 2.995000
v -0.056050 -0.412364 2.995000
v -0.069282 -0.420000 2.995000
v -0.056050 -0.427636 2.995000
v -0.021409 -0.432355 2.995000
v 0.021409 -0.432355 2.995000
v 0.056050 -0.427636 2.995000
v 0.040000 -0.420000 2.984019
v 0.032361 -0.415592 2.984019
v 0.012361 -0.412867 2.984019
v -0.012361 -0.412867 2.984019
v -0.032361 -0.415592 2.984019
v -0.040000 -0.420000 2.984019
v -0.032361 -0.424408 2.984019
v -0.012361 -0.427133 2.984019
v 0.012361 -0.427133 2.984019
v 0.032361 -0.424408 2.984019
v 0.000000 -0.420000 2.980000
v 0.000000 -0.420000 2.980000
v 0.000000 -0.420000 2.980000
v -0.000000 -0.420000 2.980000
v -0.000000 -0.420000 2.980000
v -0.000000 -0.420000 2.980000
v -0.000000 -0.420000 2.980000
v -0.000000 -0.420000 2.980000
v 0.000000 -0.420000 2.980000
v 0.000000 -0.420000 2.980000
v -0.160000 0.000000 2.640000
v -0.138564 -0.080000 2.640000
v -0.080000 -0.138564 2.640000
v -0.000000 -0.160000 2.640000
v 0.080000 -0.138564 2.640000
v 0.138564 -0.080000 2.640000
v 0.160000 -0.000000 2.640000
v 0.138564 0.080000 2.640000
v 0.080000 0.138564 2.640000
v 0.000000 0.160000 2.640000
v -0.080000 0.138564 2.640000
v -0.138564 0.080000 2.640000
v -0.160000 0.000000 2.820000
v -0.138564 -0.080000 2.820000
v -0.080000 -0.138564 2.820000
v -0.000000 -0.160000 2.820000
v 0.080000 -0.138564 2.820000
v 0.138564 -0.080000 2.820000
v 0.160000 -0.000000 2.820000
v 0.138564 0.080000 2.820000
v 0.080000 0.138564 2.820000
v 0.000000 0.160000 2.820000
v -0.080000 0.138564 2.820000
v -0.138564 0.080000 2.820000
v 0.420000 0.000000 1.780000
v 0.388029 0.160727 1.780000
v 0.296985 0.296985 1.780000
v 0.160727 0.388029 1.780000
v 0.000000 0.420000 1.780000
v -0.160727 0.388029 1.780000
v -0.296985 0.296985 1.780000
v -0.388029 0.160727 1.780000
v -0.420000 0.000000 1.780000
v -0.388029 -0.160727 1.780000
v -0.296985 -0.296985 1.780000
v -0.160727 -0.388029 1.780000
v -0.000000 -0.420000 1.780000
v 0.160727 -0.388029 1.780000
v 0.296985 -0.296985 1.780000
v 0.388029 -0.160727 1.780000
v 0.300000 0.000000 2.730000
v 0.277164 0.114805 2.730000
v 0.212132 0.212132 2.730000
v 0.114805 0.277164 2.730000
v 0.000000 0.300000 2.730000
v -0.114805 0.277164 2.730000
v -0.212132 0.212132 2.730000
v -0.277164 0.114805 2.730000
v -0.300000 0.000000 2.730000
v -0.277164 -0.114805 2.730000
v -0.212132 -0.212132 2.730000
v -0.114805 -0.277164 2.730000
v -0.000000 -0.300000 2.730000
v 0.114805 -0.277164 2.730000
v 0.212132 -0.212132 2.730000
v 0.277164 -0.114805 2.730000
v -0.230000 0.000000 2.580000
v -0.199186 -0.115000 2.580000
v -0.115000 -0.199186 2.580000
v -0.000000 -0.230000 2.580000
v 0.115000 -0.199186 2.580000
v 0.199186 -0.115000 2.580000
v 0.230000 -0.000000 2.580000
v 0.199186 0.115000 2.580000
v 0.115000 0.199186 2.580000
v 0.000000 0.230000 2.580000
v -0.115000 0.199186 2.580000
v -0.199186 0.115000 2.580000
v -0.230000 0.000000 2.700000
v -0.199186 -0.115000 2.700000
v -0.115000 -0.199186 2.700000
v -0.000000 -0.230000 2.700000
v 0.115000 -0.199186 2.700000
v 0.199186 -0.115000 2.700000
v 0.230000 -0.000000 2.700000
v 0.199186 0.115000 2.700000
v 0.115000 0.199186 2.700000
v 0.000000 0.230000 2.700000
v -0.115000 0.199186 2.700000
v -0.199186 0.115000 2.700000
v 0.360000 0.000000 1.300000
v 0.332597 0.137766 1.300000
v 0.254558 0.254558 1.300000
v 0.137766 0.332597 1.300000
v 0.000000 0.360000 1.300000
v -0.137766 0.332597 1.300000
v -0.254558 0.254558 1.300000
v -0.332597 0.137766 1.300000
v -0.360000 0.000000 1.300000
v -0.332597 -0.137766 1.300000
v -0.254558 -0.254558 1.300000
v -0.137766 -0.332597 1.300000
v -0.000000 -0.360000 1.300000
v 0.137766 -0.332597 1.300000
v 0.254558 -0.254558 1.300000
v 0.332597 -0.137766 1.300000
v 0.420000 0.000000 1.720000
v 0.388029 0.160727 1.720000
v 0.296985 0.296985 1.720000
v 0.160727 0.388029 1.720000
v 0.000000 0.420000 1.720000
v -0.160727 0.388029 1.720000
v -0.296985 0.296985 1.720000
v -0.388029 0.160727 1.720000
v -0.420000 0.000000 1.720000
v -0.388029 -0.160727 1.720000
v -0.296985 -0.296985 1.720000
v -0.160727 -0.388029 1.720000
v -0.000000 -0.420000 1.720000
v 0.160727 -0.388029 1.720000
v 0.296985 -0.296985 1.720000
v 0.388029 -0.160727 1.720000
v -0.212764 0.000000 2.443824
v -0.228471 -0.065000 2.451350
v -0.271382 -0.112583 2.471912
v -0.330000 -0.130000 2.500000
v -0.388618 -0.112583 2.528088
v -0.431529 -0.065000 2.548650
v -0.447236 -0.000000 2.556176
v -0.431529 0.065000 2.548650
v -0.388618 0.112583 2.528088
v -0.330000 0.130000 2.500000
v -0.271382 0.112583 2.471912
v -0.228471 0.065000 2.451350
v -0.442764 0.000000 1.963824
v -0.458471 -0.065000 1.971350
v -0.501382 -0.112583 1.991912
v -0.560000 -0.130000 2.020000
v -0.618618 -0.112583 2.048088
v -0.661529 -0.065000 2.068650
v -0.677236 -0.000000 2.076176
v -0.661529 0.065000 2.068650
v -0.618618 0.112583 2.048088
v -0.560000 0.130000 2.020000
v -0.501382 0.112583 1.991912
v -0.458471 0.065000 1.971350
v -0.450301 0.000000 2.011874
v -0.464922 -0.054991 2.013976
v -0.505020 -0.095247 2.017691
v -0.559850 -0.109981 2.022026
v -0.614720 -0.095247 2.025817
v -0.654927 -0.054991 2.028050
v -0.669699 -0.000000 2.028126
v -0.655078 0.054991 2.026024
v -0.614980 0.095247 2.022309
v -0.560150 0.109981 2.017974
v -0.505280 0.095247 2.014183
v -0.465073 0.054991 2.011950
v -0.490301 -0.010000 1.471874
v -0.504922 -0.064991 1.473976
v -0.545020 -0.105247 1.477691
v -0.599850 -0.119981 1.482026
v -0.654720 -0.105247 1.485817
v -0.694927 -0.064991 1.488050
v -0.709699 -0.010000 1.488126
v -0.695078 0.044991 1.486024
v -0.654980 0.085247 1.482309
v -0.600150 0.099981 1.477974
v -0.545280 0.085247 1.474183
v -0.505073 0.044991 1.471950
v -0.600000 -0.010000 1.550000
v -0.600000 -0.010000 1.550000
v -0.600000 -0.010000 1.550000
v -0.600000 -0.010000 1.550000
v -0.600000 -0.010000 1.550000
v -0.600000 -0.010000 1.550000
v -0.600000 -0.010000 1.550000
v -0.600000 -0.010000 1.550000
v -0.600000 -0.010000 1.550000
v -0.600000 -0.010000 1.550000
v -0.600000 -0.010000 1.550000
v -0.600000 -0.010000 1.550000
v -0.554078 -0.010000 1.538582
v -0.560230 0.009134 1.538582
v -0.577039 0.023141 1.538582
v -0.600000 0.028268 1.538582
v -0.622961 0.023141 1.538582
v -0.639770 0.009134 1.538582
v -0.645922 -0.010000 1.538582
v -0.639770 -0.029134 1.538582
v -0.622961 -0.043141 1.538582
v -0.600000 -0.048268 1.538582
v -0.577039 -0.043141 1.538582
v -0.560230 -0.029134 1.538582
v -0.515147 -0.010000 1.506066
v -0.526515 0.025355 1.506066
v -0.557574 0.051237 1.506066
v -0.600000 0.060711 1.506066
v -0.642426 0.051237 1.506066
v -0.673485 0.025355 1.506066
v -0.684853 -0.010000 1.506066
v -0.673485 -0.045355 1.506066
v -0.642426 -0.071237 1.506066
v -0.600000 -0.080711 1.506066
v -0.557574 -0.071237 1.506066
v -0.526515 -0.045355 1.506066
v -0.489134 -0.010000 1.457403
v -0.503988 0.036194 1.457403
v -0.544567 0.070010 1.457403
v -0.600000 0.082388 1.457403
v -0.655433 0.070010 1.457403
v -0.696012 0.036194 1.457403
v -0.710866 -0.010000 1.457403
v -0.696012 -0.056194 1.457403
v -0.655433 -0.090010 1.457403
v -0.600000 -0.102388 1.457403
v -0.544567 -0.090010 1.457403
v -0.503988 -0.056194 1.457403
v -0.480000 -0.010000 1.400000
v -0.496077 0.040000 1.400000
v -0.540000 0.076603 1.400000
v -0.600000 0.090000 1.400000
v -0.660000 0.076603 1.400000
v -0.703923 0.040000 1.400000
v -0.720000 -0.010000 1.400000
v -0.703923 -0.060000 1.400000
v -0.660000 -0.096603 1.400000
v -0.600000 -0.110000 1.400000
v -0.540000 -0.096603 1.400000
v -0.496077 -0.060000 1.400000
v -0.489134 -0.010000 1.342597
v -0.503988 0.036194 1.342597
v -0.544567 0.070010 1.342597
v -0.600000 0.082388 1.342597
v -0.655433 0.070010 1.342597
v -0.696012 0.036194 1.342597
v -0.710866 -0.010000 1.342597
v -0.696012 -0.056194 1.342597
v -0.655433 -0.090010 1.342597
v -0.600000 -0.102388 1.342597
v -0.544567 -0.090010 1.342597
v -0.503988 -0.056194 1.342597
v -0.515147 -0.010000 1.293934
v -0.526515 0.025355 1.293934
v -0.557574 0.051237 1.293934
v -0.600000 0.060711 1.293934
v -0.642426 0.051237 1.293934
v -0.673485 0.025355 1.293934
v -0.684853 -0.010000 1.293934
v -0.673485 -0.045355 1.293934
v -0.642426 -0.071237 1.293934
v -0.600000 -0.080711 1.293934
v -0.557574 -0.071237 1.293934
v -0.526515 -0.045355 1.293934
v -0.554078 -0.010000 1.261418
v -0.560230 0.009134 1.261418
v -0.577039 0.023141 1.261418
v -0.600000 0.028268 1.261418
v -0.622961 0.023141 1.261418
v -0.639770 0.009134 1.261418
v -0.645922 -0.010000 1.261418
v -0.639770 -0.029134 1.261418
v -0.622961 -0.043141 1.261418
v -0.600000 -0.048268 1.261418
v -0.577039 -0.043141 1.261418
v -0.560230 -0.029134 1.261418
v -0.600000 -0.010000 1.250000
v -0.600000 -0.010000 1.250000
v -0.600000 -0.010000 1.250000
v -0.600000 -0.010000 1.250000
v -0.600000 -0.010000 1.250000
v -0.600000 -0.010000 1.250000
v -0.600000 -0.010000 1.250000
v -0.600000 -0.010000 1.250000
v -0.600000 -0.010000 1.250000
v -0.600000 -0.010000 1.250000
v -0.600000 -0.010000 1.250000
v -0.600000 -0.010000 1.250000
v 0.447236 0.000000 2.556176
v 0.431529 -0.065000 2.548650
v 0.388618 -0.112583 2.528088
v 0.330000 -0.130000 2.500000
v 0.271382 -0.112583 2.471912
v 0.228471 -0.065000 2.451350
v 0.212764 -0.000000 2.443824
v 0.228471 0.065000 2.451350
v 0.271382 0.112583 2.471912
v 0.330000 0.130000 2.500000
v 0.388618 0.112583 2.528088
v 0.431529 0.065000 2.548650
v 0.677236 0.000000 2.076176
v 0.661529 -0.065000 2.068650
v 0.618618 -0.112583 2.048088
v 0.560000 -0.130000 2.020000
v 0.501382 -0.112583 1.991912
v 0.458471 -0.065000 1.971350
v 0.442764 -0.000000 1.963824
v 0.458471 0.065000 1.971350
v 0.501382 0.112583 1.991912
v 0.560000 0.130000 2.020000
v 0.618618 0.112583 2.048088
v 0.661529 0.065000 2.068650
v 0.669699 0.000000 2.028126
v 0.654927 -0.054991 2.028050
v 0.614720 -0.095247 2.025817
v 0.559850 -0.109981 2.022026
v 0.505020 -0.095247 2.017691
v 0.464922 -0.054991 2.013976
v 0.450301 -0.000000 2.011874
v 0.465073 0.054991 2.011950
v 0.505280 0.095247 2.014183
v 0.560150 0.109981 2.017974
v 0.614980 0.095247 2.022309
v 0.655078 0.054991 2.026024
v 0.709699 -0.010000 1.488126
v 0.694927 -0.064991 1.488050
v 0.654720 -0.105247 1.485817
v 0.599850 -0.119981 1.482026
v 0.545020 -0.105247 1.477691
v 0.504922 -0.064991 1.473976
v 0.490301 -0.010000 1.471874
v 0.505073 0.044991 1.471950
v 0.545280 0.085247 1.474183
v 0.600150 0.099981 1.477974
v 0.654980 0.085247 1.482309
v 0.695078 0.044991 1.486024
v 0.600000 -0.010000 1.550000
v 0.600000 -0.010000 1.550000
v 0.600000 -0.010000 1.550000
v 0.600000 -0.010000 1.550000
v 0.600000 -0.010000 1.550000
v 0.600000 -0.010000 1.550000
v 0.600000 -0.010000 1.550000
v 0.600000 -0.010000 1.550000
v 0.600000 -0.010000 1.550000
v 0.600000 -0.010000 1.550000
v 0.600000 -0.010000 1.550000
v 0.600000 -0.010000 1.550000
v 0.645922 -0.010000 1.538582
v 0.639770 0.009134 1.538582
v 0.622961 0.023141 1.538582
v 0.600000 0.028268 1.538582
v 0.577039 0.023141 1.538582
v 0.560230 0.009134 1.538582
v 0.554078 -0.010000 1.538582
v 0.560230 -0.029134 1.538582
v 0.577039 -0.043141 1.538582
v 0.600000 -0.048268 1.538582
v 0.622961 -0.043141 1.538582
v 0.639770 -0.029134 1.538582
v 0.684853 -0.010000 1.506066
v 0.673485 0.025355 1.506066
v 0.642426 0.051237 1.506066
v 0.600000 0.060711 1.506066
v 0.557574 0.051237 1.506066
v 0.526515 0.025355 1.506066
v 0.515147 -0.010000 1.506066
v 0.526515 -0.045355 1.506066
v 0.557574 -0.071237 1.506066
v 0.600000 -0.080711 1.506066
v 0.642426 -0.071237 1.506066
v 0.673485 -0.045355 1.506066
v 0.710866 -0.010000 1.457403
v 0.696012 0.036194 1.457403
v 0.655433 0.070010 1.457403
v 0.600000 0.082388 1.457403
v 0.544567 0.070010 1.457403
v 0.503988 0.036194 1.457403
v 0.489134 -0.010000 1.457403
v 0.503988 -0.056194 1.457403
v 0.544567 -0.090010 1.457403
v 0.600000 -0.102388 1.457403
v 0.655433 -0.090010 1.457403
v 0.696012 -0.056194 1.457403
v 0.720000 -0.010000 1.400000
v 0.703923 0.040000 1.400000
v 0.660000 0.076603 1.400000
v 0.600000 0.090000 1.400000
v 0.540000 0.076603 1.400000
v 0.496077 0.040000 1.400000
v 0.480000 -0.010000 1.400000
v 0.496077 -0.060000 1.400000
v 0.540000 -0.096603 1.400000
v 0.600000 -0.110000 1.400000
v 0.660000 -0.096603 1.400000
v 0.703923 -0.060000 1.400000
v 0.710866 -0.010000 1.342597
v 0.696012 0.036194 1.342597
v 0.655433 0.070010 1.342597
v 0.600000 0.082388 1.342597
v 0.544567 0.070010 1.342597
v 0.503988 0.036194 1.342597
v 0.489134 -0.010000 1.342597
v 0.503988 -0.056194 1.342597
v 0.544567 -0.090010 1.342597
v 0.600000 -0.102388 1.342597
v 0.655433 -0.090010 1.342597
v 0.696012 -0.056194 1.342597
v 0.684853 -0.010000 1.293934
v 0.673485 0.025355 1.293934
v 0.642426 0.051237 1.293934
v 0.600000 0.060711 1.293934
v 0.557574 0.051237 1.293934
v 0.526515 0.025355 1.293934
v 0.515147 -0.010000 1.293934
v 0.526515 -0.045355 1.293934
v 0.557574 -0.071237 1.293934
v 0.600000 -0.080711 1.293934
v 0.642426 -0.071237 1.293934
v 0.673485 -0.045355 1.293934
v 0.645922 -0.010000 1.261418
v 0.639770 0.009134 1.261418
v 0.622961 0.023141 1.261418
v 0.600000 0.028268 1.261418
v 0.577039 0.023141 1.261418
v 0.560230 0.009134 1.261418
v 0.554078 -0.010000 1.261418
v 0.560230 -0.029134 1.261418
v 0.577039 -0.043141 1.261418
v 0.600000 -0.048268 1.261418
v 0.622961 -0.043141 1.261418
v 0.639770 -0.029134 1.261418
v 0.600000 -0.010000 1.250000
v 0.600000 -0.010000 1.250000
v 0.600000 -0.010000 1.250000
v 0.600000 -0.010000 1.250000
v 0.600000 -0.010000 1.250000
v 0.600000 -0.010000 1.250000
v 0.600000 -0.010000 1.250000
v 0.600000 -0.010000 1.250000
v 0.600000 -0.010000 1.250000
v 0.600000 -0.010000 1.250000
v 0.600000 -0.010000 1.250000
v 0.600000 -0.010000 1.250000
v -0.030000 0.000000 1.300000
v -0.050096 -0.075000 1.300000
v -0.105000 -0.129904 1.300000
v -0.180000 -0.150000 1.300000
v -0.255000 -0.129904 1.300000
v -0.309904 -0.075000 1.300000
v -0.330000 -0.000000 1.300000
v -0.309904 0.075000 1.300000
v -0.255000 0.129904 1.300000
v -0.180000 0.150000 1.300000
v -0.105000 0.129904 1.300000
v -0.050096 0.075000 1.300000
v -0.030000 0.000000 0.700000
v -0.050096 -0.075000 0.700000
v -0.105000 -0.129904 0.700000
v -0.180000 -0.150000 0.700000
v -0.255000 -0.129904 0.700000
v -0.309904 -0.075000 0.700000
v -0.330000 -0.000000 0.700000
v -0.309904 0.075000 0.700000
v -0.255000 0.129904 0.700000
v -0.180000 0.150000 0.700000
v -0.105000 0.129904 0.700000
v -0.050096 0.075000 0.700000
v -0.070000 0.000000 0.700000
v -0.084737 -0.054991 0.701018
v -0.125000 -0.095246 0.701764
v -0.180000 -0.109981 0.702037
v -0.235000 -0.095246 0.701764
v -0.275263 -0.054991 0.701018
v -0.290000 -0.000000 0.700000
v -0.275263 0.054991 0.698982
v -0.235000 0.095246 0.698236
v -0.180000 0.109981 0.697963
v -0.125000 0.095246 0.698236
v -0.084737 0.054991 0.698982
v -0.070000 -0.010000 0.160000
v -0.084737 -0.064991 0.161018
v -0.125000 -0.105246 0.161764
v -0.180000 -0.119981 0.162037
v -0.235000 -0.105246 0.161764
v -0.275263 -0.064991 0.161018
v -0.290000 -0.010000 0.160000
v -0.275263 0.044991 0.158982
v -0.235000 0.085246 0.158236
v -0.180000 0.099981 0.157963
v -0.125000 0.085246 0.158236
v -0.084737 0.044991 0.158982
v -0.180000 -0.080000 0.160000
v -0.180000 -0.080000 0.160000
v -0.180000 -0.080000 0.160000
v -0.180000 -0.080000 0.160000
v -0.180000 -0.080000 0.160000
v -0.180000 -0.080000 0.160000
v -0.180000 -0.080000 0.160000
v -0.180000 -0.080000 0.160000
v -0.180000 -0.080000 0.160000
v -0.180000 -0.080000 0.160000
v -0.180000 -0.080000 0.160000
v -0.180000 -0.080000 0.160000
v -0.180000 -0.080000 0.160000
v -0.180000 -0.080000 0.160000
v -0.111117 -0.080000 0.150866
v -0.117939 -0.030188 0.150866
v -0.137052 0.009758 0.150866
v -0.164672 0.031927 0.150866
v -0.195328 0.031927 0.150866
v -0.222948 0.009758 0.150866
v -0.242061 -0.030188 0.150866
v -0.248883 -0.080000 0.150866
v -0.242061 -0.129812 0.150866
v -0.222948 -0.169758 0.150866
v -0.195328 -0.191927 0.150866
v -0.164672 -0.191927 0.150866
v -0.137052 -0.169758 0.150866
v -0.117939 -0.129812 0.150866
v -0.052721 -0.080000 0.124853
v -0.065325 0.012041 0.124853
v -0.100643 0.085852 0.124853
v -0.151678 0.126813 0.124853
v -0.208322 0.126813 0.124853
v -0.259357 0.085852 0.124853
v -0.294675 0.012041 0.124853
v -0.307279 -0.080000 0.124853
v -0.294675 -0.172041 0.124853
v -0.259357 -0.245852 0.124853
v -0.208322 -0.286813 0.124853
v -0.151678 -0.286813 0.124853
v -0.100643 -0.245852 0.124853
v -0.065325 -0.172041 0.124853
v -0.013702 -0.080000 0.085922
v -0.030170 0.040257 0.085922
v -0.076315 0.136695 0.085922
v -0.142995 0.190215 0.085922
v -0.217005 0.190215 0.085922
v -0.283685 0.136695 0.085922
v -0.329830 0.040257 0.085922
v -0.346298 -0.080000 0.085922
v -0.329830 -0.200257 0.085922
v -0.283685 -0.296695 0.085922
v -0.217005 -0.350215 0.085922
v -0.142995 -0.350215 0.085922
v -0.076315 -0.296695 0.085922
v -0.030170 -0.200257 0.085922
v 0.000000 -0.080000 0.040000
v -0.017826 0.050165 0.040000
v -0.067772 0.154549 0.040000
v -0.139946 0.212478 0.040000
v -0.220054 0.212478 0.040000
v -0.292228 0.154549 0.040000
v -0.342174 0.050165 0.040000
v -0.360000 -0.080000 0.040000
v -0.342174 -0.210165 0.040000
v -0.292228 -0.314549 0.040000
v -0.220054 -0.372478 0.040000
v -0.139946 -0.372478 0.040000
v -0.067772 -0.314549 0.040000
v -0.017826 -0.210165 0.040000
v -0.013702 -0.080000 -0.005922
v -0.030170 0.040257 -0.005922
v -0.076315 0.136695 -0.005922
v -0.142995 0.190215 -0.005922
v -0.217005 0.190215 -0.005922
v -0.283685 0.136695 -0.005922
v -0.329830 0.040257 -0.005922
v -0.346298 -0.080000 -0.005922
v -0.329830 -0.200257 -0.005922
v -0.283685 -0.296695 -0.005922
v -0.217005 -0.350215 -0.005922
v -0.142995 -0.350215 -0.005922
v -0.076315 -0.296695 -0.005922
v -0.030170 -0.200257 -0.005922
v -0.052721 -0.080000 -0.044853
v -0.065325 0.012041 -0.044853
v -0.100643 0.085852 -0.044853
v -0.151678 0.126813 -0.044853
v -0.208322 0.126813 -0.044853
v -0.259357 0.085852 -0.044853
v -0.294675 0.012041 -0.044853
v -0.307279 -0.080000 -0.044853
v -0.294675 -0.172041 -0.044853
v -0.259357 -0.245852 -0.044853
v -0.208322 -0.286813 -0.044853
v -0.151678 -0.286813 -0.044853
v -0.100643 -0.245852 -0.044853
v -0.065325 -0.172041 -0.044853
v -0.111117 -0.080000 -0.070866
v -0.117939 -0.030188 -0.070866
v -0.137052 0.009758 -0.070866
v -0.164672 0.031927 -0.070866
v -0.195328 0.031927 -0.070866
v -0.222948 0.009758 -0.070866
v -0.242061 -0.030188 -0.070866
v -0.248883 -0.080000 -0.070866
v -0.242061 -0.129812 -0.070866
v -0.222948 -0.169758 -0.070866
v -0.195328 -0.191927 -0.070866
v -0.164672 -0.191927 -0.070866
v -0.137052 -0.169758 -0.070866
v -0.117939 -0.129812 -0.070866
v -0.180000 -0.080000 -0.080000
v -0.180000 -0.080000 -0.080000
v -0.180000 -0.080000 -0.080000
v -0.180000 -0.080000 -0.080000
v -0.180000 -0.080000 -0.080000
v -0.180000 -0.080000 -0.080000
v -0.180000 -0.080000 -0.080000
v -0.180000 -0.080000 -0.080000
v -0.180000 -0.080000 -0.080000
v -0.180000 -0.080000 -0.080000
v -0.180000 -0.080000 -0.080000
v -0.180000 -0.080000 -0.080000
v -0.180000 -0.080000 -0.080000
v -0.180000 -0.080000 -0.080000
v 0.330000 0.000000 1.300000
v 0.309904 -0.075000 1.300000
v 0.255000 -0.129904 1.300000
v 0.180000 -0.150000 1.300000
v 0.105000 -0.129904 1.300000
v 0.050096 -0.075000 1.300000
v 0.030000 -0.000000 1.300000
v 0.050096 0.075000 1.300000
v 0.105000 0.129904 1.300000
v 0.180000 0.150000 1.300000
v 0.255000 0.129904 1.300000
v 0.309904 0.075000 1.300000
v 0.330000 0.000000 0.700000
v 0.309904 -0.075000 0.700000
v 0.255000 -0.129904 0.700000
v 0.180000 -0.150000 0.700000
v 0.105000 -0.129904 0.700000
v 0.050096 -0.075000 0.700000
v 0.030000 -0.000000 0.700000
v 0.050096 0.075000 0.700000
v 0.105000 0.129904 0.700000
v 0.180000 0.150000 0.700000
v 0.255000 0.129904 0.700000
v 0.309904 0.075000 0.700000
v 0.290000 0.000000 0.700000
v 0.275263 -0.054991 0.701018
v 0.235000 -0.095246 0.701764
v 0.180000 -0.109981 0.702037
v 0.125000 -0.095246 0.701764
v 0.084737 -0.054991 0.701018
v 0.070000 -0.000000 0.700000
v 0.084737 0.054991 0.698982
v 0.125000 0.095246 0.698236
v 0.180000 0.109981 0.697963
v 0.235000 0.095246 0.698236
v 0.275263 0.054991 0.698982
v 0.290000 -0.010000 0.160000
v 0.275263 -0.064991 0.161018
v 0.235000 -0.105246 0.161764
v 0.180000 -0.119981 0.162037
v 0.125000 -0.105246 0.161764
v 0.084737 -0.064991 0.161018
v 0.070000 -0.010000 0.160000
v 0.084737 0.044991 0.158982
v 0.125000 0.085246 0.158236
v 0.180000 0.099981 0.157963
v 0.235000 0.085246 0.158236
v 0.275263 0.044991 0.158982
v 0.180000 -0.080000 0.160000
v 0.180000 -0.080000 0.160000
v 0.180000 -0.080000 0.160000
v 0.180000 -0.080000 0.160000
v 0.180000 -0.080000 0.160000
v 0.180000 -0.080000 0.160000
v 0.180000 -0.080000 0.160000
v 0.180000 -0.080000 0.160000
v 0.180000 -0.080000 0.160000
v 0.180000 -0.080000 0.160000
v 0.180000 -0.080000 0.160000
v 0.180000 -0.080000 0.160000
v 0.180000 -0.080000 0.160000
v 0.180000 -0.080000 0.160000
v 0.248883 -0.080000 0.150866
v 0.242061 -0.030188 0.150866
v 0.222948 0.009758 0.150866
v 0.195328 0.031927 0.150866
v 0.164672 0.031927 0.150866
v 0.137052 0.009758 0.150866
v 0.117939 -0.030188 0.150866
v 0.111117 -0.080000 0.150866
v 0.117939 -0.129812 0.150866
v 0.137052 -0.169758 0.150866
v 0.164672 -0.191927 0.150866
v 0.195328 -0.191927 0.150866
v 0.222948 -0.169758 0.150866
v 0.242061 -0.129812 0.150866
v 0.307279 -0.080000 0.124853
v 0.294675 0.012041 0.124853
v 0.259357 0.085852 0.124853
v 0.208322 0.126813 0.124853
v 0.151678 0.126813 0.124853
v 0.100643 0.085852 0.124853
v 0.065325 0.012041 0.124853
v 0.052721 -0.080000 0.124853
v 0.065325 -0.172041 0.124853
v 0.100643 -0.245852 0.124853
v 0.151678 -0.286813 0.124853
v 0.208322 -0.286813 0.124853
v 0.259357 -0.245852 0.124853
v 0.294675 -0.172041 0.124853
v 0.346298 -0.080000 0.085922
v 0.329830 0.040257 0.085922
v 0.283685 0.136695 0.085922
v 0.217005 0.190215 0.085922
v 0.142995 0.190215 0.085922
v 0.076315 0.136695 0.085922
v 0.030170 0.040257 0.085922
v 0.013702 -0.080000 0.085922
v 0.030170 -0.200257 0.085922
v 0.076315 -0.296695 0.085922
v 0.142995 -0.350215 0.085922
v 0.217005 -0.350215 0.085922
v 0.283685 -0.296695 0.085922
v 0.329830 -0.200257 0.085922
v 0.360000 -0.080000 0.040000
v 0.342174 0.050165 0.040000
v 0.292228 0.154549 0.040000
v 0.220054 0.212478 0.040000
v 0.139946 0.212478 0.040000
v 0.067772 0.154549 0.040000
v 0.017826 0.050165 0.040000
v 0.000000 -0.080000 0.040000
v 0.017826 -0.210165 0.040000
v 0.067772 -0.314549 0.040000
v 0.139946 -0.372478 0.040000
v 0.220054 -0.372478 0.040000
v 0.292228 -0.314549 0.040000
v 0.342174 -0.210165 0.040000
v 0.346298 -0.080000 -0.005922
v 0.329830 0.040257 -0.005922
v 0.283685 0.136695 -0.005922
v 0.217005 0.190215 -0.005922
v 0.142995 0.190215 -0.005922
v 0.076315 0.136695 -0.005922
v 0.030170 0.040257 -0.005922
v 0.013702 -0.080000 -0.005922
v 0.030170 -0.200257 -0.005922
v 0.076315 -0.296695 -0.005922
v 0.142995 -0.350215 -0.005922
v 0.217005 -0.350215 -0.005922
v 0.283685 -0.296695 -0.005922
v 0.329830 -0.200257 -0.005922
v 0.307279 -0.080000 -0.044853
v 0.294675 0.012041 -0.044853
v 0.259357 0.085852 -0.044853
v 0.208322 0.126813 -0.044853
v 0.151678 0.126813 -0.044853
v 0.100643 0.085852 -0.044853
v 0.065325 0.012041 -0.044853
v 0.052721 -0.080000 -0.044853
v 0.065325 -0.172041 -0.044853
v 0.100643 -0.245852 -0.044853
v 0.151678 -0.286813 -0.044853
v 0.208322 -0.286813 -0.044853
v 0.259357 -0.245852 -0.044853
v 0.294675 -0.172041 -0.044853
v 0.248883 -0.080000 -0.070866
v 0.242061 -0.030188 -0.070866
v 0.222948 0.009758 -0.070866
v 0.195328 0.031927 -0.070866
v 0.164672 0.031927 -0.070866
v 0.137052 0.009758 -0.070866
v 0.117939 -0.030188 -0.070866
v 0.111117 -0.080000 -0.070866
v 0.117939 -0.129812 -0.070866
v 0.137052 -0.169758 -0.070866
v 0.164672 -0.191927 -0.070866
v 0.195328 -0.191927 -0.070866
v 0.222948 -0.169758 -0.070866
v 0.242061 -0.129812 -0.070866
v 0.180000 -0.080000 -0.080000
v 0.180000 -0.080000 -0.080000
v 0.180000 -0.080000 -0.080000
v 0.180000 -0.080000 -0.080000
v 0.180000 -0.080000 -0.080000
v 0.180000 -0.080000 -0.080000
v 0.180000 -0.080000 -0.080000
v 0.180000 -0.080000 -0.080000
v 0.180000 -0.080000 -0.080000
v 0.180000 -0.080000 -0.080000
v 0.180000 -0.080000 -0.080000
v 0.180000 -0.080000 -0.080000
v 0.180000 -0.080000 -0.080000
v 0.180000 -0.080000 -0.080000
v -0.460000 0.000000 3.270000
v -0.460000 0.000000 3.270000
v -0.460000 0.000000 3.270000
v -0.460000 0.000000 3.270000
v -0.460000 0.000000 3.270000
v -0.460000 0.000000 3.270000
v -0.460000 0.000000 3.270000
v -0.460000 0.000000 3.270000
v -0.460000 0.000000 3.270000
v -0.460000 0.000000 3.270000
v -0.430000 0.000000 3.256603
v -0.435729 0.023511 3.256603
v -0.450729 0.038042 3.256603
v -0.469271 0.038042 3.256603
v -0.484271 0.023511 3.256603
v -0.490000 0.000000 3.256603
v -0.484271 -0.023511 3.256603
v -0.469271 -0.038042 3.256603
v -0.450729 -0.038042 3.256603
v -0.435729 -0.023511 3.256603
v -0.408038 0.000000 3.220000
v -0.417962 0.040723 3.220000
v -0.443943 0.065891 3.220000
v -0.476057 0.065891 3.220000
v -0.502038 0.040723 3.220000
v -0.511962 0.000000 3.220000
v -0.502038 -0.040723 3.220000
v -0.476057 -0.065891 3.220000
v -0.443943 -0.065891 3.220000
v -0.417962 -0.040723 3.220000
v -0.400000 0.000000 3.170000
v -0.411459 0.047023 3.170000
v -0.441459 0.076085 3.170000
v -0.478541 0.076085 3.170000
v -0.508541 0.047023 3.170000
v -0.520000 0.000000 3.170000
v -0.508541 -0.047023 3.170000
v -0.478541 -0.076085 3.170000
v -0.441459 -0.076085 3.170000
v -0.411459 -0.047023 3.170000
v -0.408038 0.000000 3.120000
v -0.417962 0.040723 3.120000
v -0.443943 0.065891 3.120000
v -0.476057 0.065891 3.120000
v -0.502038 0.040723 3.120000
v -0.511962 0.000000 3.120000
v -0.502038 -0.040723 3.120000
v -0.476057 -0.065891 3.120000
v -0.443943 -0.065891 3.120000
v -0.417962 -0.040723 3.120000
v -0.430000 0.000000 3.083397
v -0.435729 0.023511 3.083397
v -0.450729 0.038042 3.083397
v -0.469271 0.038042 3.083397
v -0.484271 0.023511 3.083397
v -0.490000 0.000000 3.083397
v -0.484271 -0.023511 3.083397
v -0.469271 -0.038042 3.083397
v -0.450729 -0.038042 3.083397
v -0.435729 -0.023511 3.083397
v -0.460000 0.000000 3.070000
v -0.460000 0.000000 3.070000
v -0.460000 0.000000 3.070000
v -0.460000 0.000000 3.070000
v -0.460000 0.000000 3.070000
v -0.460000 0.000000 3.070000
v -0.460000 -0.000000 3.070000
v -0.460000 -0.000000 3.070000
v -0.460000 -0.000000 3.070000
v -0.460000 -0.000000 3.070000
v 0.460000 0.000000 3.270000
v 0.460000 0.000000 3.270000
v 0.460000 0.000000 3.270000
v 0.460000 0.000000 3.270000
v 0.460000 0.000000 3.270000
v 0.460000 0.000000 3.270000
v 0.460000 0.000000 3.270000
v 0.460000 0.000000 3.270000
v 0.460000 0.000000 3.270000
v 0.460000 0.000000 3.270000
v 0.490000 0.000000 3.256603
v 0.484271 0.023511 3.256603
v 0.469271 0.038042 3.256603
v 0.450729 0.038042 3.256603
v 0.435729 0.023511 3.256603
v 0.430000 0.000000 3.256603
v 0.435729 -0.023511 3.256603
v 0.450729 -0.038042 3.256603
v 0.469271 -0.038042 3.256603
v 0.484271 -0.023511 3.256603
v 0.511962 0.000000 3.220000
v 0.502038 0.040723 3.220000
v 0.476057 0.065891 3.220000
v 0.443943 0.065891 3.220000
v 0.417962 0.040723 3.220000
v 0.408038 0.000000 3.220000
v 0.417962 -0.040723 3.220000
v 0.443943 -0.065891 3.220000
v 0.476057 -0.065891 3.220000
v 0.502038 -0.040723 3.220000
v 0.520000 0.000000 3.170000
v 0.508541 0.047023 3.170000
v 0.478541 0.076085 3.170000
v 0.441459 0.076085 3.170000
v 0.411459 0.047023 3.170000
v 0.400000 0.000000 3.170000
v 0.411459 -0.047023 3.170000
v 0.441459 -0.076085 3.170000
v 0.478541 -0.076085 3.170000
v 0.508541 -0.047023 3.170000
v 0.511962 0.000000 3.120000
v 0.502038 0.040723 3.120000
v 0.476057 0.065891 3.120000
v 0.443943 0.065891 3.120000
v 0.417962 0.040723 3.120000
v 0.408038 0.000000 3.120000
v 0.417962 -0.040723 3.120000
v 0.443943 -0.065891 3.120000
v 0.476057 -0.065891 3.120000
v 0.502038 -0.040723 3.120000
v 0.490000 0.000000 3.083397
v 0.484271 0.023511 3.083397
v 0.469271 0.038042 3.083397
v 0.450729 0.038042 3.083397
v 0.435729 0.023511 3.083397
v 0.430000 0.000000 3.083397
v 0.435729 -0.023511 3.083397
v 0.450729 -0.038042 3.083397
v 0.469271 -0.038042 3.083397
v 0.484271 -0.023511 3.083397
v 0.460000 0.000000 3.070000
v 0.460000 0.000000 3.070000
v 0.460000 0.000000 3.070000
v 0.460000 0.000000 3.070000
v 0.460000 0.000000 3.070000
v 0.460000 0.000000 3.070000
v 0.460000 -0.000000 3.070000
v 0.460000 -0.000000 3.070000
v 0.460000 -0.000000 3.070000
v 0.460000 -0.000000 3.070000

o Head
usemtl Skin
s 1
f 1 2 20 19
f 2 3 21 20
f 3 4 22 21
f 4 5 23 22
f 5 6 24 23
f 6 7 25 24
f 7 8 26 25
f 8 9 27 26
f 9 10 28 27
f 10 11 29 28
f 11 12 30 29
f 12 13 31 30
f 13 14 32 31
f 14 15 33 32
f 15 16 34 33
f 16 17 35 34
f 17 18 36 35
f 18 1 19 36
f 19 20 38 37
f 20 21 39 38
f 21 22 40 39
f 22 23 41 40
f 23 24 42 41
f 24 25 43 42
f 25 26 44 43
f 26 27 45 44
f 27 28 46 45
f 28 29 47 46
f 29 30 48 47
f 30 31 49 48
f 31 32 50 49
f 32 33 51 50
f 33 34 52 51
f 34 35 53 52
f 35 36 54 53
f 36 19 37 54
f 37 38 56 55
f 38 39 57 56
f 39 40 58 57
f 40 41 59 58
f 41 42 60 59
f 42 43 61 60
f 43 44 62 61
f 44 45 63 62
f 45 46 64 63
f 46 47 65 64
f 47 48 66 65
f 48 49 67 66
f 49 50 68 67
f 50 51 69 68
f 51 52 70 69
f 52 53 71 70
f 53 54 72 71
f 54 37 55 72
f 55 56 74 73
f 56 57 75 74
f 57 58 76 75
f 58 59 77 76
f 59 60 78 77
f 60 61 79 78
f 61 62 80 79
f 62 63 81 80
f 63 64 82 81
f 64 65 83 82
f 65 66 84 83
f 66 67 85 84
f 67 68 86 85
f 68 69 87 86
f 69 70 88 87
f 70 71 89 88
f 71 72 90 89
f 72 55 73 90
f 73 74 92 91
f 74 75 93 92
f 75 76 94 93
f 76 77 95 94
f 77 78 96 95
f 78 79 97 96
f 79 80 98 97
f 80 81 99 98
f 81 82 100 99
f 82 83 101 100
f 83 84 102 101
f 84 85 103 102
f 85 86 104 103
f 86 87 105 104
f 87 88 106 105
f 88 89 107 106
f 89 90 108 107
f 90 73 91 108
f 91 92 110 109
f 92 93 111 110
f 93 94 112 111
f 94 95 113 112
f 95 96 114 113
f 96 97 115 114
f 97 98 116 115
f 98 99 117 116
f 99 100 118 117
f 100 101 119 118
f 101 102 120 119
f 102 103 121 120
f 103 104 122 121
f 104 105 123 122
f 105 106 124 123
f 106 107 125 124
f 107 108 126 125
f 108 91 109 126
f 109 110 128 127
f 110 111 129 128
f 111 112 130 129
f 112 113 131 130
f 113 114 132 131
f 114 115 133 132
f 115 116 134 133
f 116 117 135 134
f 117 118 136 135
f 118 119 137 136
f 119 120 138 137
f 120 121 139 138
f 121 122 140 139
f 122 123 141 140
f 123 124 142 141
f 124 125 143 142
f 125 126 144 143
f 126 109 127 144
f 127 128 146 145
f 128 129 147 146
f 129 130 148 147
f 130 131 149 148
f 131 132 150 149
f 132 133 151 150
f 133 134 152 151
f 134 135 153 152
f 135 136 154 153
f 136 137 155 154
f 137 138 156 155
f 138 139 157 156
f 139 140 158 157
f 140 141 159 158
f 141 142 160 159
f 142 143 161 160
f 143 144 162 161
f 144 127 145 162
f 145 146 164 163
f 146 147 165 164
f 147 148 166 165
f 148 149 167 166
f 149 150 168 167
f 150 151 169 168
f 151 152 170 169
f 152 153 171 170
f 153 154 172 171
f 154 155 173 172
f 155 156 174 173
f 156 157 175 174
f 157 158 176 175
f 158 159 177 176
f 159 160 178 177
f 160 161 179 178
f 161 162 180 179
f 162 145 163 180
f 163 164 182 181
f 164 165 183 182
f 165 166 184 183
f 166 167 185 184
f 167 168 186 185
f 168 169 187 186
f 169 170 188 187
f 170 171 189 188
f 171 172 190 189
f 172 173 191 190
f 173 174 192 191
f 174 175 193 192
f 175 176 194 193
f 176 177 195 194
f 177 178 196 195
f 178 179 197 196
f 179 180 198 197
f 180 163 181 198
f 181 182 200 199
f 182 183 201 200
f 183 184 202 201
f 184 185 203 202
f 185 186 204 203
f 186 187 205 204
f 187 188 206 205
f 188 189 207 206
f 189 190 208 207
f 190 191 209 208
f 191 192 210 209
f 192 193 211 210
f 193 194 212 211
f 194 195 213 212
f 195 196 214 213
f 196 197 215 214
f 197 198 216 215
f 198 181 199 216
f 199 200 218 217
f 200 201 219 218
f 201 202 220 219
f 202 203 221 220
f 203 204 222 221
f 204 205 223 222
f 205 206 224 223
f 206 207 225 224
f 207 208 226 225
f 208 209 227 226
f 209 210 228 227
f 210 211 229 228
f 211 212 230 229
f 212 213 231 230
f 213 214 232 231
f 214 215 233 232
f 215 216 234 233
f 216 199 217 234

o HairCap
usemtl Hair
s 1
f 235 236 254 253
f 236 237 255 254
f 237 238 256 255
f 238 239 257 256
f 239 240 258 257
f 240 241 259 258
f 241 242 260 259
f 242 243 261 260
f 243 244 262 261
f 244 245 263 262
f 245 246 264 263
f 246 247 265 264
f 247 248 266 265
f 248 249 267 266
f 249 250 268 267
f 250 251 269 268
f 251 252 270 269
f 252 235 253 270
f 253 254 272 271
f 254 255 273 272
f 255 256 274 273
f 256 257 275 274
f 257 258 276 275
f 258 259 277 276
f 259 260 278 277
f 260 261 279 278
f 261 262 280 279
f 262 263 281 280
f 263 264 282 281
f 264 265 283 282
f 265 266 284 283
f 266 267 285 284
f 267 268 286 285
f 268 269 287 286
f 269 270 288 287
f 270 253 271 288
f 271 272 290 289
f 272 273 291 290
f 273 274 292 291
f 274 275 293 292
f 275 276 294 293
f 276 277 295 294
f 277 278 296 295
f 278 279 297 296
f 279 280 298 297
f 280 281 299 298
f 281 282 300 299
f 282 283 301 300
f 283 284 302 301
f 284 285 303 302
f 285 286 304 303
f 286 287 305 304
f 287 288 306 305
f 288 271 289 306
f 289 290 308 307
f 290 291 309 308
f 291 292 310 309
f 292 293 311 310
f 293 294 312 311
f 294 295 313 312
f 295 296 314 313
f 296 297 315 314
f 297 298 316 315
f 298 299 317 316
f 299 300 318 317
f 300 301 319 318
f 301 302 320 319
f 302 303 321 320
f 303 304 322 321
f 304 305 323 322
f 305 306 324 323
f 306 289 307 324
f 307 308 326 325
f 308 309 327 326
f 309 310 328 327
f 310 311 329 328
f 311 312 330 329
f 312 313 331 330
f 313 314 332 331
f 314 315 333 332
f 315 316 334 333
f 316 317 335 334
f 317 318 336 335
f 318 319 337 336
f 319 320 338 337
f 320 321 339 338
f 321 322 340 339
f 322 323 341 340
f 323 324 342 341
f 324 307 325 342
f 325 326 344 343
f 326 327 345 344
f 327 328 346 345
f 328 329 347 346
f 329 330 348 347
f 330 331 349 348
f 331 332 350 349
f 332 333 351 350
f 333 334 352 351
f 334 335 353 352
f 335 336 354 353
f 336 337 355 354
f 337 338 356 355
f 338 339 357 356
f 339 340 358 357
f 340 341 359 358
f 341 342 360 359
f 342 325 343 360
f 343 344 362 361
f 344 345 363 362
f 345 346 364 363
f 346 347 365 364
f 347 348 366 365
f 348 349 367 366
f 349 350 368 367
f 350 351 369 368
f 351 352 370 369
f 352 353 371 370
f 353 354 372 371
f 354 355 373 372
f 355 356 374 373
f 356 357 375 374
f 357 358 376 375
f 358 359 377 376
f 359 360 378 377
f 360 343 361 378
f 361 362 380 379
f 362 363 381 380
f 363 364 382 381
f 364 365 383 382
f 365 366 384 383
f 366 367 385 384
f 367 368 386 385
f 368 369 387 386
f 369 370 388 387
f 370 371 389 388
f 371 372 390 389
f 372 373 391 390
f 373 374 392 391
f 374 375 393 392
f 375 376 394 393
f 376 377 395 394
f 377 378 396 395
f 378 361 379 396
f 379 380 398 397
f 380 381 399 398
f 381 382 400 399
f 382 383 401 400
f 383 384 402 401
f 384 385 403 402
f 385 386 404 403
f 386 387 405 404
f 387 388 406 405
f 388 389 407 406
f 389 390 408 407
f 390 391 409 408
f 391 392 410 409
f 392 393 411 410
f 393 394 412 411
f 394 395 413 412
f 395 396 414 413
f 396 379 397 414
f 397 398 416 415
f 398 399 417 416
f 399 400 418 417
f 400 401 419 418
f 401 402 420 419
f 402 403 421 420
f 403 404 422 421
f 404 405 423 422
f 405 406 424 423
f 406 407 425 424
f 407 408 426 425
f 408 409 427 426
f 409 410 428 427
f 410 411 429 428
f 411 412 430 429
f 412 413 431 430
f 413 414 432 431
f 414 397 415 432
f 415 416 434 433
f 416 417 435 434
f 417 418 436 435
f 418 419 437 436
f 419 420 438 437
f 420 421 439 438
f 421 422 440 439
f 422 423 441 440
f 423 424 442 441
f 424 425 443 442
f 425 426 444 443
f 426 427 445 444
f 427 428 446 445
f 428 429 447 446
f 429 430 448 447
f 430 431 449 448
f 431 432 450 449
f 432 415 433 450
f 433 434 452 451
f 434 435 453 452
f 435 436 454 453
f 436 437 455 454
f 437 438 456 455
f 438 439 457 456
f 439 440 458 457
f 440 441 459 458
f 441 442 460 459
f 442 443 461 460
f 443 444 462 461
f 444 445 463 462
f 445 446 464 463
f 446 447 465 464
f 447 448 466 465
f 448 449 467 466
f 449 450 468 467
f 450 433 451 468

o FacePatch
usemtl Skin
s 1
f 469 470 488 487
f 470 471 489 488
f 471 472 490 489
f 472 473 491 490
f 473 474 492 491
f 474 475 493 492
f 475 476 494 493
f 476 477 495 494
f 477 478 496 495
f 478 479 497 496
f 479 480 498 497
f 480 481 499 498
f 481 482 500 499
f 482 483 501 500
f 483 484 502 501
f 484 485 503 502
f 485 486 504 503
f 486 469 487 504
f 487 488 506 505
f 488 489 507 506
f 489 490 508 507
f 490 491 509 508
f 491 492 510 509
f 492 493 511 510
f 493 494 512 511
f 494 495 513 512
f 495 496 514 513
f 496 497 515 514
f 497 498 516 515
f 498 499 517 516
f 499 500 518 517
f 500 501 519 518
f 501 502 520 519
f 502 503 521 520
f 503 504 522 521
f 504 487 505 522
f 505 506 524 523
f 506 507 525 524
f 507 508 526 525
f 508 509 527 526
f 509 510 528 527
f 510 511 529 528
f 511 512 530 529
f 512 513 531 530
f 513 514 532 531
f 514 515 533 532
f 515 516 534 533
f 516 517 535 534
f 517 518 536 535
f 518 519 537 536
f 519 520 538 537
f 520 521 539 538
f 521 522 540 539
f 522 505 523 540
f 523 524 542 541
f 524 525 543 542
f 525 526 544 543
f 526 527 545 544
f 527 528 546 545
f 528 529 547 546
f 529 530 548 547
f 530 531 549 548
f 531 532 550 549
f 532 533 551 550
f 533 534 552 551
f 534 535 553 552
f 535 536 554 553
f 536 537 555 554
f 537 538 556 555
f 538 539 557 556
f 539 540 558 557
f 540 523 541 558
f 541 542 560 559
f 542 543 561 560
f 543 544 562 561
f 544 545 563 562
f 545 546 564 563
f 546 547 565 564
f 547 548 566 565
f 548 549 567 566
f 549 550 568 567
f 550 551 569 568
f 551 552 570 569
f 552 553 571 570
f 553 554 572 571
f 554 555 573 572
f 555 556 574 573
f 556 557 575 574
f 557 558 576 575
f 558 541 559 576
f 559 560 578 577
f 560 561 579 578
f 561 562 580 579
f 562 563 581 580
f 563 564 582 581
f 564 565 583 582
f 565 566 584 583
f 566 567 585 584
f 567 568 586 585
f 568 569 587 586
f 569 570 588 587
f 570 571 589 588
f 571 572 590 589
f 572 573 591 590
f 573 574 592 591
f 574 575 593 592
f 575 576 594 593
f 576 559 577 594
f 577 578 596 595
f 578 579 597 596
f 579 580 598 597
f 580 581 599 598
f 581 582 600 599
f 582 583 601 600
f 583 584 602 601
f 584 585 603 602
f 585 586 604 603
f 586 587 605 604
f 587 588 606 605
f 588 589 607 606
f 589 590 608 607
f 590 591 609 608
f 591 592 610 609
f 592 593 611 610
f 593 594 612 611
f 594 577 595 612
f 595 596 614 613
f 596 597 615 614
f 597 598 616 615
f 598 599 617 616
f 599 600 618 617
f 600 601 619 618
f 601 602 620 619
f 602 603 621 620
f 603 604 622 621
f 604 605 623 622
f 605 606 624 623
f 606 607 625 624
f 607 608 626 625
f 608 609 627 626
f 609 610 628 627
f 610 611 629 628
f 611 612 630 629
f 612 595 613 630
f 613 614 632 631
f 614 615 633 632
f 615 616 634 633
f 616 617 635 634
f 617 618 636 635
f 618 619 637 636
f 619 620 638 637
f 620 621 639 638
f 621 622 640 639
f 622 623 641 640
f 623 624 642 641
f 624 625 643 642
f 625 626 644 643
f 626 627 645 644
f 627 628 646 645
f 628 629 647 646
f 629 630 648 647
f 630 613 631 648
f 631 632 650 649
f 632 633 651 650
f 633 634 652 651
f 634 635 653 652
f 635 636 654 653
f 636 637 655 654
f 637 638 656 655
f 638 639 657 656
f 639 640 658 657
f 640 641 659 658
f 641 642 660 659
f 642 643 661 660
f 643 644 662 661
f 644 645 663 662
f 645 646 664 663
f 646 647 665 664
f 647 648 666 665
f 648 631 649 666

o Bangs_-0.18
usemtl Hair
s 1
f 667 668 678 677
f 668 669 679 678
f 669 670 680 679
f 670 671 681 680
f 671 672 682 681
f 672 673 683 682
f 673 674 684 683
f 674 675 685 684
f 675 676 686 685
f 676 667 677 686
f 667 668 669 670 671 672 673 674 675 676
f 686 685 684 683 682 681 680 679 678 677

o Bangs_0.0
usemtl Hair
s 1
f 687 688 698 697
f 688 689 699 698
f 689 690 700 699
f 690 691 701 700
f 691 692 702 701
f 692 693 703 702
f 693 694 704 703
f 694 695 705 704
f 695 696 706 705
f 696 687 697 706
f 687 688 689 690 691 692 693 694 695 696
f 706 705 704 703 702 701 700 699 698 697

o Bangs_0.18
usemtl Hair
s 1
f 707 708 718 717
f 708 709 719 718
f 709 710 720 719
f 710 711 721 720
f 711 712 722 721
f 712 713 723 722
f 713 714 724 723
f 714 715 725 724
f 715 716 726 725
f 716 707 717 726
f 707 708 709 710 711 712 713 714 715 716
f 726 725 724 723 722 721 720 719 718 717

o Eye_L
usemtl Eyes
s 1
f 727 728 740 739
f 728 729 741 740
f 729 730 742 741
f 730 731 743 742
f 731 732 744 743
f 732 733 745 744
f 733 734 746 745
f 734 735 747 746
f 735 736 748 747
f 736 737 749 748
f 737 738 750 749
f 738 727 739 750
f 739 740 752 751
f 740 741 753 752
f 741 742 754 753
f 742 743 755 754
f 743 744 756 755
f 744 745 757 756
f 745 746 758 757
f 746 747 759 758
f 747 748 760 759
f 748 749 761 760
f 749 750 762 761
f 750 739 751 762
f 751 752 764 763
f 752 753 765 764
f 753 754 766 765
f 754 755 767 766
f 755 756 768 767
f 756 757 769 768
f 757 758 770 769
f 758 759 771 770
f 759 760 772 771
f 760 761 773 772
f 761 762 774 773
f 762 751 763 774
f 763 764 776 775
f 764 765 777 776
f 765 766 778 777
f 766 767 779 778
f 767 768 780 779
f 768 769 781 780
f 769 770 782 781
f 770 771 783 782
f 771 772 784 783
f 772 773 785 784
f 773 774 786 785
f 774 763 775 786
f 775 776 788 787
f 776 777 789 788
f 777 778 790 789
f 778 779 791 790
f 779 780 792 791
f 780 781 793 792
f 781 782 794 793
f 782 783 795 794
f 783 784 796 795
f 784 785 797 796
f 785 786 798 797
f 786 775 787 798
f 787 788 800 799
f 788 789 801 800
f 789 790 802 801
f 790 791 803 802
f 791 792 804 803
f 792 793 805 804
f 793 794 806 805
f 794 795 807 806
f 795 796 808 807
f 796 797 809 808
f 797 798 810 809
f 798 787 799 810
f 799 800 812 811
f 800 801 813 812
f 801 802 814 813
f 802 803 815 814
f 803 804 816 815
f 804 805 817 816
f 805 806 818 817
f 806 807 819 818
f 807 808 820 819
f 808 809 821 820
f 809 810 822 821
f 810 799 811 822
f 811 812 824 823
f 812 813 825 824
f 813 814 826 825
f 814 815 827 826
f 815 816 828 827
f 816 817 829 828
f 817 818 830 829
f 818 819 831 830
f 819 820 832 831
f 820 821 833 832
f 821 822 834 833
f 822 811 823 834

o Eye_R
usemtl Eyes
s 1
f 835 836 848 847
f 836 837 849 848
f 837 838 850 849
f 838 839 851 850
f 839 840 852 851
f 840 841 853 852
f 841 842 854 853
f 842 843 855 854
f 843 844 856 855
f 844 845 857 856
f 845 846 858 857
f 846 835 847 858
f 847 848 860 859
f 848 849 861 860
f 849 850 862 861
f 850 851 863 862
f 851 852 864 863
f 852 853 865 864
f 853 854 866 865
f 854 855 867 866
f 855 856 868 867
f 856 857 869 868
f 857 858 870 869
f 858 847 859 870
f 859 860 872 871
f 860 861 873 872
f 861 862 874 873
f 862 863 875 874
f 863 864 876 875
f 864 865 877 876
f 865 866 878 877
f 866 867 879 878
f 867 868 880 879
f 868 869 881 880
f 869 870 882 881
f 870 859 871 882
f 871 872 884 883
f 872 873 885 884
f 873 874 886 885
f 874 875 887 886
f 875 876 888 887
f 876 877 889 888
f 877 878 890 889
f 878 879 891 890
f 879 880 892 891
f 880 881 893 892
f 881 882 894 893
f 882 871 883 894
f 883 884 896 895
f 884 885 897 896
f 885 886 898 897
f 886 887 899 898
f 887 888 900 899
f 888 889 901 900
f 889 890 902 901
f 890 891 903 902
f 891 892 904 903
f 892 893 905 904
f 893 894 906 905
f 894 883 895 906
f 895 896 908 907
f 896 897 909 908
f 897 898 910 909
f 898 899 911 910
f 899 900 912 911
f 900 901 913 912
f 901 902 914 913
f 902 903 915 914
f 903 904 916 915
f 904 905 917 916
f 905 906 918 917
f 906 895 907 918
f 907 908 920 919
f 908 909 921 920
f 909 910 922 921
f 910 911 923 922
f 911 912 924 923
f 912 913 925 924
f 913 914 926 925
f 914 915 927 926
f 915 916 928 927
f 916 917 929 928
f 917 918 930 929
f 918 907 919 930
f 919 920 932 931
f 920 921 933 932
f 921 922 934 933
f 922 923 935 934
f 923 924 936 935
f 924 925 937 936
f 925 926 938 937
f 926 927 939 938
f 927 928 940 939
f 928 929 941 940
f 929 930 942 941
f 930 919 931 942

o Mouth
usemtl Mouth
s 1
f 943 944 954 953
f 944 945 955 954
f 945 946 956 955
f 946 947 957 956
f 947 948 958 957
f 948 949 959 958
f 949 950 960 959
f 950 951 961 960
f 951 952 962 961
f 952 943 953 962
f 953 954 964 963
f 954 955 965 964
f 955 956 966 965
f 956 957 967 966
f 957 958 968 967
f 958 959 969 968
f 959 960 970 969
f 960 961 971 970
f 961 962 972 971
f 962 953 963 972
f 963 964 974 973
f 964 965 975 974
f 965 966 976 975
f 966 967 977 976
f 967 968 978 977
f 968 969 979 978
f 969 970 980 979
f 970 971 981 980
f 971 972 982 981
f 972 963 973 982
f 973 974 984 983
f 974 975 985 984
f 975 976 986 985
f 976 977 987 986
f 977 978 988 987
f 978 979 989 988
f 979 980 990 989
f 980 981 991 990
f 981 982 992 991
f 982 973 983 992
f 983 984 994 993
f 984 985 995 994
f 985 986 996 995
f 986 987 997 996
f 987 988 998 997
f 988 989 999 998
f 989 990 1000 999
f 990 991 1001 1000
f 991 992 1002 1001
f 992 983 993 1002
f 993 994 1004 1003
f 994 995 1005 1004
f 995 996 1006 1005
f 996 997 1007 1006
f 997 998 1008 1007
f 998 999 1009 1008
f 999 1000 1010 1009
f 1000 1001 1011 1010
f 1001 1002 1012 1011
f 1002 993 1003 1012

o Neck
usemtl Skin
s 1
f 1013 1014 1026 1025
f 1014 1015 1027 1026
f 1015 1016 1028 1027
f 1016 1017 1029 1028
f 1017 1018 1030 1029
f 1018 1019 1031 1030
f 1019 1020 1032 1031
f 1020 1021 1033 1032
f 1021 1022 1034 1033
f 1022 1023 1035 1034
f 1023 1024 1036 1035
f 1024 1013 1025 1036
f 1013 1014 1015 1016 1017 1018 1019 1020 1021 1022 1023 1024
f 1036 1035 1034 1033 1032 1031 1030 1029 1028 1027 1026 1025

o Torso
usemtl Top
s 1
f 1037 1038 1054 1053
f 1038 1039 1055 1054
f 1039 1040 1056 1055
f 1040 1041 1057 1056
f 1041 1042 1058 1057
f 1042 1043 1059 1058
f 1043 1044 1060 1059
f 1044 1045 1061 1060
f 1045 1046 1062 1061
f 1046 1047 1063 1062
f 1047 1048 1064 1063
f 1048 1049 1065 1064
f 1049 1050 1066 1065
f 1050 1051 1067 1066
f 1051 1052 1068 1067
f 1052 1037 1053 1068
f 1037 1038 1039 1040 1041 1042 1043 1044 1045 1046 1047 1048 1049 1050 1051 1052
f 1068 1067 1066 1065 1064 1063 1062 1061 1060 1059 1058 1057 1056 1055 1054 1053

o Collar
usemtl Top
s 1
f 1069 1070 1082 1081
f 1070 1071 1083 1082
f 1071 1072 1084 1083
f 1072 1073 1085 1084
f 1073 1074 1086 1085
f 1074 1075 1087 1086
f 1075 1076 1088 1087
f 1076 1077 1089 1088
f 1077 1078 1090 1089
f 1078 1079 1091 1090
f 1079 1080 1092 1091
f 1080 1069 1081 1092
f 1069 1070 1071 1072 1073 1074 1075 1076 1077 1078 1079 1080
f 1092 1091 1090 1089 1088 1087 1086 1085 1084 1083 1082 1081

o Waist
usemtl Pants
s 1
f 1093 1094 1110 1109
f 1094 1095 1111 1110
f 1095 1096 1112 1111
f 1096 1097 1113 1112
f 1097 1098 1114 1113
f 1098 1099 1115 1114
f 1099 1100 1116 1115
f 1100 1101 1117 1116
f 1101 1102 1118 1117
f 1102 1103 1119 1118
f 1103 1104 1120 1119
f 1104 1105 1121 1120
f 1105 1106 1122 1121
f 1106 1107 1123 1122
f 1107 1108 1124 1123
f 1108 1093 1109 1124
f 1093 1094 1095 1096 1097 1098 1099 1100 1101 1102 1103 1104 1105 1106 1107 1108
f 1124 1123 1122 1121 1120 1119 1118 1117 1116 1115 1114 1113 1112 1111 1110 1109

o UpperArm_-1
usemtl Top
s 1
f 1125 1126 1138 1137
f 1126 1127 1139 1138
f 1127 1128 1140 1139
f 1128 1129 1141 1140
f 1129 1130 1142 1141
f 1130 1131 1143 1142
f 1131 1132 1144 1143
f 1132 1133 1145 1144
f 1133 1134 1146 1145
f 1134 1135 1147 1146
f 1135 1136 1148 1147
f 1136 1125 1137 1148
f 1125 1126 1127 1128 1129 1130 1131 1132 1133 1134 1135 1136
f 1148 1147 1146 1145 1144 1143 1142 1141 1140 1139 1138 1137

o ForeArm_-1
usemtl Skin
s 1
f 1149 1150 1162 1161
f 1150 1151 1163 1162
f 1151 1152 1164 1163
f 1152 1153 1165 1164
f 1153 1154 1166 1165
f 1154 1155 1167 1166
f 1155 1156 1168 1167
f 1156 1157 1169 1168
f 1157 1158 1170 1169
f 1158 1159 1171 1170
f 1159 1160 1172 1171
f 1160 1149 1161 1172
f 1149 1150 1151 1152 1153 1154 1155 1156 1157 1158 1159 1160
f 1172 1171 1170 1169 1168 1167 1166 1165 1164 1163 1162 1161

o Hand_-1
usemtl Skin
s 1
f 1173 1174 1186 1185
f 1174 1175 1187 1186
f 1175 1176 1188 1187
f 1176 1177 1189 1188
f 1177 1178 1190 1189
f 1178 1179 1191 1190
f 1179 1180 1192 1191
f 1180 1181 1193 1192
f 1181 1182 1194 1193
f 1182 1183 1195 1194
f 1183 1184 1196 1195
f 1184 1173 1185 1196
f 1185 1186 1198 1197
f 1186 1187 1199 1198
f 1187 1188 1200 1199
f 1188 1189 1201 1200
f 1189 1190 1202 1201
f 1190 1191 1203 1202
f 1191 1192 1204 1203
f 1192 1193 1205 1204
f 1193 1194 1206 1205
f 1194 1195 1207 1206
f 1195 1196 1208 1207
f 1196 1185 1197 1208
f 1197 1198 1210 1209
f 1198 1199 1211 1210
f 1199 1200 1212 1211
f 1200 1201 1213 1212
f 1201 1202 1214 1213
f 1202 1203 1215 1214
f 1203 1204 1216 1215
f 1204 1205 1217 1216
f 1205 1206 1218 1217
f 1206 1207 1219 1218
f 1207 1208 1220 1219
f 1208 1197 1209 1220
f 1209 1210 1222 1221
f 1210 1211 1223 1222
f 1211 1212 1224 1223
f 1212 1213 1225 1224
f 1213 1214 1226 1225
f 1214 1215 1227 1226
f 1215 1216 1228 1227
f 1216 1217 1229 1228
f 1217 1218 1230 1229
f 1218 1219 1231 1230
f 1219 1220 1232 1231
f 1220 1209 1221 1232
f 1221 1222 1234 1233
f 1222 1223 1235 1234
f 1223 1224 1236 1235
f 1224 1225 1237 1236
f 1225 1226 1238 1237
f 1226 1227 1239 1238
f 1227 1228 1240 1239
f 1228 1229 1241 1240
f 1229 1230 1242 1241
f 1230 1231 1243 1242
f 1231 1232 1244 1243
f 1232 1221 1233 1244
f 1233 1234 1246 1245
f 1234 1235 1247 1246
f 1235 1236 1248 1247
f 1236 1237 1249 1248
f 1237 1238 1250 1249
f 1238 1239 1251 1250
f 1239 1240 1252 1251
f 1240 1241 1253 1252
f 1241 1242 1254 1253
f 1242 1243 1255 1254
f 1243 1244 1256 1255
f 1244 1233 1245 1256
f 1245 1246 1258 1257
f 1246 1247 1259 1258
f 1247 1248 1260 1259
f 1248 1249 1261 1260
f 1249 1250 1262 1261
f 1250 1251 1263 1262
f 1251 1252 1264 1263
f 1252 1253 1265 1264
f 1253 1254 1266 1265
f 1254 1255 1267 1266
f 1255 1256 1268 1267
f 1256 1245 1257 1268
f 1257 1258 1270 1269
f 1258 1259 1271 1270
f 1259 1260 1272 1271
f 1260 1261 1273 1272
f 1261 1262 1274 1273
f 1262 1263 1275 1274
f 1263 1264 1276 1275
f 1264 1265 1277 1276
f 1265 1266 1278 1277
f 1266 1267 1279 1278
f 1267 1268 1280 1279
f 1268 1257 1269 1280

o UpperArm_1
usemtl Top
s 1
f 1281 1282 1294 1293
f 1282 1283 1295 1294
f 1283 1284 1296 1295
f 1284 1285 1297 1296
f 1285 1286 1298 1297
f 1286 1287 1299 1298
f 1287 1288 1300 1299
f 1288 1289 1301 1300
f 1289 1290 1302 1301
f 1290 1291 1303 1302
f 1291 1292 1304 1303
f 1292 1281 1293 1304
f 1281 1282 1283 1284 1285 1286 1287 1288 1289 1290 1291 1292
f 1304 1303 1302 1301 1300 1299 1298 1297 1296 1295 1294 1293

o ForeArm_1
usemtl Skin
s 1
f 1305 1306 1318 1317
f 1306 1307 1319 1318
f 1307 1308 1320 1319
f 1308 1309 1321 1320
f 1309 1310 1322 1321
f 1310 1311 1323 1322
f 1311 1312 1324 1323
f 1312 1313 1325 1324
f 1313 1314 1326 1325
f 1314 1315 1327 1326
f 1315 1316 1328 1327
f 1316 1305 1317 1328
f 1305 1306 1307 1308 1309 1310 1311 1312 1313 1314 1315 1316
f 1328 1327 1326 1325 1324 1323 1322 1321 1320 1319 1318 1317

o Hand_1
usemtl Skin
s 1
f 1329 1330 1342 1341
f 1330 1331 1343 1342
f 1331 1332 1344 1343
f 1332 1333 1345 1344
f 1333 1334 1346 1345
f 1334 1335 1347 1346
f 1335 1336 1348 1347
f 1336 1337 1349 1348
f 1337 1338 1350 1349
f 1338 1339 1351 1350
f 1339 1340 1352 1351
f 1340 1329 1341 1352
f 1341 1342 1354 1353
f 1342 1343 1355 1354
f 1343 1344 1356 1355
f 1344 1345 1357 1356
f 1345 1346 1358 1357
f 1346 1347 1359 1358
f 1347 1348 1360 1359
f 1348 1349 1361 1360
f 1349 1350 1362 1361
f 1350 1351 1363 1362
f 1351 1352 1364 1363
f 1352 1341 1353 1364
f 1353 1354 1366 1365
f 1354 1355 1367 1366
f 1355 1356 1368 1367
f 1356 1357 1369 1368
f 1357 1358 1370 1369
f 1358 1359 1371 1370
f 1359 1360 1372 1371
f 1360 1361 1373 1372
f 1361 1362 1374 1373
f 1362 1363 1375 1374
f 1363 1364 1376 1375
f 1364 1353 1365 1376
f 1365 1366 1378 1377
f 1366 1367 1379 1378
f 1367 1368 1380 1379
f 1368 1369 1381 1380
f 1369 1370 1382 1381
f 1370 1371 1383 1382
f 1371 1372 1384 1383
f 1372 1373 1385 1384
f 1373 1374 1386 1385
f 1374 1375 1387 1386
f 1375 1376 1388 1387
f 1376 1365 1377 1388
f 1377 1378 1390 1389
f 1378 1379 1391 1390
f 1379 1380 1392 1391
f 1380 1381 1393 1392
f 1381 1382 1394 1393
f 1382 1383 1395 1394
f 1383 1384 1396 1395
f 1384 1385 1397 1396
f 1385 1386 1398 1397
f 1386 1387 1399 1398
f 1387 1388 1400 1399
f 1388 1377 1389 1400
f 1389 1390 1402 1401
f 1390 1391 1403 1402
f 1391 1392 1404 1403
f 1392 1393 1405 1404
f 1393 1394 1406 1405
f 1394 1395 1407 1406
f 1395 1396 1408 1407
f 1396 1397 1409 1408
f 1397 1398 1410 1409
f 1398 1399 1411 1410
f 1399 1400 1412 1411
f 1400 1389 1401 1412
f 1401 1402 1414 1413
f 1402 1403 1415 1414
f 1403 1404 1416 1415
f 1404 1405 1417 1416
f 1405 1406 1418 1417
f 1406 1407 1419 1418
f 1407 1408 1420 1419
f 1408 1409 1421 1420
f 1409 1410 1422 1421
f 1410 1411 1423 1422
f 1411 1412 1424 1423
f 1412 1401 1413 1424
f 1413 1414 1426 1425
f 1414 1415 1427 1426
f 1415 1416 1428 1427
f 1416 1417 1429 1428
f 1417 1418 1430 1429
f 1418 1419 1431 1430
f 1419 1420 1432 1431
f 1420 1421 1433 1432
f 1421 1422 1434 1433
f 1422 1423 1435 1434
f 1423 1424 1436 1435
f 1424 1413 1425 1436

o Thigh_-1
usemtl Pants
s 1
f 1437 1438 1450 1449
f 1438 1439 1451 1450
f 1439 1440 1452 1451
f 1440 1441 1453 1452
f 1441 1442 1454 1453
f 1442 1443 1455 1454
f 1443 1444 1456 1455
f 1444 1445 1457 1456
f 1445 1446 1458 1457
f 1446 1447 1459 1458
f 1447 1448 1460 1459
f 1448 1437 1449 1460
f 1437 1438 1439 1440 1441 1442 1443 1444 1445 1446 1447 1448
f 1460 1459 1458 1457 1456 1455 1454 1453 1452 1451 1450 1449

o LowerLeg_-1
usemtl Skin
s 1
f 1461 1462 1474 1473
f 1462 1463 1475 1474
f 1463 1464 1476 1475
f 1464 1465 1477 1476
f 1465 1466 1478 1477
f 1466 1467 1479 1478
f 1467 1468 1480 1479
f 1468 1469 1481 1480
f 1469 1470 1482 1481
f 1470 1471 1483 1482
f 1471 1472 1484 1483
f 1472 1461 1473 1484
f 1461 1462 1463 1464 1465 1466 1467 1468 1469 1470 1471 1472
f 1484 1483 1482 1481 1480 1479 1478 1477 1476 1475 1474 1473

o Shoe_-1
usemtl Shoes
s 1
f 1485 1486 1500 1499
f 1486 1487 1501 1500
f 1487 1488 1502 1501
f 1488 1489 1503 1502
f 1489 1490 1504 1503
f 1490 1491 1505 1504
f 1491 1492 1506 1505
f 1492 1493 1507 1506
f 1493 1494 1508 1507
f 1494 1495 1509 1508
f 1495 1496 1510 1509
f 1496 1497 1511 1510
f 1497 1498 1512 1511
f 1498 1485 1499 1512
f 1499 1500 1514 1513
f 1500 1501 1515 1514
f 1501 1502 1516 1515
f 1502 1503 1517 1516
f 1503 1504 1518 1517
f 1504 1505 1519 1518
f 1505 1506 1520 1519
f 1506 1507 1521 1520
f 1507 1508 1522 1521
f 1508 1509 1523 1522
f 1509 1510 1524 1523
f 1510 1511 1525 1524
f 1511 1512 1526 1525
f 1512 1499 1513 1526
f 1513 1514 1528 1527
f 1514 1515 1529 1528
f 1515 1516 1530 1529
f 1516 1517 1531 1530
f 1517 1518 1532 1531
f 1518 1519 1533 1532
f 1519 1520 1534 1533
f 1520 1521 1535 1534
f 1521 1522 1536 1535
f 1522 1523 1537 1536
f 1523 1524 1538 1537
f 1524 1525 1539 1538
f 1525 1526 1540 1539
f 1526 1513 1527 1540
f 1527 1528 1542 1541
f 1528 1529 1543 1542
f 1529 1530 1544 1543
f 1530 1531 1545 1544
f 1531 1532 1546 1545
f 1532 1533 1547 1546
f 1533 1534 1548 1547
f 1534 1535 1549 1548
f 1535 1536 1550 1549
f 1536 1537 1551 1550
f 1537 1538 1552 1551
f 1538 1539 1553 1552
f 1539 1540 1554 1553
f 1540 1527 1541 1554
f 1541 1542 1556 1555
f 1542 1543 1557 1556
f 1543 1544 1558 1557
f 1544 1545 1559 1558
f 1545 1546 1560 1559
f 1546 1547 1561 1560
f 1547 1548 1562 1561
f 1548 1549 1563 1562
f 1549 1550 1564 1563
f 1550 1551 1565 1564
f 1551 1552 1566 1565
f 1552 1553 1567 1566
f 1553 1554 1568 1567
f 1554 1541 1555 1568
f 1555 1556 1570 1569
f 1556 1557 1571 1570
f 1557 1558 1572 1571
f 1558 1559 1573 1572
f 1559 1560 1574 1573
f 1560 1561 1575 1574
f 1561 1562 1576 1575
f 1562 1563 1577 1576
f 1563 1564 1578 1577
f 1564 1565 1579 1578
f 1565 1566 1580 1579
f 1566 1567 1581 1580
f 1567 1568 1582 1581
f 1568 1555 1569 1582
f 1569 1570 1584 1583
f 1570 1571 1585 1584
f 1571 1572 1586 1585
f 1572 1573 1587 1586
f 1573 1574 1588 1587
f 1574 1575 1589 1588
f 1575 1576 1590 1589
f 1576 1577 1591 1590
f 1577 1578 1592 1591
f 1578 1579 1593 1592
f 1579 1580 1594 1593
f 1580 1581 1595 1594
f 1581 1582 1596 1595
f 1582 1569 1583 1596
f 1583 1584 1598 1597
f 1584 1585 1599 1598
f 1585 1586 1600 1599
f 1586 1587 1601 1600
f 1587 1588 1602 1601
f 1588 1589 1603 1602
f 1589 1590 1604 1603
f 1590 1591 1605 1604
f 1591 1592 1606 1605
f 1592 1593 1607 1606
f 1593 1594 1608 1607
f 1594 1595 1609 1608
f 1595 1596 1610 1609
f 1596 1583 1597 1610

o Thigh_1
usemtl Pants
s 1
f 1611 1612 1624 1623
f 1612 1613 1625 1624
f 1613 1614 1626 1625
f 1614 1615 1627 1626
f 1615 1616 1628 1627
f 1616 1617 1629 1628
f 1617 1618 1630 1629
f 1618 1619 1631 1630
f 1619 1620 1632 1631
f 1620 1621 1633 1632
f 1621 1622 1634 1633
f 1622 1611 1623 1634
f 1611 1612 1613 1614 1615 1616 1617 1618 1619 1620 1621 1622
f 1634 1633 1632 1631 1630 1629 1628 1627 1626 1625 1624 1623

o LowerLeg_1
usemtl Skin
s 1
f 1635 1636 1648 1647
f 1636 1637 1649 1648
f 1637 1638 1650 1649
f 1638 1639 1651 1650
f 1639 1640 1652 1651
f 1640 1641 1653 1652
f 1641 1642 1654 1653
f 1642 1643 1655 1654
f 1643 1644 1656 1655
f 1644 1645 1657 1656
f 1645 1646 1658 1657
f 1646 1635 1647 1658
f 1635 1636 1637 1638 1639 1640 1641 1642 1643 1644 1645 1646
f 1658 1657 1656 1655 1654 1653 1652 1651 1650 1649 1648 1647

o Shoe_1
usemtl Shoes
s 1
f 1659 1660 1674 1673
f 1660 1661 1675 1674
f 1661 1662 1676 1675
f 1662 1663 1677 1676
f 1663 1664 1678 1677
f 1664 1665 1679 1678
f 1665 1666 1680 1679
f 1666 1667 1681 1680
f 1667 1668 1682 1681
f 1668 1669 1683 1682
f 1669 1670 1684 1683
f 1670 1671 1685 1684
f 1671 1672 1686 1685
f 1672 1659 1673 1686
f 1673 1674 1688 1687
f 1674 1675 1689 1688
f 1675 1676 1690 1689
f 1676 1677 1691 1690
f 1677 1678 1692 1691
f 1678 1679 1693 1692
f 1679 1680 1694 1693
f 1680 1681 1695 1694
f 1681 1682 1696 1695
f 1682 1683 1697 1696
f 1683 1684 1698 1697
f 1684 1685 1699 1698
f 1685 1686 1700 1699
f 1686 1673 1687 1700
f 1687 1688 1702 1701
f 1688 1689 1703 1702
f 1689 1690 1704 1703
f 1690 1691 1705 1704
f 1691 1692 1706 1705
f 1692 1693 1707 1706
f 1693 1694 1708 1707
f 1694 1695 1709 1708
f 1695 1696 1710 1709
f 1696 1697 1711 1710
f 1697 1698 1712 1711
f 1698 1699 1713 1712
f 1699 1700 1714 1713
f 1700 1687 1701 1714
f 1701 1702 1716 1715
f 1702 1703 1717 1716
f 1703 1704 1718 1717
f 1704 1705 1719 1718
f 1705 1706 1720 1719
f 1706 1707 1721 1720
f 1707 1708 1722 1721
f 1708 1709 1723 1722
f 1709 1710 1724 1723
f 1710 1711 1725 1724
f 1711 1712 1726 1725
f 1712 1713 1727 1726
f 1713 1714 1728 1727
f 1714 1701 1715 1728
f 1715 1716 1730 1729
f 1716 1717 1731 1730
f 1717 1718 1732 1731
f 1718 1719 1733 1732
f 1719 1720 1734 1733
f 1720 1721 1735 1734
f 1721 1722 1736 1735
f 1722 1723 1737 1736
f 1723 1724 1738 1737
f 1724 1725 1739 1738
f 1725 1726 1740 1739
f 1726 1727 1741 1740
f 1727 1728 1742 1741
f 1728 1715 1729 1742
f 1729 1730 1744 1743
f 1730 1731 1745 1744
f 1731 1732 1746 1745
f 1732 1733 1747 1746
f 1733 1734 1748 1747
f 1734 1735 1749 1748
f 1735 1736 1750 1749
f 1736 1737 1751 1750
f 1737 1738 1752 1751
f 1738 1739 1753 1752
f 1739 1740 1754 1753
f 1740 1741 1755 1754
f 1741 1742 1756 1755
f 1742 1729 1743 1756
f 1743 1744 1758 1757
f 1744 1745 1759 1758
f 1745 1746 1760 1759
f 1746 1747 1761 1760
f 1747 1748 1762 1761
f 1748 1749 1763 1762
f 1749 1750 1764 1763
f 1750 1751 1765 1764
f 1751 1752 1766 1765
f 1752 1753 1767 1766
f 1753 1754 1768 1767
f 1754 1755 1769 1768
f 1755 1756 1770 1769
f 1756 1743 1757 1770
f 1757 1758 1772 1771
f 1758 1759 1773 1772
f 1759 1760 1774 1773
f 1760 1761 1775 1774
f 1761 1762 1776 1775
f 1762 1763 1777 1776
f 1763 1764 1778 1777
f 1764 1765 1779 1778
f 1765 1766 1780 1779
f 1766 1767 1781 1780
f 1767 1768 1782 1781
f 1768 1769 1783 1782
f 1769 1770 1784 1783
f 1770 1757 1771 1784

o Ear_L
usemtl Skin
s 1
f 1785 1786 1796 1795
f 1786 1787 1797 1796
f 1787 1788 1798 1797
f 1788 1789 1799 1798
f 1789 1790 1800 1799
f 1790 1791 1801 1800
f 1791 1792 1802 1801
f 1792 1793 1803 1802
f 1793 1794 1804 1803
f 1794 1785 1795 1804
f 1795 1796 1806 1805
f 1796 1797 1807 1806
f 1797 1798 1808 1807
f 1798 1799 1809 1808
f 1799 1800 1810 1809
f 1800 1801 1811 1810
f 1801 1802 1812 1811
f 1802 1803 1813 1812
f 1803 1804 1814 1813
f 1804 1795 1805 1814
f 1805 1806 1816 1815
f 1806 1807 1817 1816
f 1807 1808 1818 1817
f 1808 1809 1819 1818
f 1809 1810 1820 1819
f 1810 1811 1821 1820
f 1811 1812 1822 1821
f 1812 1813 1823 1822
f 1813 1814 1824 1823
f 1814 1805 1815 1824
f 1815 1816 1826 1825
f 1816 1817 1827 1826
f 1817 1818 1828 1827
f 1818 1819 1829 1828
f 1819 1820 1830 1829
f 1820 1821 1831 1830
f 1821 1822 1832 1831
f 1822 1823 1833 1832
f 1823 1824 1834 1833
f 1824 1815 1825 1834
f 1825 1826 1836 1835
f 1826 1827 1837 1836
f 1827 1828 1838 1837
f 1828 1829 1839 1838
f 1829 1830 1840 1839
f 1830 1831 1841 1840
f 1831 1832 1842 1841
f 1832 1833 1843 1842
f 1833 1834 1844 1843
f 1834 1825 1835 1844
f 1835 1836 1846 1845
f 1836 1837 1847 1846
f 1837 1838 1848 1847
f 1838 1839 1849 1848
f 1839 1840 1850 1849
f 1840 1841 1851 1850
f 1841 1842 1852 1851
f 1842 1843 1853 1852
f 1843 1844 1854 1853
f 1844 1835 1845 1854

o Ear_R
usemtl Skin
s 1
f 1855 1856 1866 1865
f 1856 1857 1867 1866
f 1857 1858 1868 1867
f 1858 1859 1869 1868
f 1859 1860 1870 1869
f 1860 1861 1871 1870
f 1861 1862 1872 1871
f 1862 1863 1873 1872
f 1863 1864 1874 1873
f 1864 1855 1865 1874
f 1865 1866 1876 1875
f 1866 1867 1877 1876
f 1867 1868 1878 1877
f 1868 1869 1879 1878
f 1869 1870 1880 1879
f 1870 1871 1881 1880
f 1871 1872 1882 1881
f 1872 1873 1883 1882
f 1873 1874 1884 1883
f 1874 1865 1875 1884
f 1875 1876 1886 1885
f 1876 1877 1887 1886
f 1877 1878 1888 1887
f 1878 1879 1889 1888
f 1879 1880 1890 1889
f 1880 1881 1891 1890
f 1881 1882 1892 1891
f 1882 1883 1893 1892
f 1883 1884 1894 1893
f 1884 1875 1885 1894
f 1885 1886 1896 1895
f 1886 1887 1897 1896
f 1887 1888 1898 1897
f 1888 1889 1899 1898
f 1889 1890 1900 1899
f 1890 1891 1901 1900
f 1891 1892 1902 1901
f 1892 1893 1903 1902
f 1893 1894 1904 1903
f 1894 1885 1895 1904
f 1895 1896 1906 1905
f 1896 1897 1907 1906
f 1897 1898 1908 1907
f 1898 1899 1909 1908
f 1899 1900 1910 1909
f 1900 1901 1911 1910
f 1901 1902 1912 1911
f 1902 1903 1913 1912
f 1903 1904 1914 1913
f 1904 1895 1905 1914
f 1905 1906 1916 1915
f 1906 1907 1917 1916
f 1907 1908 1918 1917
f 1908 1909 1919 1918
f 1909 1910 1920 1919
f 1910 1911 1921 1920
f 1911 1912 1922 1921
f 1912 1913 1923 1922
f 1913 1914 1924 1923
f 1914 1905 1915 1924
