# Low-poly anime girl generated for Blender
mtllib anime_girl.mtl
v 0.000000 0.000000 3.750000
v 0.000000 0.000000 3.750000
v 0.000000 0.000000 3.750000
v 0.000000 0.000000 3.750000
v 0.000000 0.000000 3.750000
v 0.000000 0.000000 3.750000
v 0.000000 0.000000 3.750000
v 0.000000 0.000000 3.750000
v 0.000000 0.000000 3.750000
v 0.000000 0.000000 3.750000
v 0.000000 0.000000 3.750000
v 0.000000 0.000000 3.750000
v 0.000000 0.000000 3.750000
v 0.000000 0.000000 3.750000
v 0.000000 0.000000 3.750000
v 0.000000 0.000000 3.750000
v 0.000000 0.000000 3.750000
v 0.000000 0.000000 3.750000
v 0.134586 0.000000 3.729555
v 0.126469 0.040720 3.729555
v 0.103099 0.076528 3.729555
v 0.067293 0.103106 3.729555
v 0.023371 0.117248 3.729555
v -0.023371 0.117248 3.729555
v -0.067293 0.103106 3.729555
v -0.103099 0.076528 3.729555
v -0.126469 0.040720 3.729555
v -0.134586 0.000000 3.729555
v -0.126469 -0.040720 3.729555
v -0.103099 -0.076528 3.729555
v -0.067293 -0.103106 3.729555
v -0.023371 -0.117248 3.729555
v 0.023371 -0.117248 3.729555
v 0.067293 -0.103106 3.729555
v 0.103099 -0.076528 3.729555
v 0.126469 -0.040720 3.729555
v 0.260000 0.000000 3.669615
v 0.244320 0.078665 3.669615
v 0.199172 0.147841 3.669615
v 0.130000 0.199186 3.669615
v 0.045149 0.226506 3.669615
v -0.045149 0.226506 3.669615
v -0.130000 0.199186 3.669615
v -0.199172 0.147841 3.669615
v -0.244320 0.078665 3.669615
v -0.260000 0.000000 3.669615
v -0.244320 -0.078665 3.669615
v -0.199172 -0.147841 3.669615
v -0.130000 -0.199186 3.669615
v -0.045149 -0.226506 3.669615
v 0.045149 -0.226506 3.669615
v 0.130000 -0.199186 3.669615
v 0.199172 -0.147841 3.669615
v 0.244320 -0.078665 3.669615
v 0.367696 0.000000 3.574264
v 0.345521 0.111249 3.574264
v 0.281671 0.209079 3.574264
v 0.183848 0.281691 3.574264
v 0.063850 0.320328 3.574264
v -0.063850 0.320328 3.574264
v -0.183848 0.281691 3.574264
v -0.281671 0.209079 3.574264
v -0.345521 0.111249 3.574264
v -0.367696 0.000000 3.574264
v -0.345521 -0.111249 3.574264
v -0.281671 -0.209079 3.574264
v -0.183848 -0.281691 3.574264
v -0.063850 -0.320328 3.574264
v 0.063850 -0.320328 3.574264
v 0.183848 -0.281691 3.574264
v 0.281671 -0.209079 3.574264
v 0.345521 -0.111249 3.574264
v 0.450333 0.000000 3.450000
v 0.423175 0.136251 3.450000
v 0.344975 0.256068 3.450000
v 0.225167 0.345000 3.450000
v 0.078200 0.392320 3.450000
v -0.078200 0.392320 3.450000
v -0.225167 0.345000 3.450000
v -0.344975 0.256068 3.450000
v -0.423175 0.136251 3.450000
v -0.450333 0.000000 3.450000
v -0.423175 -0.136251 3.450000
v -0.344975 -0.256068 3.450000
v -0.225167 -0.345000 3.450000
v -0.078200 -0.392320 3.450000
v 0.078200 -0.392320 3.450000
v 0.225167 -0.345000 3.450000
v 0.344975 -0.256068 3.450000
v 0.423175 -0.136251 3.450000
v 0.502281 0.000000 3.305291
v 0.471990 0.151968 3.305291
v 0.384770 0.285607 3.305291
v 0.251141 0.384797 3.305291
v 0.087220 0.437576 3.305291
v -0.087220 0.437576 3.305291
v -0.251141 0.384797 3.305291
v -0.384770 0.285607 3.305291
v -0.471990 0.151968 3.305291
v -0.502281 0.000000 3.305291
v -0.471990 -0.151968 3.305291
v -0.384770 -0.285607 3.305291
v -0.251141 -0.384797 3.305291
v -0.087220 -0.437576 3.305291
v 0.087220 -0.437576 3.305291
v 0.251141 -0.384797 3.305291
v 0.384770 -0.285607 3.305291
v 0.471990 -0.151968 3.305291
v 0.520000 0.000000 3.150000
v 0.488640 0.157329 3.150000
v 0.398343 0.295682 3.150000
v 0.260000 0.398372 3.150000
v 0.090297 0.453012 3.150000
v -0.090297 0.453012 3.150000
v -0.260000 0.398372 3.150000
v -0.398343 0.295682 3.150000
v -0.488640 0.157329 3.150000
v -0.520000 0.000000 3.150000
v -0.488640 -0.157329 3.150000
v -0.398343 -0.295682 3.150000
v -0.260000 -0.398372 3.150000
v -0.090297 -0.453012 3.150000
v 0.090297 -0.453012 3.150000
v 0.260000 -0.398372 3.150000
v 0.398343 -0.295682 3.150000
v 0.488640 -0.157329 3.150000
v 0.502281 0.000000 2.994709
v 0.471990 0.151968 2.994709
v 0.384770 0.285607 2.994709
v 0.251141 0.384797 2.994709
v 0.087220 0.437576 2.994709
v -0.087220 0.437576 2.994709
v -0.251141 0.384797 2.994709
v -0.384770 0.285607 2.994709
v -0.471990 0.151968 2.994709
v -0.502281 0.000000 2.994709
v -0.471990 -0.151968 2.994709
v -0.384770 -0.285607 2.994709
v -0.251141 -0.384797 2.994709
v -0.087220 -0.437576 2.994709
v 0.087220 -0.437576 2.994709
v 0.251141 -0.384797 2.994709
v 0.384770 -0.285607 2.994709
v 0.471990 -0.151968 2.994709
v 0.450333 0.000000 2.850000
v 0.423175 0.136251 2.850000
v 0.344975 0.256068 2.850000
v 0.225167 0.345000 2.850000
v 0.078200 0.392320 2.850000
v -0.078200 0.392320 2.850000
v -0.225167 0.345000 2.850000
v -0.344975 0.256068 2.850000
v -0.423175 0.136251 2.850000
v -0.450333 0.000000 2.850000
v -0.423175 -0.136251 2.850000
v -0.344975 -0.256068 2.850000
v -0.225167 -0.345000 2.850000
v -0.078200 -0.392320 2.850000
v 0.078200 -0.392320 2.850000
v 0.225167 -0.345000 2.850000
v 0.344975 -0.256068 2.850000
v 0.423175 -0.136251 2.850000
v 0.367696 0.000000 2.725736
v 0.345521 0.111249 2.725736
v 0.281671 0.209079 2.725736
v 0.183848 0.281691 2.725736
v 0.063850 0.320328 2.725736
v -0.063850 0.320328 2.725736
v -0.183848 0.281691 2.725736
v -0.281671 0.209079 2.725736
v -0.345521 0.111249 2.725736
v -0.367696 0.000000 2.725736
v -0.345521 -0.111249 2.725736
v -0.281671 -0.209079 2.725736
v -0.183848 -0.281691 2.725736
v -0.063850 -0.320328 2.725736
v 0.063850 -0.320328 2.725736
v 0.183848 -0.281691 2.725736
v 0.281671 -0.209079 2.725736
v 0.345521 -0.111249 2.725736
v 0.260000 0.000000 2.630385
v 0.244320 0.078665 2.630385
v 0.199172 0.147841 2.630385
v 0.130000 0.199186 2.630385
v 0.045149 0.226506 2.630385
v -0.045149 0.226506 2.630385
v -0.130000 0.199186 2.630385
v -0.199172 0.147841 2.630385
v -0.244320 0.078665 2.630385
v -0.260000 0.000000 2.630385
v -0.244320 -0.078665 2.630385
v -0.199172 -0.147841 2.630385
v -0.130000 -0.199186 2.630385
v -0.045149 -0.226506 2.630385
v 0.045149 -0.226506 2.630385
v 0.130000 -0.199186 2.630385
v 0.199172 -0.147841 2.630385
v 0.244320 -0.078665 2.630385
v 0.134586 0.000000 2.570445
v 0.126469 0.040720 2.570445
v 0.103099 0.076528 2.570445
v 0.067293 0.103106 2.570445
v 0.023371 0.117248 2.570445
v -0.023371 0.117248 2.570445
v -0.067293 0.103106 2.570445
v -0.103099 0.076528 2.570445
v -0.126469 0.040720 2.570445
v -0.134586 0.000000 2.570445
v -0.126469 -0.040720 2.570445
v -0.103099 -0.076528 2.570445
v -0.067293 -0.103106 2.570445
v -0.023371 -0.117248 2.570445
v 0.023371 -0.117248 2.570445
v 0.067293 -0.103106 2.570445
v 0.103099 -0.076528 2.570445
v 0.126469 -0.040720 2.570445
v 0.000000 0.000000 2.550000
v 0.000000 0.000000 2.550000
v 0.000000 0.000000 2.550000
v 0.000000 0.000000 2.550000
v 0.000000 0.000000 2.550000
v -0.000000 0.000000 2.550000
v -0.000000 0.000000 2.550000
v -0.000000 0.000000 2.550000
v -0.000000 0.000000 2.550000
v -0.000000 0.000000 2.550000
v -0.000000 -0.000000 2.550000
v -0.000000 -0.000000 2.550000
v -0.000000 -0.000000 2.550000
v -0.000000 -0.000000 2.550000
v 0.000000 -0.000000 2.550000
v 0.000000 -0.000000 2.550000
v 0.000000 -0.000000 2.550000
v 0.000000 -0.000000 2.550000
v 0.000000 0.010000 3.860000
v 0.000000 0.010000 3.860000
v 0.000000 0.010000 3.860000
v 0.000000 0.010000 3.860000
v 0.000000 0.010000 3.860000
v 0.000000 0.010000 3.860000
v 0.000000 0.010000 3.860000
v 0.000000 0.010000 3.860000
v 0.000000 0.010000 3.860000
v 0.000000 0.010000 3.860000
v 0.000000 0.010000 3.860000
v 0.000000 0.010000 3.860000
v 0.000000 0.010000 3.860000
v 0.000000 0.010000 3.860000
v 0.000000 0.010000 3.860000
v 0.000000 0.010000 3.860000
v 0.000000 0.010000 3.860000
v 0.000000 0.010000 3.860000
v 0.144939 0.010000 3.838193
v 0.136198 0.053375 3.838193
v 0.111029 0.091519 3.838193
v 0.072469 0.119830 3.838193
v 0.025168 0.134895 3.838193
v -0.025168 0.134895 3.838193
v -0.072469 0.119830 3.838193
v -0.111029 0.091519 3.838193
v -0.136198 0.053375 3.838193
v -0.144939 0.010000 3.838193
v -0.136198 -0.033375 3.838193
v -0.111029 -0.071519 3.838193
v -0.072469 -0.099830 3.838193
v -0.025168 -0.114895 3.838193
v 0.025168 -0.114895 3.838193
v 0.072469 -0.099830 3.838193
v 0.111029 -0.071519 3.838193
v 0.136198 -0.033375 3.838193
v 0.280000 0.010000 3.774256
v 0.263114 0.093795 3.774256
v 0.214492 0.167483 3.774256
v 0.140000 0.222176 3.774256
v 0.048621 0.251278 3.774256
v -0.048621 0.251278 3.774256
v -0.140000 0.222176 3.774256
v -0.214492 0.167483 3.774256
v -0.263114 0.093795 3.774256
v -0.280000 0.010000 3.774256
v -0.263114 -0.073795 3.774256
v -0.214492 -0.147483 3.774256
v -0.140000 -0.202176 3.774256
v -0.048621 -0.231278 3.774256
v 0.048621 -0.231278 3.774256
v 0.140000 -0.202176 3.774256
v 0.214492 -0.147483 3.774256
v 0.263114 -0.073795 3.774256
v 0.395980 0.010000 3.672548
v 0.372099 0.128504 3.672548
v 0.303338 0.232715 3.672548
v 0.197990 0.310062 3.672548
v 0.068761 0.351218 3.672548
v -0.068761 0.351218 3.672548
v -0.197990 0.310062 3.672548
v -0.303338 0.232715 3.672548
v -0.372099 0.128504 3.672548
v -0.395980 0.010000 3.672548
v -0.372099 -0.108504 3.672548
v -0.303338 -0.212715 3.672548
v -0.197990 -0.290062 3.672548
v -0.068761 -0.331218 3.672548
v 0.068761 -0.331218 3.672548
v 0.197990 -0.290062 3.672548
v 0.303338 -0.212715 3.672548
v 0.372099 -0.108504 3.672548
v 0.484974 0.010000 3.540000
v 0.455727 0.155137 3.540000
v 0.371512 0.282768 3.540000
v 0.242487 0.377500 3.540000
v 0.084215 0.427906 3.540000
v -0.084215 0.427906 3.540000
v -0.242487 0.377500 3.540000
v -0.371512 0.282768 3.540000
v -0.455727 0.155137 3.540000
v -0.484974 0.010000 3.540000
v -0.455727 -0.135137 3.540000
v -0.371512 -0.262768 3.540000
v -0.242487 -0.357500 3.540000
v -0.084215 -0.407906 3.540000
v 0.084215 -0.407906 3.540000
v 0.242487 -0.357500 3.540000
v 0.371512 -0.262768 3.540000
v 0.455727 -0.135137 3.540000
v 0.540918 0.010000 3.385644
v 0.508297 0.171879 3.385644
v 0.414368 0.314234 3.385644
v 0.270459 0.419893 3.385644
v 0.093930 0.476113 3.385644
v -0.093930 0.476113 3.385644
v -0.270459 0.419893 3.385644
v -0.414368 0.314234 3.385644
v -0.508297 0.171879 3.385644
v -0.540918 0.010000 3.385644
v -0.508297 -0.151879 3.385644
v -0.414368 -0.294234 3.385644
v -0.270459 -0.399893 3.385644
v -0.093930 -0.456113 3.385644
v 0.093930 -0.456113 3.385644
v 0.270459 -0.399893 3.385644
v 0.414368 -0.294234 3.385644
v 0.508297 -0.151879 3.385644
v 0.560000 0.010000 3.220000
v 0.526228 0.177590 3.220000
v 0.428985 0.324966 3.220000
v 0.280000 0.434352 3.220000
v 0.097243 0.492556 3.220000
v -0.097243 0.492556 3.220000
v -0.280000 0.434352 3.220000
v -0.428985 0.324966 3.220000
v -0.526228 0.177590 3.220000
v -0.560000 0.010000 3.220000
v -0.526228 -0.157590 3.220000
v -0.428985 -0.304966 3.220000
v -0.280000 -0.414352 3.220000
v -0.097243 -0.472556 3.220000
v 0.097243 -0.472556 3.220000
v 0.280000 -0.414352 3.220000
v 0.428985 -0.304966 3.220000
v 0.526228 -0.157590 3.220000
v 0.540918 0.010000 3.054356
v 0.508297 0.171879 3.054356
v 0.414368 0.314234 3.054356
v 0.270459 0.419893 3.054356
v 0.093930 0.476113 3.054356
v -0.093930 0.476113 3.054356
v -0.270459 0.419893 3.054356
v -0.414368 0.314234 3.054356
v -0.508297 0.171879 3.054356
v -0.540918 0.010000 3.054356
v -0.508297 -0.151879 3.054356
v -0.414368 -0.294234 3.054356
v -0.270459 -0.399893 3.054356
v -0.093930 -0.456113 3.054356
v 0.093930 -0.456113 3.054356
v 0.270459 -0.399893 3.054356
v 0.414368 -0.294234 3.054356
v 0.508297 -0.151879 3.054356
v 0.484974 0.010000 2.900000
v 0.455727 0.155137 2.900000
v 0.371512 0.282768 2.900000
v 0.242487 0.377500 2.900000
v 0.084215 0.427906 2.900000
v -0.084215 0.427906 2.900000
v -0.242487 0.377500 2.900000
v -0.371512 0.282768 2.900000
v -0.455727 0.155137 2.900000
v -0.484974 0.010000 2.900000
v -0.455727 -0.135137 2.900000
v -0.371512 -0.262768 2.900000
v -0.242487 -0.357500 2.900000
v -0.084215 -0.407906 2.900000
v 0.084215 -0.407906 2.900000
v 0.242487 -0.357500 2.900000
v 0.371512 -0.262768 2.900000
v 0.455727 -0.135137 2.900000
v 0.395980 0.010000 2.767452
v 0.372099 0.128504 2.767452
v 0.303338 0.232715 2.767452
v 0.197990 0.310062 2.767452
v 0.068761 0.351218 2.767452
v -0.068761 0.351218 2.767452
v -0.197990 0.310062 2.767452
v -0.303338 0.232715 2.767452
v -0.372099 0.128504 2.767452
v -0.395980 0.010000 2.767452
v -0.372099 -0.108504 2.767452
v -0.303338 -0.212715 2.767452
v -0.197990 -0.290062 2.767452
v -0.068761 -0.331218 2.767452
v 0.068761 -0.331218 2.767452
v 0.197990 -0.290062 2.767452
v 0.303338 -0.212715 2.767452
v 0.372099 -0.108504 2.767452
v 0.280000 0.010000 2.665744
v 0.263114 0.093795 2.665744
v 0.214492 0.167483 2.665744
v 0.140000 0.222176 2.665744
v 0.048621 0.251278 2.665744
v -0.048621 0.251278 2.665744
v -0.140000 0.222176 2.665744
v -0.214492 0.167483 2.665744
v -0.263114 0.093795 2.665744
v -0.280000 0.010000 2.665744
v -0.263114 -0.073795 2.665744
v -0.214492 -0.147483 2.665744
v -0.140000 -0.202176 2.665744
v -0.048621 -0.231278 2.665744
v 0.048621 -0.231278 2.665744
v 0.140000 -0.202176 2.665744
v 0.214492 -0.147483 2.665744
v 0.263114 -0.073795 2.665744
v 0.144939 0.010000 2.601807
v 0.136198 0.053375 2.601807
v 0.111029 0.091519 2.601807
v 0.072469 0.119830 2.601807
v 0.025168 0.134895 2.601807
v -0.025168 0.134895 2.601807
v -0.072469 0.119830 2.601807
v -0.111029 0.091519 2.601807
v -0.136198 0.053375 2.601807
v -0.144939 0.010000 2.601807
v -0.136198 -0.033375 2.601807
v -0.111029 -0.071519 2.601807
v -0.072469 -0.099830 2.601807
v -0.025168 -0.114895 2.601807
v 0.025168 -0.114895 2.601807
v 0.072469 -0.099830 2.601807
v 0.111029 -0.071519 2.601807
v 0.136198 -0.033375 2.601807
v 0.000000 0.010000 2.580000
v 0.000000 0.010000 2.580000
v 0.000000 0.010000 2.580000
v 0.000000 0.010000 2.580000
v 0.000000 0.010000 2.580000
v -0.000000 0.010000 2.580000
v -0.000000 0.010000 2.580000
v -0.000000 0.010000 2.580000
v -0.000000 0.010000 2.580000
v -0.000000 0.010000 2.580000
v -0.000000 0.010000 2.580000
v -0.000000 0.010000 2.580000
v -0.000000 0.010000 2.580000
v -0.000000 0.010000 2.580000
v 0.000000 0.010000 2.580000
v 0.000000 0.010000 2.580000
v 0.000000 0.010000 2.580000
v 0.000000 0.010000 2.580000
v 0.000000 -0.220000 3.610000
v 0.000000 -0.220000 3.610000
v 0.000000 -0.220000 3.610000
v 0.000000 -0.220000 3.610000
v 0.000000 -0.220000 3.610000
v 0.000000 -0.220000 3.610000
v 0.000000 -0.220000 3.610000
v 0.000000 -0.220000 3.610000
v 0.000000 -0.220000 3.610000
v 0.000000 -0.220000 3.610000
v 0.000000 -0.220000 3.610000
v 0.000000 -0.220000 3.610000
v 0.000000 -0.220000 3.610000
v 0.000000 -0.220000 3.610000
v 0.000000 -0.220000 3.610000
v 0.000000 -0.220000 3.610000
v 0.000000 -0.220000 3.610000
v 0.000000 -0.220000 3.610000
v 0.132877 -0.220000 3.585528
v 0.124864 -0.198862 3.585528
v 0.101790 -0.180274 3.585528
v 0.066439 -0.166477 3.585528
v 0.023074 -0.159136 3.585528
v -0.023074 -0.159136 3.585528
v -0.066439 -0.166477 3.585528
v -0.101790 -0.180274 3.585528
v -0.124864 -0.198862 3.585528
v -0.132877 -0.220000 3.585528
v -0.124864 -0.241138 3.585528
v -0.101790 -0.259726 3.585528
v -0.066439 -0.273523 3.585528
v -0.023074 -0.280864 3.585528
v 0.023074 -0.280864 3.585528
v 0.066439 -0.273523 3.585528
v 0.101790 -0.259726 3.585528
v 0.124864 -0.241138 3.585528
v 0.252748 -0.220000 3.514508
v 0.237505 -0.179793 3.514508
v 0.193616 -0.144436 3.514508
v 0.126374 -0.118193 3.514508
v 0.043889 -0.104229 3.514508
v -0.043889 -0.104229 3.514508
v -0.126374 -0.118193 3.514508
v -0.193616 -0.144436 3.514508
v -0.237505 -0.179793 3.514508
v -0.252748 -0.220000 3.514508
v -0.237505 -0.260207 3.514508
v -0.193616 -0.295564 3.514508
v -0.126374 -0.321807 3.514508
v -0.043889 -0.335771 3.514508
v 0.043889 -0.335771 3.514508
v 0.126374 -0.321807 3.514508
v 0.193616 -0.295564 3.514508
v 0.237505 -0.260207 3.514508
v 0.347877 -0.220000 3.403893
v 0.326898 -0.164660 3.403893
v 0.266489 -0.115995 3.403893
v 0.173939 -0.079874 3.403893
v 0.060408 -0.060655 3.403893
v -0.060408 -0.060655 3.403893
v -0.173939 -0.079874 3.403893
v -0.266489 -0.115995 3.403893
v -0.326898 -0.164660 3.403893
v -0.347877 -0.220000 3.403893
v -0.326898 -0.275340 3.403893
v -0.266489 -0.324005 3.403893
v -0.173939 -0.360126 3.403893
v -0.060408 -0.379345 3.403893
v 0.060408 -0.379345 3.403893
v 0.173939 -0.360126 3.403893
v 0.266489 -0.324005 3.403893
v 0.326898 -0.275340 3.403893
v 0.408954 -0.220000 3.264508
v 0.384291 -0.154944 3.264508
v 0.313277 -0.097735 3.264508
v 0.204477 -0.055272 3.264508
v 0.071014 -0.032678 3.264508
v -0.071014 -0.032678 3.264508
v -0.204477 -0.055272 3.264508
v -0.313277 -0.097735 3.264508
v -0.384291 -0.154944 3.264508
v -0.408954 -0.220000 3.264508
v -0.384291 -0.285056 3.264508
v -0.313277 -0.342265 3.264508
v -0.204477 -0.384728 3.264508
v -0.071014 -0.407322 3.264508
v 0.071014 -0.407322 3.264508
v 0.204477 -0.384728 3.264508
v 0.313277 -0.342265 3.264508
v 0.384291 -0.285056 3.264508
v 0.430000 -0.220000 3.110000
v 0.404068 -0.151596 3.110000
v 0.329399 -0.091442 3.110000
v 0.215000 -0.046795 3.110000
v 0.074669 -0.023038 3.110000
v -0.074669 -0.023038 3.110000
v -0.215000 -0.046795 3.110000
v -0.329399 -0.091442 3.110000
v -0.404068 -0.151596 3.110000
v -0.430000 -0.220000 3.110000
v -0.404068 -0.288404 3.110000
v -0.329399 -0.348558 3.110000
v -0.215000 -0.393205 3.110000
v -0.074669 -0.416962 3.110000
v 0.074669 -0.416962 3.110000
v 0.215000 -0.393205 3.110000
v 0.329399 -0.348558 3.110000
v 0.404068 -0.288404 3.110000
v 0.408954 -0.220000 2.955492
v 0.384291 -0.154944 2.955492
v 0.313277 -0.097735 2.955492
v 0.204477 -0.055272 2.955492
v 0.071014 -0.032678 2.955492
v -0.071014 -0.032678 2.955492
v -0.204477 -0.055272 2.955492
v -0.313277 -0.097735 2.955492
v -0.384291 -0.154944 2.955492
v -0.408954 -0.220000 2.955492
v -0.384291 -0.285056 2.955492
v -0.313277 -0.342265 2.955492
v -0.204477 -0.384728 2.955492
v -0.071014 -0.407322 2.955492
v 0.071014 -0.407322 2.955492
v 0.204477 -0.384728 2.955492
v 0.313277 -0.342265 2.955492
v 0.384291 -0.285056 2.955492
v 0.347877 -0.220000 2.816107
v 0.326898 -0.164660 2.816107
v 0.266489 -0.115995 2.816107
v 0.173939 -0.079874 2.816107
v 0.060408 -0.060655 2.816107
v -0.060408 -0.060655 2.816107
v -0.173939 -0.079874 2.816107
v -0.266489 -0.115995 2.816107
v -0.326898 -0.164660 2.816107
v -0.347877 -0.220000 2.816107
v -0.326898 -0.275340 2.816107
v -0.266489 -0.324005 2.816107
v -0.173939 -0.360126 2.816107
v -0.060408 -0.379345 2.816107
v 0.060408 -0.379345 2.816107
v 0.173939 -0.360126 2.816107
v 0.266489 -0.324005 2.816107
v 0.326898 -0.275340 2.816107
v 0.252748 -0.220000 2.705492
v 0.237505 -0.179793 2.705492
v 0.193616 -0.144436 2.705492
v 0.126374 -0.118193 2.705492
v 0.043889 -0.104229 2.705492
v -0.043889 -0.104229 2.705492
v -0.126374 -0.118193 2.705492
v -0.193616 -0.144436 2.705492
v -0.237505 -0.179793 2.705492
v -0.252748 -0.220000 2.705492
v -0.237505 -0.260207 2.705492
v -0.193616 -0.295564 2.705492
v -0.126374 -0.321807 2.705492
v -0.043889 -0.335771 2.705492
v 0.043889 -0.335771 2.705492
v 0.126374 -0.321807 2.705492
v 0.193616 -0.295564 2.705492
v 0.237505 -0.260207 2.705492
v 0.132877 -0.220000 2.634472
v 0.124864 -0.198862 2.634472
v 0.101790 -0.180274 2.634472
v 0.066439 -0.166477 2.634472
v 0.023074 -0.159136 2.634472
v -0.023074 -0.159136 2.634472
v -0.066439 -0.166477 2.634472
v -0.101790 -0.180274 2.634472
v -0.124864 -0.198862 2.634472
v -0.132877 -0.220000 2.634472
v -0.124864 -0.241138 2.634472
v -0.101790 -0.259726 2.634472
v -0.066439 -0.273523 2.634472
v -0.023074 -0.280864 2.634472
v 0.023074 -0.280864 2.634472
v 0.066439 -0.273523 2.634472
v 0.101790 -0.259726 2.634472
v 0.124864 -0.241138 2.634472
v 0.000000 -0.220000 2.610000
v 0.000000 -0.220000 2.610000
v 0.000000 -0.220000 2.610000
v 0.000000 -0.220000 2.610000
v 0.000000 -0.220000 2.610000
v -0.000000 -0.220000 2.610000
v -0.000000 -0.220000 2.610000
v -0.000000 -0.220000 2.610000
v -0.000000 -0.220000 2.610000
v -0.000000 -0.220000 2.610000
v -0.000000 -0.220000 2.610000
v -0.000000 -0.220000 2.610000
v -0.000000 -0.220000 2.610000
v -0.000000 -0.220000 2.610000
v 0.000000 -0.220000 2.610000
v 0.000000 -0.220000 2.610000
v 0.000000 -0.220000 2.610000
v 0.000000 -0.220000 2.610000
v -0.180000 -0.405000 3.290000
v -0.180000 -0.405000 3.290000
v -0.180000 -0.405000 3.290000
v -0.180000 -0.405000 3.290000
v -0.180000 -0.405000 3.290000
v -0.180000 -0.405000 3.290000
v -0.180000 -0.405000 3.290000
v -0.180000 -0.405000 3.290000
v -0.180000 -0.405000 3.290000
v -0.180000 -0.405000 3.290000
v -0.180000 -0.405000 3.290000
v -0.180000 -0.405000 3.290000
v -0.151299 -0.405000 3.281627
v -0.155144 -0.399260 3.281627
v -0.165649 -0.395058 3.281627
v -0.180000 -0.393519 3.281627
v -0.194351 -0.395058 3.281627
v -0.204856 -0.399260 3.281627
v -0.208701 -0.405000 3.281627
v -0.204856 -0.410740 3.281627
v -0.194351 -0.414942 3.281627
v -0.180000 -0.416481 3.281627
v -0.165649 -0.414942 3.281627
v -0.155144 -0.410740 3.281627
v -0.126967 -0.405000 3.257782
v -0.134072 -0.394393 3.257782
v -0.153483 -0.386629 3.257782
v -0.180000 -0.383787 3.257782
v -0.206517 -0.386629 3.257782
v -0.225928 -0.394393 3.257782
v -0.233033 -0.405000 3.257782
v -0.225928 -0.415607 3.257782
v -0.206517 -0.423371 3.257782
v -0.180000 -0.426213 3.257782
v -0.153483 -0.423371 3.257782
v -0.134072 -0.415607 3.257782
v -0.110709 -0.405000 3.222095
v -0.119992 -0.391142 3.222095
v -0.145355 -0.380997 3.222095
v -0.180000 -0.377284 3.222095
v -0.214645 -0.380997 3.222095
v -0.240008 -0.391142 3.222095
v -0.249291 -0.405000 3.222095
v -0.240008 -0.418858 3.222095
v -0.214645 -0.429003 3.222095
v -0.180000 -0.432716 3.222095
v -0.145355 -0.429003 3.222095
v -0.119992 -0.418858 3.222095
v -0.105000 -0.405000 3.180000
v -0.115048 -0.390000 3.180000
v -0.142500 -0.379019 3.180000
v -0.180000 -0.375000 3.180000
v -0.217500 -0.379019 3.180000
v -0.244952 -0.390000 3.180000
v -0.255000 -0.405000 3.180000
v -0.244952 -0.420000 3.180000
v -0.217500 -0.430981 3.180000
v -0.180000 -0.435000 3.180000
v -0.142500 -0.430981 3.180000
v -0.115048 -0.420000 3.180000
v -0.110709 -0.405000 3.137905
v -0.119992 -0.391142 3.137905
v -0.145355 -0.380997 3.137905
v -0.180000 -0.377284 3.137905
v -0.214645 -0.380997 3.137905
v -0.240008 -0.391142 3.137905
v -0.249291 -0.405000 3.137905
v -0.240008 -0.418858 3.137905
v -0.214645 -0.429003 3.137905
v -0.180000 -0.432716 3.137905
v -0.145355 -0.429003 3.137905
v -0.119992 -0.418858 3.137905
v -0.126967 -0.405000 3.102218
v -0.134072 -0.394393 3.102218
v -0.153483 -0.386629 3.102218
v -0.180000 -0.383787 3.102218
v -0.206517 -0.386629 3.102218
v -0.225928 -0.394393 3.102218
v -0.233033 -0.405000 3.102218
v -0.225928 -0.415607 3.102218
v -0.206517 -0.423371 3.102218
v -0.180000 -0.426213 3.102218
v -0.153483 -0.423371 3.102218
v -0.134072 -0.415607 3.102218
v -0.151299 -0.405000 3.078373
v -0.155144 -0.399260 3.078373
v -0.165649 -0.395058 3.078373
v -0.180000 -0.393519 3.078373
v -0.194351 -0.395058 3.078373
v -0.204856 -0.399260 3.078373
v -0.208701 -0.405000 3.078373
v -0.204856 -0.410740 3.078373
v -0.194351 -0.414942 3.078373
v -0.180000 -0.416481 3.078373
v -0.165649 -0.414942 3.078373
v -0.155144 -0.410740 3.078373
v -0.180000 -0.405000 3.070000
v -0.180000 -0.405000 3.070000
v -0.180000 -0.405000 3.070000
v -0.180000 -0.405000 3.070000
v -0.180000 -0.405000 3.070000
v -0.180000 -0.405000 3.070000
v -0.180000 -0.405000 3.070000
v -0.180000 -0.405000 3.070000
v -0.180000 -0.405000 3.070000
v -0.180000 -0.405000 3.070000
v -0.180000 -0.405000 3.070000
v -0.180000 -0.405000 3.070000
v 0.180000 -0.405000 3.290000
v 0.180000 -0.405000 3.290000
v 0.180000 -0.405000 3.290000
v 0.180000 -0.405000 3.290000
v 0.180000 -0.405000 3.290000
v 0.180000 -0.405000 3.290000
v 0.180000 -0.405000 3.290000
v 0.180000 -0.405000 3.290000
v 0.180000 -0.405000 3.290000
v 0.180000 -0.405000 3.290000
v 0.180000 -0.405000 3.290000
v 0.180000 -0.405000 3.290000
v 0.208701 -0.405000 3.281627
v 0.204856 -0.399260 3.281627
v 0.194351 -0.395058 3.281627
v 0.180000 -0.393519 3.281627
v 0.165649 -0.395058 3.281627
v 0.155144 -0.399260 3.281627
v 0.151299 -0.405000 3.281627
v 0.155144 -0.410740 3.281627
v 0.165649 -0.414942 3.281627
v 0.180000 -0.416481 3.281627
v 0.194351 -0.414942 3.281627
v 0.204856 -0.410740 3.281627
v 0.233033 -0.405000 3.257782
v 0.225928 -0.394393 3.257782
v 0.206517 -0.386629 3.257782
v 0.180000 -0.383787 3.257782
v 0.153483 -0.386629 3.257782
v 0.134072 -0.394393 3.257782
v 0.126967 -0.405000 3.257782
v 0.134072 -0.415607 3.257782
v 0.153483 -0.423371 3.257782
v 0.180000 -0.426213 3.257782
v 0.206517 -0.423371 3.257782
v 0.225928 -0.415607 3.257782
v 0.249291 -0.405000 3.222095
v 0.240008 -0.391142 3.222095
v 0.214645 -0.380997 3.222095
v 0.180000 -0.377284 3.222095
v 0.145355 -0.380997 3.222095
v 0.119992 -0.391142 3.222095
v 0.110709 -0.405000 3.222095
v 0.119992 -0.418858 3.222095
v 0.145355 -0.429003 3.222095
v 0.180000 -0.432716 3.222095
v 0.214645 -0.429003 3.222095
v 0.240008 -0.418858 3.222095
v 0.255000 -0.405000 3.180000
v 0.244952 -0.390000 3.180000
v 0.217500 -0.379019 3.180000
v 0.180000 -0.375000 3.180000
v 0.142500 -0.379019 3.180000
v 0.115048 -0.390000 3.180000
v 0.105000 -0.405000 3.180000
v 0.115048 -0.420000 3.180000
v 0.142500 -0.430981 3.180000
v 0.180000 -0.435000 3.180000
v 0.217500 -0.430981 3.180000
v 0.244952 -0.420000 3.180000
v 0.249291 -0.405000 3.137905
v 0.240008 -0.391142 3.137905
v 0.214645 -0.380997 3.137905
v 0.180000 -0.377284 3.137905
v 0.145355 -0.380997 3.137905
v 0.119992 -0.391142 3.137905
v 0.110709 -0.405000 3.137905
v 0.119992 -0.418858 3.137905
v 0.145355 -0.429003 3.137905
v 0.180000 -0.432716 3.137905
v 0.214645 -0.429003 3.137905
v 0.240008 -0.418858 3.137905
v 0.233033 -0.405000 3.102218
v 0.225928 -0.394393 3.102218
v 0.206517 -0.386629 3.102218
v 0.180000 -0.383787 3.102218
v 0.153483 -0.386629 3.102218
v 0.134072 -0.394393 3.102218
v 0.126967 -0.405000 3.102218
v 0.134072 -0.415607 3.102218
v 0.153483 -0.423371 3.102218
v 0.180000 -0.426213 3.102218
v 0.206517 -0.423371 3.102218
v 0.225928 -0.415607 3.102218
v 0.208701 -0.405000 3.078373
v 0.204856 -0.399260 3.078373
v 0.194351 -0.395058 3.078373
v 0.180000 -0.393519 3.078373
v 0.165649 -0.395058 3.078373
v 0.155144 -0.399260 3.078373
v 0.151299 -0.405000 3.078373
v 0.155144 -0.410740 3.078373
v 0.165649 -0.414942 3.078373
v 0.180000 -0.416481 3.078373
v 0.194351 -0.414942 3.078373
v 0.204856 -0.410740 3.078373
v 0.180000 -0.405000 3.070000
v 0.180000 -0.405000 3.070000
v 0.180000 -0.405000 3.070000
v 0.180000 -0.405000 3.070000
v 0.180000 -0.405000 3.070000
v 0.180000 -0.405000 3.070000
v 0.180000 -0.405000 3.070000
v 0.180000 -0.405000 3.070000
v 0.180000 -0.405000 3.070000
v 0.180000 -0.405000 3.070000
v 0.180000 -0.405000 3.070000
v 0.180000 -0.405000 3.070000
v -0.160000 0.000000 2.620000
v -0.138564 -0.080000 2.620000
v -0.080000 -0.138564 2.620000
v -0.000000 -0.160000 2.620000
v 0.080000 -0.138564 2.620000
v 0.138564 -0.080000 2.620000
v 0.160000 -0.000000 2.620000
v 0.138564 0.080000 2.620000
v 0.080000 0.138564 2.620000
v 0.000000 0.160000 2.620000
v -0.080000 0.138564 2.620000
v -0.138564 0.080000 2.620000
v -0.160000 0.000000 2.800000
v -0.138564 -0.080000 2.800000
v -0.080000 -0.138564 2.800000
v -0.000000 -0.160000 2.800000
v 0.080000 -0.138564 2.800000
v 0.138564 -0.080000 2.800000
v 0.160000 -0.000000 2.800000
v 0.138564 0.080000 2.800000
v 0.080000 0.138564 2.800000
v 0.000000 0.160000 2.800000
v -0.080000 0.138564 2.800000
v -0.138564 0.080000 2.800000
v 0.380000 0.000000 1.780000
v 0.351074 0.145420 1.780000
v 0.268701 0.268701 1.780000
v 0.145420 0.351074 1.780000
v 0.000000 0.380000 1.780000
v -0.145420 0.351074 1.780000
v -0.268701 0.268701 1.780000
v -0.351074 0.145420 1.780000
v -0.380000 0.000000 1.780000
v -0.351074 -0.145420 1.780000
v -0.268701 -0.268701 1.780000
v -0.145420 -0.351074 1.780000
v -0.000000 -0.380000 1.780000
v 0.145420 -0.351074 1.780000
v 0.268701 -0.268701 1.780000
v 0.351074 -0.145420 1.780000
v 0.280000 0.000000 2.660000
v 0.258686 0.107151 2.660000
v 0.197990 0.197990 2.660000
v 0.107151 0.258686 2.660000
v 0.000000 0.280000 2.660000
v -0.107151 0.258686 2.660000
v -0.197990 0.197990 2.660000
v -0.258686 0.107151 2.660000
v -0.280000 0.000000 2.660000
v -0.258686 -0.107151 2.660000
v -0.197990 -0.197990 2.660000
v -0.107151 -0.258686 2.660000
v -0.000000 -0.280000 2.660000
v 0.107151 -0.258686 2.660000
v 0.197990 -0.197990 2.660000
v 0.258686 -0.107151 2.660000
v 0.580000 0.000000 1.350000
v 0.545022 0.198372 1.350000
v 0.444306 0.372817 1.350000
v 0.290000 0.502295 1.350000
v 0.100716 0.571188 1.350000
v -0.100716 0.571188 1.350000
v -0.290000 0.502295 1.350000
v -0.444306 0.372817 1.350000
v -0.545022 0.198372 1.350000
v -0.580000 0.000000 1.350000
v -0.545022 -0.198372 1.350000
v -0.444306 -0.372817 1.350000
v -0.290000 -0.502295 1.350000
v -0.100716 -0.571188 1.350000
v 0.100716 -0.571188 1.350000
v 0.290000 -0.502295 1.350000
v 0.444306 -0.372817 1.350000
v 0.545022 -0.198372 1.350000
v 0.340000 0.000000 1.900000
v 0.319495 0.116287 1.900000
v 0.260455 0.218548 1.900000
v 0.170000 0.294449 1.900000
v 0.059040 0.334835 1.900000
v -0.059040 0.334835 1.900000
v -0.170000 0.294449 1.900000
v -0.260455 0.218548 1.900000
v -0.319495 0.116287 1.900000
v -0.340000 0.000000 1.900000
v -0.319495 -0.116287 1.900000
v -0.260455 -0.218548 1.900000
v -0.170000 -0.294449 1.900000
v -0.059040 -0.334835 1.900000
v 0.059040 -0.334835 1.900000
v 0.170000 -0.294449 1.900000
v 0.260455 -0.218548 1.900000
v 0.319495 -0.116287 1.900000
v -0.187728 0.000000 2.437633
v -0.202769 -0.060000 2.443309
v -0.243864 -0.103923 2.458817
v -0.300000 -0.120000 2.480000
v -0.356136 -0.103923 2.501183
v -0.397231 -0.060000 2.516691
v -0.412272 -0.000000 2.522367
v -0.397231 0.060000 2.516691
v -0.356136 0.103923 2.501183
v -0.300000 0.120000 2.480000
v -0.243864 0.103923 2.458817
v -0.202769 0.060000 2.443309
v -0.387728 0.000000 1.907633
v -0.402769 -0.060000 1.913309
v -0.443864 -0.103923 1.928817
v -0.500000 -0.120000 1.950000
v -0.556136 -0.103923 1.971183
v -0.597231 -0.060000 1.986691
v -0.612272 -0.000000 1.992367
v -0.597231 0.060000 1.986691
v -0.556136 0.103923 1.971183
v -0.500000 0.120000 1.950000
v -0.443864 0.103923 1.928817
v -0.402769 0.060000 1.913309
v -0.395334 0.000000 1.941627
v -0.409273 -0.052490 1.943792
v -0.447523 -0.090915 1.947620
v -0.499833 -0.104979 1.952086
v -0.552188 -0.090915 1.955993
v -0.590560 -0.052490 1.958295
v -0.604666 -0.000000 1.958373
v -0.590727 0.052490 1.956208
v -0.552477 0.090915 1.952380
v -0.500167 0.104979 1.947914
v -0.447812 0.090915 1.944007
v -0.409440 0.052490 1.941705
v -0.435334 -0.010000 1.441627
v -0.449273 -0.062490 1.443792
v -0.487523 -0.100915 1.447620
v -0.539833 -0.114979 1.452086
v -0.592188 -0.100915 1.455993
v -0.630560 -0.062490 1.458295
v -0.644666 -0.010000 1.458373
v -0.630727 0.042490 1.456208
v -0.592477 0.080915 1.452380
v -0.540167 0.094979 1.447914
v -0.487812 0.080915 1.444007
v -0.449440 0.042490 1.441705
v -0.540000 -0.010000 1.530000
v -0.540000 -0.010000 1.530000
v -0.540000 -0.010000 1.530000
v -0.540000 -0.010000 1.530000
v -0.540000 -0.010000 1.530000
v -0.540000 -0.010000 1.530000
v -0.540000 -0.010000 1.530000
v -0.540000 -0.010000 1.530000
v -0.540000 -0.010000 1.530000
v -0.540000 -0.010000 1.530000
v -0.540000 -0.010000 1.530000
v -0.540000 -0.010000 1.530000
v -0.490251 -0.010000 1.517821
v -0.496916 0.009134 1.517821
v -0.515126 0.023141 1.517821
v -0.540000 0.028268 1.517821
v -0.564874 0.023141 1.517821
v -0.583084 0.009134 1.517821
v -0.589749 -0.010000 1.517821
v -0.583084 -0.029134 1.517821
v -0.564874 -0.043141 1.517821
v -0.540000 -0.048268 1.517821
v -0.515126 -0.043141 1.517821
v -0.496916 -0.029134 1.517821
v -0.448076 -0.010000 1.483137
v -0.460392 0.025355 1.483137
v -0.494038 0.051237 1.483137
v -0.540000 0.060711 1.483137
v -0.585962 0.051237 1.483137
v -0.619608 0.025355 1.483137
v -0.631924 -0.010000 1.483137
v -0.619608 -0.045355 1.483137
v -0.585962 -0.071237 1.483137
v -0.540000 -0.080711 1.483137
v -0.494038 -0.071237 1.483137
v -0.460392 -0.045355 1.483137
v -0.419896 -0.010000 1.431229
v -0.435987 0.036194 1.431229
v -0.479948 0.070010 1.431229
v -0.540000 0.082388 1.431229
v -0.600052 0.070010 1.431229
v -0.644013 0.036194 1.431229
v -0.660104 -0.010000 1.431229
v -0.644013 -0.056194 1.431229
v -0.600052 -0.090010 1.431229
v -0.540000 -0.102388 1.431229
v -0.479948 -0.090010 1.431229
v -0.435987 -0.056194 1.431229
v -0.410000 -0.010000 1.370000
v -0.427417 0.040000 1.370000
v -0.475000 0.076603 1.370000
v -0.540000 0.090000 1.370000
v -0.605000 0.076603 1.370000
v -0.652583 0.040000 1.370000
v -0.670000 -0.010000 1.370000
v -0.652583 -0.060000 1.370000
v -0.605000 -0.096603 1.370000
v -0.540000 -0.110000 1.370000
v -0.475000 -0.096603 1.370000
v -0.427417 -0.060000 1.370000
v -0.419896 -0.010000 1.308771
v -0.435987 0.036194 1.308771
v -0.479948 0.070010 1.308771
v -0.540000 0.082388 1.308771
v -0.600052 0.070010 1.308771
v -0.644013 0.036194 1.308771
v -0.660104 -0.010000 1.308771
v -0.644013 -0.056194 1.308771
v -0.600052 -0.090010 1.308771
v -0.540000 -0.102388 1.308771
v -0.479948 -0.090010 1.308771
v -0.435987 -0.056194 1.308771
v -0.448076 -0.010000 1.256863
v -0.460392 0.025355 1.256863
v -0.494038 0.051237 1.256863
v -0.540000 0.060711 1.256863
v -0.585962 0.051237 1.256863
v -0.619608 0.025355 1.256863
v -0.631924 -0.010000 1.256863
v -0.619608 -0.045355 1.256863
v -0.585962 -0.071237 1.256863
v -0.540000 -0.080711 1.256863
v -0.494038 -0.071237 1.256863
v -0.460392 -0.045355 1.256863
v -0.490251 -0.010000 1.222179
v -0.496916 0.009134 1.222179
v -0.515126 0.023141 1.222179
v -0.540000 0.028268 1.222179
v -0.564874 0.023141 1.222179
v -0.583084 0.009134 1.222179
v -0.589749 -0.010000 1.222179
v -0.583084 -0.029134 1.222179
v -0.564874 -0.043141 1.222179
v -0.540000 -0.048268 1.222179
v -0.515126 -0.043141 1.222179
v -0.496916 -0.029134 1.222179
v -0.540000 -0.010000 1.210000
v -0.540000 -0.010000 1.210000
v -0.540000 -0.010000 1.210000
v -0.540000 -0.010000 1.210000
v -0.540000 -0.010000 1.210000
v -0.540000 -0.010000 1.210000
v -0.540000 -0.010000 1.210000
v -0.540000 -0.010000 1.210000
v -0.540000 -0.010000 1.210000
v -0.540000 -0.010000 1.210000
v -0.540000 -0.010000 1.210000
v -0.540000 -0.010000 1.210000
v 0.412272 0.000000 2.522367
v 0.397231 -0.060000 2.516691
v 0.356136 -0.103923 2.501183
v 0.300000 -0.120000 2.480000
v 0.243864 -0.103923 2.458817
v 0.202769 -0.060000 2.443309
v 0.187728 -0.000000 2.437633
v 0.202769 0.060000 2.443309
v 0.243864 0.103923 2.458817
v 0.300000 0.120000 2.480000
v 0.356136 0.103923 2.501183
v 0.397231 0.060000 2.516691
v 0.612272 0.000000 1.992367
v 0.597231 -0.060000 1.986691
v 0.556136 -0.103923 1.971183
v 0.500000 -0.120000 1.950000
v 0.443864 -0.103923 1.928817
v 0.402769 -0.060000 1.913309
v 0.387728 -0.000000 1.907633
v 0.402769 0.060000 1.913309
v 0.443864 0.103923 1.928817
v 0.500000 0.120000 1.950000
v 0.556136 0.103923 1.971183
v 0.597231 0.060000 1.986691
v 0.604666 0.000000 1.958373
v 0.590560 -0.052490 1.958295
v 0.552188 -0.090915 1.955993
v 0.499833 -0.104979 1.952086
v 0.447523 -0.090915 1.947620
v 0.409273 -0.052490 1.943792
v 0.395334 -0.000000 1.941627
v 0.409440 0.052490 1.941705
v 0.447812 0.090915 1.944007
v 0.500167 0.104979 1.947914
v 0.552477 0.090915 1.952380
v 0.590727 0.052490 1.956208
v 0.644666 -0.010000 1.458373
v 0.630560 -0.062490 1.458295
v 0.592188 -0.100915 1.455993
v 0.539833 -0.114979 1.452086
v 0.487523 -0.100915 1.447620
v 0.449273 -0.062490 1.443792
v 0.435334 -0.010000 1.441627
v 0.449440 0.042490 1.441705
v 0.487812 0.080915 1.444007
v 0.540167 0.094979 1.447914
v 0.592477 0.080915 1.452380
v 0.630727 0.042490 1.456208
v 0.540000 -0.010000 1.530000
v 0.540000 -0.010000 1.530000
v 0.540000 -0.010000 1.530000
v 0.540000 -0.010000 1.530000
v 0.540000 -0.010000 1.530000
v 0.540000 -0.010000 1.530000
v 0.540000 -0.010000 1.530000
v 0.540000 -0.010000 1.530000
v 0.540000 -0.010000 1.530000
v 0.540000 -0.010000 1.530000
v 0.540000 -0.010000 1.530000
v 0.540000 -0.010000 1.530000
v 0.589749 -0.010000 1.517821
v 0.583084 0.009134 1.517821
v 0.564874 0.023141 1.517821
v 0.540000 0.028268 1.517821
v 0.515126 0.023141 1.517821
v 0.496916 0.009134 1.517821
v 0.490251 -0.010000 1.517821
v 0.496916 -0.029134 1.517821
v 0.515126 -0.043141 1.517821
v 0.540000 -0.048268 1.517821
v 0.564874 -0.043141 1.517821
v 0.583084 -0.029134 1.517821
v 0.631924 -0.010000 1.483137
v 0.619608 0.025355 1.483137
v 0.585962 0.051237 1.483137
v 0.540000 0.060711 1.483137
v 0.494038 0.051237 1.483137
v 0.460392 0.025355 1.483137
v 0.448076 -0.010000 1.483137
v 0.460392 -0.045355 1.483137
v 0.494038 -0.071237 1.483137
v 0.540000 -0.080711 1.483137
v 0.585962 -0.071237 1.483137
v 0.619608 -0.045355 1.483137
v 0.660104 -0.010000 1.431229
v 0.644013 0.036194 1.431229
v 0.600052 0.070010 1.431229
v 0.540000 0.082388 1.431229
v 0.479948 0.070010 1.431229
v 0.435987 0.036194 1.431229
v 0.419896 -0.010000 1.431229
v 0.435987 -0.056194 1.431229
v 0.479948 -0.090010 1.431229
v 0.540000 -0.102388 1.431229
v 0.600052 -0.090010 1.431229
v 0.644013 -0.056194 1.431229
v 0.670000 -0.010000 1.370000
v 0.652583 0.040000 1.370000
v 0.605000 0.076603 1.370000
v 0.540000 0.090000 1.370000
v 0.475000 0.076603 1.370000
v 0.427417 0.040000 1.370000
v 0.410000 -0.010000 1.370000
v 0.427417 -0.060000 1.370000
v 0.475000 -0.096603 1.370000
v 0.540000 -0.110000 1.370000
v 0.605000 -0.096603 1.370000
v 0.652583 -0.060000 1.370000
v 0.660104 -0.010000 1.308771
v 0.644013 0.036194 1.308771
v 0.600052 0.070010 1.308771
v 0.540000 0.082388 1.308771
v 0.479948 0.070010 1.308771
v 0.435987 0.036194 1.308771
v 0.419896 -0.010000 1.308771
v 0.435987 -0.056194 1.308771
v 0.479948 -0.090010 1.308771
v 0.540000 -0.102388 1.308771
v 0.600052 -0.090010 1.308771
v 0.644013 -0.056194 1.308771
v 0.631924 -0.010000 1.256863
v 0.619608 0.025355 1.256863
v 0.585962 0.051237 1.256863
v 0.540000 0.060711 1.256863
v 0.494038 0.051237 1.256863
v 0.460392 0.025355 1.256863
v 0.448076 -0.010000 1.256863
v 0.460392 -0.045355 1.256863
v 0.494038 -0.071237 1.256863
v 0.540000 -0.080711 1.256863
v 0.585962 -0.071237 1.256863
v 0.619608 -0.045355 1.256863
v 0.589749 -0.010000 1.222179
v 0.583084 0.009134 1.222179
v 0.564874 0.023141 1.222179
v 0.540000 0.028268 1.222179
v 0.515126 0.023141 1.222179
v 0.496916 0.009134 1.222179
v 0.490251 -0.010000 1.222179
v 0.496916 -0.029134 1.222179
v 0.515126 -0.043141 1.222179
v 0.540000 -0.048268 1.222179
v 0.564874 -0.043141 1.222179
v 0.583084 -0.029134 1.222179
v 0.540000 -0.010000 1.210000
v 0.540000 -0.010000 1.210000
v 0.540000 -0.010000 1.210000
v 0.540000 -0.010000 1.210000
v 0.540000 -0.010000 1.210000
v 0.540000 -0.010000 1.210000
v 0.540000 -0.010000 1.210000
v 0.540000 -0.010000 1.210000
v 0.540000 -0.010000 1.210000
v 0.540000 -0.010000 1.210000
v 0.540000 -0.010000 1.210000
v 0.540000 -0.010000 1.210000
v -0.060000 0.000000 1.350000
v -0.078756 -0.070000 1.350000
v -0.130000 -0.121244 1.350000
v -0.200000 -0.140000 1.350000
v -0.270000 -0.121244 1.350000
v -0.321244 -0.070000 1.350000
v -0.340000 -0.000000 1.350000
v -0.321244 0.070000 1.350000
v -0.270000 0.121244 1.350000
v -0.200000 0.140000 1.350000
v -0.130000 0.121244 1.350000
v -0.078756 0.070000 1.350000
v -0.060000 0.000000 0.720000
v -0.078756 -0.070000 0.720000
v -0.130000 -0.121244 0.720000
v -0.200000 -0.140000 0.720000
v -0.270000 -0.121244 0.720000
v -0.321244 -0.070000 0.720000
v -0.340000 -0.000000 0.720000
v -0.321244 0.070000 0.720000
v -0.270000 0.121244 0.720000
v -0.200000 0.140000 0.720000
v -0.130000 0.121244 0.720000
v -0.078756 0.070000 0.720000
v -0.085000 0.000000 0.720000
v -0.100407 -0.057491 0.721027
v -0.142500 -0.099577 0.721778
v -0.200000 -0.114982 0.722053
v -0.257500 -0.099577 0.721778
v -0.299593 -0.057491 0.721027
v -0.315000 -0.000000 0.720000
v -0.299593 0.057491 0.718973
v -0.257500 0.099577 0.718222
v -0.200000 0.114982 0.717947
v -0.142500 0.099577 0.718222
v -0.100407 0.057491 0.718973
v -0.085000 -0.010000 0.160000
v -0.100407 -0.067491 0.161027
v -0.142500 -0.109577 0.161778
v -0.200000 -0.124982 0.162053
v -0.257500 -0.109577 0.161778
v -0.299593 -0.067491 0.161027
v -0.315000 -0.010000 0.160000
v -0.299593 0.047491 0.158973
v -0.257500 0.089577 0.158222
v -0.200000 0.104982 0.157947
v -0.142500 0.089577 0.158222
v -0.100407 0.047491 0.158973
v -0.200000 -0.080000 0.160000
v -0.200000 -0.080000 0.160000
v -0.200000 -0.080000 0.160000
v -0.200000 -0.080000 0.160000
v -0.200000 -0.080000 0.160000
v -0.200000 -0.080000 0.160000
v -0.200000 -0.080000 0.160000
v -0.200000 -0.080000 0.160000
v -0.200000 -0.080000 0.160000
v -0.200000 -0.080000 0.160000
v -0.200000 -0.080000 0.160000
v -0.200000 -0.080000 0.160000
v -0.200000 -0.080000 0.160000
v -0.200000 -0.080000 0.160000
v -0.131117 -0.080000 0.150866
v -0.137939 -0.033509 0.150866
v -0.157052 0.003774 0.150866
v -0.184672 0.024465 0.150866
v -0.215328 0.024465 0.150866
v -0.242948 0.003774 0.150866
v -0.262061 -0.033509 0.150866
v -0.268883 -0.080000 0.150866
v -0.262061 -0.126491 0.150866
v -0.242948 -0.163774 0.150866
v -0.215328 -0.184465 0.150866
v -0.184672 -0.184465 0.150866
v -0.157052 -0.163774 0.150866
v -0.137939 -0.126491 0.150866
v -0.072721 -0.080000 0.124853
v -0.085325 0.005905 0.124853
v -0.120643 0.074795 0.124853
v -0.171678 0.113026 0.124853
v -0.228322 0.113026 0.124853
v -0.279357 0.074795 0.124853
v -0.314675 0.005905 0.124853
v -0.327279 -0.080000 0.124853
v -0.314675 -0.165905 0.124853
v -0.279357 -0.234795 0.124853
v -0.228322 -0.273026 0.124853
v -0.171678 -0.273026 0.124853
v -0.120643 -0.234795 0.124853
v -0.085325 -0.165905 0.124853
v -0.033702 -0.080000 0.085922
v -0.050170 0.032240 0.085922
v -0.096315 0.122249 0.085922
v -0.162995 0.172200 0.085922
v -0.237005 0.172200 0.085922
v -0.303685 0.122249 0.085922
v -0.349830 0.032240 0.085922
v -0.366298 -0.080000 0.085922
v -0.349830 -0.192240 0.085922
v -0.303685 -0.282249 0.085922
v -0.237005 -0.332200 0.085922
v -0.162995 -0.332200 0.085922
v -0.096315 -0.282249 0.085922
v -0.050170 -0.192240 0.085922
v -0.020000 -0.080000 0.040000
v -0.037826 0.041487 0.040000
v -0.087772 0.138913 0.040000
v -0.159946 0.192980 0.040000
v -0.240054 0.192980 0.040000
v -0.312228 0.138913 0.040000
v -0.362174 0.041487 0.040000
v -0.380000 -0.080000 0.040000
v -0.362174 -0.201487 0.040000
v -0.312228 -0.298913 0.040000
v -0.240054 -0.352980 0.040000
v -0.159946 -0.352980 0.040000
v -0.087772 -0.298913 0.040000
v -0.037826 -0.201487 0.040000
v -0.033702 -0.080000 -0.005922
v -0.050170 0.032240 -0.005922
v -0.096315 0.122249 -0.005922
v -0.162995 0.172200 -0.005922
v -0.237005 0.172200 -0.005922
v -0.303685 0.122249 -0.005922
v -0.349830 0.032240 -0.005922
v -0.366298 -0.080000 -0.005922
v -0.349830 -0.192240 -0.005922
v -0.303685 -0.282249 -0.005922
v -0.237005 -0.332200 -0.005922
v -0.162995 -0.332200 -0.005922
v -0.096315 -0.282249 -0.005922
v -0.050170 -0.192240 -0.005922
v -0.072721 -0.080000 -0.044853
v -0.085325 0.005905 -0.044853
v -0.120643 0.074795 -0.044853
v -0.171678 0.113026 -0.044853
v -0.228322 0.113026 -0.044853
v -0.279357 0.074795 -0.044853
v -0.314675 0.005905 -0.044853
v -0.327279 -0.080000 -0.044853
v -0.314675 -0.165905 -0.044853
v -0.279357 -0.234795 -0.044853
v -0.228322 -0.273026 -0.044853
v -0.171678 -0.273026 -0.044853
v -0.120643 -0.234795 -0.044853
v -0.085325 -0.165905 -0.044853
v -0.131117 -0.080000 -0.070866
v -0.137939 -0.033509 -0.070866
v -0.157052 0.003774 -0.070866
v -0.184672 0.024465 -0.070866
v -0.215328 0.024465 -0.070866
v -0.242948 0.003774 -0.070866
v -0.262061 -0.033509 -0.070866
v -0.268883 -0.080000 -0.070866
v -0.262061 -0.126491 -0.070866
v -0.242948 -0.163774 -0.070866
v -0.215328 -0.184465 -0.070866
v -0.184672 -0.184465 -0.070866
v -0.157052 -0.163774 -0.070866
v -0.137939 -0.126491 -0.070866
v -0.200000 -0.080000 -0.080000
v -0.200000 -0.080000 -0.080000
v -0.200000 -0.080000 -0.080000
v -0.200000 -0.080000 -0.080000
v -0.200000 -0.080000 -0.080000
v -0.200000 -0.080000 -0.080000
v -0.200000 -0.080000 -0.080000
v -0.200000 -0.080000 -0.080000
v -0.200000 -0.080000 -0.080000
v -0.200000 -0.080000 -0.080000
v -0.200000 -0.080000 -0.080000
v -0.200000 -0.080000 -0.080000
v -0.200000 -0.080000 -0.080000
v -0.200000 -0.080000 -0.080000
v 0.340000 0.000000 1.350000
v 0.321244 -0.070000 1.350000
v 0.270000 -0.121244 1.350000
v 0.200000 -0.140000 1.350000
v 0.130000 -0.121244 1.350000
v 0.078756 -0.070000 1.350000
v 0.060000 -0.000000 1.350000
v 0.078756 0.070000 1.350000
v 0.130000 0.121244 1.350000
v 0.200000 0.140000 1.350000
v 0.270000 0.121244 1.350000
v 0.321244 0.070000 1.350000
v 0.340000 0.000000 0.720000
v 0.321244 -0.070000 0.720000
v 0.270000 -0.121244 0.720000
v 0.200000 -0.140000 0.720000
v 0.130000 -0.121244 0.720000
v 0.078756 -0.070000 0.720000
v 0.060000 -0.000000 0.720000
v 0.078756 0.070000 0.720000
v 0.130000 0.121244 0.720000
v 0.200000 0.140000 0.720000
v 0.270000 0.121244 0.720000
v 0.321244 0.070000 0.720000
v 0.315000 0.000000 0.720000
v 0.299593 -0.057491 0.721027
v 0.257500 -0.099577 0.721778
v 0.200000 -0.114982 0.722053
v 0.142500 -0.099577 0.721778
v 0.100407 -0.057491 0.721027
v 0.085000 -0.000000 0.720000
v 0.100407 0.057491 0.718973
v 0.142500 0.099577 0.718222
v 0.200000 0.114982 0.717947
v 0.257500 0.099577 0.718222
v 0.299593 0.057491 0.718973
v 0.315000 -0.010000 0.160000
v 0.299593 -0.067491 0.161027
v 0.257500 -0.109577 0.161778
v 0.200000 -0.124982 0.162053
v 0.142500 -0.109577 0.161778
v 0.100407 -0.067491 0.161027
v 0.085000 -0.010000 0.160000
v 0.100407 0.047491 0.158973
v 0.142500 0.089577 0.158222
v 0.200000 0.104982 0.157947
v 0.257500 0.089577 0.158222
v 0.299593 0.047491 0.158973
v 0.200000 -0.080000 0.160000
v 0.200000 -0.080000 0.160000
v 0.200000 -0.080000 0.160000
v 0.200000 -0.080000 0.160000
v 0.200000 -0.080000 0.160000
v 0.200000 -0.080000 0.160000
v 0.200000 -0.080000 0.160000
v 0.200000 -0.080000 0.160000
v 0.200000 -0.080000 0.160000
v 0.200000 -0.080000 0.160000
v 0.200000 -0.080000 0.160000
v 0.200000 -0.080000 0.160000
v 0.200000 -0.080000 0.160000
v 0.200000 -0.080000 0.160000
v 0.268883 -0.080000 0.150866
v 0.262061 -0.033509 0.150866
v 0.242948 0.003774 0.150866
v 0.215328 0.024465 0.150866
v 0.184672 0.024465 0.150866
v 0.157052 0.003774 0.150866
v 0.137939 -0.033509 0.150866
v 0.131117 -0.080000 0.150866
v 0.137939 -0.126491 0.150866
v 0.157052 -0.163774 0.150866
v 0.184672 -0.184465 0.150866
v 0.215328 -0.184465 0.150866
v 0.242948 -0.163774 0.150866
v 0.262061 -0.126491 0.150866
v 0.327279 -0.080000 0.124853
v 0.314675 0.005905 0.124853
v 0.279357 0.074795 0.124853
v 0.228322 0.113026 0.124853
v 0.171678 0.113026 0.124853
v 0.120643 0.074795 0.124853
v 0.085325 0.005905 0.124853
v 0.072721 -0.080000 0.124853
v 0.085325 -0.165905 0.124853
v 0.120643 -0.234795 0.124853
v 0.171678 -0.273026 0.124853
v 0.228322 -0.273026 0.124853
v 0.279357 -0.234795 0.124853
v 0.314675 -0.165905 0.124853
v 0.366298 -0.080000 0.085922
v 0.349830 0.032240 0.085922
v 0.303685 0.122249 0.085922
v 0.237005 0.172200 0.085922
v 0.162995 0.172200 0.085922
v 0.096315 0.122249 0.085922
v 0.050170 0.032240 0.085922
v 0.033702 -0.080000 0.085922
v 0.050170 -0.192240 0.085922
v 0.096315 -0.282249 0.085922
v 0.162995 -0.332200 0.085922
v 0.237005 -0.332200 0.085922
v 0.303685 -0.282249 0.085922
v 0.349830 -0.192240 0.085922
v 0.380000 -0.080000 0.040000
v 0.362174 0.041487 0.040000
v 0.312228 0.138913 0.040000
v 0.240054 0.192980 0.040000
v 0.159946 0.192980 0.040000
v 0.087772 0.138913 0.040000
v 0.037826 0.041487 0.040000
v 0.020000 -0.080000 0.040000
v 0.037826 -0.201487 0.040000
v 0.087772 -0.298913 0.040000
v 0.159946 -0.352980 0.040000
v 0.240054 -0.352980 0.040000
v 0.312228 -0.298913 0.040000
v 0.362174 -0.201487 0.040000
v 0.366298 -0.080000 -0.005922
v 0.349830 0.032240 -0.005922
v 0.303685 0.122249 -0.005922
v 0.237005 0.172200 -0.005922
v 0.162995 0.172200 -0.005922
v 0.096315 0.122249 -0.005922
v 0.050170 0.032240 -0.005922
v 0.033702 -0.080000 -0.005922
v 0.050170 -0.192240 -0.005922
v 0.096315 -0.282249 -0.005922
v 0.162995 -0.332200 -0.005922
v 0.237005 -0.332200 -0.005922
v 0.303685 -0.282249 -0.005922
v 0.349830 -0.192240 -0.005922
v 0.327279 -0.080000 -0.044853
v 0.314675 0.005905 -0.044853
v 0.279357 0.074795 -0.044853
v 0.228322 0.113026 -0.044853
v 0.171678 0.113026 -0.044853
v 0.120643 0.074795 -0.044853
v 0.085325 0.005905 -0.044853
v 0.072721 -0.080000 -0.044853
v 0.085325 -0.165905 -0.044853
v 0.120643 -0.234795 -0.044853
v 0.171678 -0.273026 -0.044853
v 0.228322 -0.273026 -0.044853
v 0.279357 -0.234795 -0.044853
v 0.314675 -0.165905 -0.044853
v 0.268883 -0.080000 -0.070866
v 0.262061 -0.033509 -0.070866
v 0.242948 0.003774 -0.070866
v 0.215328 0.024465 -0.070866
v 0.184672 0.024465 -0.070866
v 0.157052 0.003774 -0.070866
v 0.137939 -0.033509 -0.070866
v 0.131117 -0.080000 -0.070866
v 0.137939 -0.126491 -0.070866
v 0.157052 -0.163774 -0.070866
v 0.184672 -0.184465 -0.070866
v 0.215328 -0.184465 -0.070866
v 0.242948 -0.163774 -0.070866
v 0.262061 -0.126491 -0.070866
v 0.200000 -0.080000 -0.080000
v 0.200000 -0.080000 -0.080000
v 0.200000 -0.080000 -0.080000
v 0.200000 -0.080000 -0.080000
v 0.200000 -0.080000 -0.080000
v 0.200000 -0.080000 -0.080000
v 0.200000 -0.080000 -0.080000
v 0.200000 -0.080000 -0.080000
v 0.200000 -0.080000 -0.080000
v 0.200000 -0.080000 -0.080000
v 0.200000 -0.080000 -0.080000
v 0.200000 -0.080000 -0.080000
v 0.200000 -0.080000 -0.080000
v 0.200000 -0.080000 -0.080000
v -0.220855 0.040000 3.335703
v -0.243721 -0.030528 3.337506
v -0.303362 -0.074117 3.344082
v -0.376998 -0.074117 3.352918
v -0.436502 -0.030528 3.360640
v -0.459145 0.040000 3.364297
v -0.436279 0.110528 3.362494
v -0.376638 0.154117 3.355918
v -0.303002 0.154117 3.347082
v -0.243498 0.110528 3.339360
v -0.310855 0.050000 2.585703
v -0.333721 -0.020528 2.587506
v -0.393362 -0.064117 2.594082
v -0.466998 -0.064117 2.602918
v -0.526502 -0.020528 2.610640
v -0.549145 0.050000 2.614297
v -0.526279 0.120528 2.612494
v -0.466638 0.164117 2.605918
v -0.393002 0.164117 2.597082
v -0.333498 0.120528 2.589360
v 0.459145 0.040000 3.364297
v 0.436502 -0.030528 3.360640
v 0.376998 -0.074117 3.352918
v 0.303362 -0.074117 3.344082
v 0.243721 -0.030528 3.337506
v 0.220855 0.040000 3.335703
v 0.243498 0.110528 3.339360
v 0.303002 0.154117 3.347082
v 0.376638 0.154117 3.355918
v 0.436279 0.110528 3.362494
v 0.549145 0.050000 2.614297
v 0.526502 -0.020528 2.610640
v 0.466998 -0.064117 2.602918
v 0.393362 -0.064117 2.594082
v 0.333721 -0.020528 2.587506
v 0.310855 0.050000 2.585703
v 0.333498 0.120528 2.589360
v 0.393002 0.164117 2.597082
v 0.466638 0.164117 2.605918
v 0.526279 0.120528 2.612494
v 0.420000 0.140000 2.450000
v 0.394671 0.283648 2.450000
v 0.321739 0.409971 2.450000
v 0.210000 0.503731 2.450000
v 0.072932 0.553619 2.450000
v -0.072932 0.553619 2.450000
v -0.210000 0.503731 2.450000
v -0.321739 0.409971 2.450000
v -0.394671 0.283648 2.450000
v -0.420000 0.140000 2.450000
v -0.394671 -0.003648 2.450000
v -0.321739 -0.129971 2.450000
v -0.210000 -0.223731 2.450000
v -0.072932 -0.273619 2.450000
v 0.072932 -0.273619 2.450000
v 0.210000 -0.223731 2.450000
v 0.321739 -0.129971 2.450000
v 0.394671 -0.003648 2.450000
v 0.300000 0.140000 3.200000
v 0.281908 0.242606 3.200000
v 0.229813 0.332836 3.200000
v 0.150000 0.399808 3.200000
v 0.052094 0.435442 3.200000
v -0.052094 0.435442 3.200000
v -0.150000 0.399808 3.200000
v -0.229813 0.332836 3.200000
v -0.281908 0.242606 3.200000
v -0.300000 0.140000 3.200000
v -0.281908 0.037394 3.200000
v -0.229813 -0.052836 3.200000
v -0.150000 -0.119808 3.200000
v -0.052094 -0.155442 3.200000
v 0.052094 -0.155442 3.200000
v 0.150000 -0.119808 3.200000
v 0.229813 -0.052836 3.200000
v 0.281908 0.037394 3.200000
v 0.000000 -0.430000 3.015000
v 0.000000 -0.430000 3.015000
v 0.000000 -0.430000 3.015000
v 0.000000 -0.430000 3.015000
v 0.000000 -0.430000 3.015000
v 0.000000 -0.430000 3.015000
v 0.000000 -0.430000 3.015000
v 0.000000 -0.430000 3.015000
v 0.000000 -0.430000 3.015000
v 0.000000 -0.430000 3.015000
v 0.050000 -0.430000 3.010311
v 0.040451 -0.424710 3.010311
v 0.015451 -0.421440 3.010311
v -0.015451 -0.421440 3.010311
v -0.040451 -0.424710 3.010311
v -0.050000 -0.430000 3.010311
v -0.040451 -0.435290 3.010311
v -0.015451 -0.438560 3.010311
v 0.015451 -0.438560 3.010311
v 0.040451 -0.435290 3.010311
v 0.086603 -0.430000 2.997500
v 0.070063 -0.420837 2.997500
v 0.026762 -0.415174 2.997500
v -0.026762 -0.415174 2.997500
v -0.070063 -0.420837 2.997500
v -0.086603 -0.430000 2.997500
v -0.070063 -0.439163 2.997500
v -0.026762 -0.444826 2.997500
v 0.026762 -0.444826 2.997500
v 0.070063 -0.439163 2.997500
v 0.100000 -0.430000 2.980000
v 0.080902 -0.419420 2.980000
v 0.030902 -0.412881 2.980000
v -0.030902 -0.412881 2.980000
v -0.080902 -0.419420 2.980000
v -0.100000 -0.430000 2.980000
v -0.080902 -0.440580 2.980000
v -0.030902 -0.447119 2.980000
v 0.030902 -0.447119 2.980000
v 0.080902 -0.440580 2.980000
v 0.086603 -0.430000 2.962500
v 0.070063 -0.420837 2.962500
v 0.026762 -0.415174 2.962500
v -0.026762 -0.415174 2.962500
v -0.070063 -0.420837 2.962500
v -0.086603 -0.430000 2.962500
v -0.070063 -0.439163 2.962500
v -0.026762 -0.444826 2.962500
v 0.026762 -0.444826 2.962500
v 0.070063 -0.439163 2.962500
v 0.050000 -0.430000 2.949689
v 0.040451 -0.424710 2.949689
v 0.015451 -0.421440 2.949689
v -0.015451 -0.421440 2.949689
v -0.040451 -0.424710 2.949689
v -0.050000 -0.430000 2.949689
v -0.040451 -0.435290 2.949689
v -0.015451 -0.438560 2.949689
v 0.015451 -0.438560 2.949689
v 0.040451 -0.435290 2.949689
v 0.000000 -0.430000 2.945000
v 0.000000 -0.430000 2.945000
v 0.000000 -0.430000 2.945000
v -0.000000 -0.430000 2.945000
v -0.000000 -0.430000 2.945000
v -0.000000 -0.430000 2.945000
v -0.000000 -0.430000 2.945000
v -0.000000 -0.430000 2.945000
v 0.000000 -0.430000 2.945000
v 0.000000 -0.430000 2.945000

o Head
usemtl Skin
s 1
f 1 2 20 19
f 2 3 21 20
f 3 4 22 21
f 4 5 23 22
f 5 6 24 23
f 6 7 25 24
f 7 8 26 25
f 8 9 27 26
f 9 10 28 27
f 10 11 29 28
f 11 12 30 29
f 12 13 31 30
f 13 14 32 31
f 14 15 33 32
f 15 16 34 33
f 16 17 35 34
f 17 18 36 35
f 18 1 19 36
f 19 20 38 37
f 20 21 39 38
f 21 22 40 39
f 22 23 41 40
f 23 24 42 41
f 24 25 43 42
f 25 26 44 43
f 26 27 45 44
f 27 28 46 45
f 28 29 47 46
f 29 30 48 47
f 30 31 49 48
f 31 32 50 49
f 32 33 51 50
f 33 34 52 51
f 34 35 53 52
f 35 36 54 53
f 36 19 37 54
f 37 38 56 55
f 38 39 57 56
f 39 40 58 57
f 40 41 59 58
f 41 42 60 59
f 42 43 61 60
f 43 44 62 61
f 44 45 63 62
f 45 46 64 63
f 46 47 65 64
f 47 48 66 65
f 48 49 67 66
f 49 50 68 67
f 50 51 69 68
f 51 52 70 69
f 52 53 71 70
f 53 54 72 71
f 54 37 55 72
f 55 56 74 73
f 56 57 75 74
f 57 58 76 75
f 58 59 77 76
f 59 60 78 77
f 60 61 79 78
f 61 62 80 79
f 62 63 81 80
f 63 64 82 81
f 64 65 83 82
f 65 66 84 83
f 66 67 85 84
f 67 68 86 85
f 68 69 87 86
f 69 70 88 87
f 70 71 89 88
f 71 72 90 89
f 72 55 73 90
f 73 74 92 91
f 74 75 93 92
f 75 76 94 93
f 76 77 95 94
f 77 78 96 95
f 78 79 97 96
f 79 80 98 97
f 80 81 99 98
f 81 82 100 99
f 82 83 101 100
f 83 84 102 101
f 84 85 103 102
f 85 86 104 103
f 86 87 105 104
f 87 88 106 105
f 88 89 107 106
f 89 90 108 107
f 90 73 91 108
f 91 92 110 109
f 92 93 111 110
f 93 94 112 111
f 94 95 113 112
f 95 96 114 113
f 96 97 115 114
f 97 98 116 115
f 98 99 117 116
f 99 100 118 117
f 100 101 119 118
f 101 102 120 119
f 102 103 121 120
f 103 104 122 121
f 104 105 123 122
f 105 106 124 123
f 106 107 125 124
f 107 108 126 125
f 108 91 109 126
f 109 110 128 127
f 110 111 129 128
f 111 112 130 129
f 112 113 131 130
f 113 114 132 131
f 114 115 133 132
f 115 116 134 133
f 116 117 135 134
f 117 118 136 135
f 118 119 137 136
f 119 120 138 137
f 120 121 139 138
f 121 122 140 139
f 122 123 141 140
f 123 124 142 141
f 124 125 143 142
f 125 126 144 143
f 126 109 127 144
f 127 128 146 145
f 128 129 147 146
f 129 130 148 147
f 130 131 149 148
f 131 132 150 149
f 132 133 151 150
f 133 134 152 151
f 134 135 153 152
f 135 136 154 153
f 136 137 155 154
f 137 138 156 155
f 138 139 157 156
f 139 140 158 157
f 140 141 159 158
f 141 142 160 159
f 142 143 161 160
f 143 144 162 161
f 144 127 145 162
f 145 146 164 163
f 146 147 165 164
f 147 148 166 165
f 148 149 167 166
f 149 150 168 167
f 150 151 169 168
f 151 152 170 169
f 152 153 171 170
f 153 154 172 171
f 154 155 173 172
f 155 156 174 173
f 156 157 175 174
f 157 158 176 175
f 158 159 177 176
f 159 160 178 177
f 160 161 179 178
f 161 162 180 179
f 162 145 163 180
f 163 164 182 181
f 164 165 183 182
f 165 166 184 183
f 166 167 185 184
f 167 168 186 185
f 168 169 187 186
f 169 170 188 187
f 170 171 189 188
f 171 172 190 189
f 172 173 191 190
f 173 174 192 191
f 174 175 193 192
f 175 176 194 193
f 176 177 195 194
f 177 178 196 195
f 178 179 197 196
f 179 180 198 197
f 180 163 181 198
f 181 182 200 199
f 182 183 201 200
f 183 184 202 201
f 184 185 203 202
f 185 186 204 203
f 186 187 205 204
f 187 188 206 205
f 188 189 207 206
f 189 190 208 207
f 190 191 209 208
f 191 192 210 209
f 192 193 211 210
f 193 194 212 211
f 194 195 213 212
f 195 196 214 213
f 196 197 215 214
f 197 198 216 215
f 198 181 199 216
f 199 200 218 217
f 200 201 219 218
f 201 202 220 219
f 202 203 221 220
f 203 204 222 221
f 204 205 223 222
f 205 206 224 223
f 206 207 225 224
f 207 208 226 225
f 208 209 227 226
f 209 210 228 227
f 210 211 229 228
f 211 212 230 229
f 212 213 231 230
f 213 214 232 231
f 214 215 233 232
f 215 216 234 233
f 216 199 217 234

o HairCap
usemtl Hair
s 1
f 235 236 254 253
f 236 237 255 254
f 237 238 256 255
f 238 239 257 256
f 239 240 258 257
f 240 241 259 258
f 241 242 260 259
f 242 243 261 260
f 243 244 262 261
f 244 245 263 262
f 245 246 264 263
f 246 247 265 264
f 247 248 266 265
f 248 249 267 266
f 249 250 268 267
f 250 251 269 268
f 251 252 270 269
f 252 235 253 270
f 253 254 272 271
f 254 255 273 272
f 255 256 274 273
f 256 257 275 274
f 257 258 276 275
f 258 259 277 276
f 259 260 278 277
f 260 261 279 278
f 261 262 280 279
f 262 263 281 280
f 263 264 282 281
f 264 265 283 282
f 265 266 284 283
f 266 267 285 284
f 267 268 286 285
f 268 269 287 286
f 269 270 288 287
f 270 253 271 288
f 271 272 290 289
f 272 273 291 290
f 273 274 292 291
f 274 275 293 292
f 275 276 294 293
f 276 277 295 294
f 277 278 296 295
f 278 279 297 296
f 279 280 298 297
f 280 281 299 298
f 281 282 300 299
f 282 283 301 300
f 283 284 302 301
f 284 285 303 302
f 285 286 304 303
f 286 287 305 304
f 287 288 306 305
f 288 271 289 306
f 289 290 308 307
f 290 291 309 308
f 291 292 310 309
f 292 293 311 310
f 293 294 312 311
f 294 295 313 312
f 295 296 314 313
f 296 297 315 314
f 297 298 316 315
f 298 299 317 316
f 299 300 318 317
f 300 301 319 318
f 301 302 320 319
f 302 303 321 320
f 303 304 322 321
f 304 305 323 322
f 305 306 324 323
f 306 289 307 324
f 307 308 326 325
f 308 309 327 326
f 309 310 328 327
f 310 311 329 328
f 311 312 330 329
f 312 313 331 330
f 313 314 332 331
f 314 315 333 332
f 315 316 334 333
f 316 317 335 334
f 317 318 336 335
f 318 319 337 336
f 319 320 338 337
f 320 321 339 338
f 321 322 340 339
f 322 323 341 340
f 323 324 342 341
f 324 307 325 342
f 325 326 344 343
f 326 327 345 344
f 327 328 346 345
f 328 329 347 346
f 329 330 348 347
f 330 331 349 348
f 331 332 350 349
f 332 333 351 350
f 333 334 352 351
f 334 335 353 352
f 335 336 354 353
f 336 337 355 354
f 337 338 356 355
f 338 339 357 356
f 339 340 358 357
f 340 341 359 358
f 341 342 360 359
f 342 325 343 360
f 343 344 362 361
f 344 345 363 362
f 345 346 364 363
f 346 347 365 364
f 347 348 366 365
f 348 349 367 366
f 349 350 368 367
f 350 351 369 368
f 351 352 370 369
f 352 353 371 370
f 353 354 372 371
f 354 355 373 372
f 355 356 374 373
f 356 357 375 374
f 357 358 376 375
f 358 359 377 376
f 359 360 378 377
f 360 343 361 378
f 361 362 380 379
f 362 363 381 380
f 363 364 382 381
f 364 365 383 382
f 365 366 384 383
f 366 367 385 384
f 367 368 386 385
f 368 369 387 386
f 369 370 388 387
f 370 371 389 388
f 371 372 390 389
f 372 373 391 390
f 373 374 392 391
f 374 375 393 392
f 375 376 394 393
f 376 377 395 394
f 377 378 396 395
f 378 361 379 396
f 379 380 398 397
f 380 381 399 398
f 381 382 400 399
f 382 383 401 400
f 383 384 402 401
f 384 385 403 402
f 385 386 404 403
f 386 387 405 404
f 387 388 406 405
f 388 389 407 406
f 389 390 408 407
f 390 391 409 408
f 391 392 410 409
f 392 393 411 410
f 393 394 412 411
f 394 395 413 412
f 395 396 414 413
f 396 379 397 414
f 397 398 416 415
f 398 399 417 416
f 399 400 418 417
f 400 401 419 418
f 401 402 420 419
f 402 403 421 420
f 403 404 422 421
f 404 405 423 422
f 405 406 424 423
f 406 407 425 424
f 407 408 426 425
f 408 409 427 426
f 409 410 428 427
f 410 411 429 428
f 411 412 430 429
f 412 413 431 430
f 413 414 432 431
f 414 397 415 432
f 415 416 434 433
f 416 417 435 434
f 417 418 436 435
f 418 419 437 436
f 419 420 438 437
f 420 421 439 438
f 421 422 440 439
f 422 423 441 440
f 423 424 442 441
f 424 425 443 442
f 425 426 444 443
f 426 427 445 444
f 427 428 446 445
f 428 429 447 446
f 429 430 448 447
f 430 431 449 448
f 431 432 450 449
f 432 415 433 450
f 433 434 452 451
f 434 435 453 452
f 435 436 454 453
f 436 437 455 454
f 437 438 456 455
f 438 439 457 456
f 439 440 458 457
f 440 441 459 458
f 441 442 460 459
f 442 443 461 460
f 443 444 462 461
f 444 445 463 462
f 445 446 464 463
f 446 447 465 464
f 447 448 466 465
f 448 449 467 466
f 449 450 468 467
f 450 433 451 468

o FacePatch
usemtl Skin
s 1
f 469 470 488 487
f 470 471 489 488
f 471 472 490 489
f 472 473 491 490
f 473 474 492 491
f 474 475 493 492
f 475 476 494 493
f 476 477 495 494
f 477 478 496 495
f 478 479 497 496
f 479 480 498 497
f 480 481 499 498
f 481 482 500 499
f 482 483 501 500
f 483 484 502 501
f 484 485 503 502
f 485 486 504 503
f 486 469 487 504
f 487 488 506 505
f 488 489 507 506
f 489 490 508 507
f 490 491 509 508
f 491 492 510 509
f 492 493 511 510
f 493 494 512 511
f 494 495 513 512
f 495 496 514 513
f 496 497 515 514
f 497 498 516 515
f 498 499 517 516
f 499 500 518 517
f 500 501 519 518
f 501 502 520 519
f 502 503 521 520
f 503 504 522 521
f 504 487 505 522
f 505 506 524 523
f 506 507 525 524
f 507 508 526 525
f 508 509 527 526
f 509 510 528 527
f 510 511 529 528
f 511 512 530 529
f 512 513 531 530
f 513 514 532 531
f 514 515 533 532
f 515 516 534 533
f 516 517 535 534
f 517 518 536 535
f 518 519 537 536
f 519 520 538 537
f 520 521 539 538
f 521 522 540 539
f 522 505 523 540
f 523 524 542 541
f 524 525 543 542
f 525 526 544 543
f 526 527 545 544
f 527 528 546 545
f 528 529 547 546
f 529 530 548 547
f 530 531 549 548
f 531 532 550 549
f 532 533 551 550
f 533 534 552 551
f 534 535 553 552
f 535 536 554 553
f 536 537 555 554
f 537 538 556 555
f 538 539 557 556
f 539 540 558 557
f 540 523 541 558
f 541 542 560 559
f 542 543 561 560
f 543 544 562 561
f 544 545 563 562
f 545 546 564 563
f 546 547 565 564
f 547 548 566 565
f 548 549 567 566
f 549 550 568 567
f 550 551 569 568
f 551 552 570 569
f 552 553 571 570
f 553 554 572 571
f 554 555 573 572
f 555 556 574 573
f 556 557 575 574
f 557 558 576 575
f 558 541 559 576
f 559 560 578 577
f 560 561 579 578
f 561 562 580 579
f 562 563 581 580
f 563 564 582 581
f 564 565 583 582
f 565 566 584 583
f 566 567 585 584
f 567 568 586 585
f 568 569 587 586
f 569 570 588 587
f 570 571 589 588
f 571 572 590 589
f 572 573 591 590
f 573 574 592 591
f 574 575 593 592
f 575 576 594 593
f 576 559 577 594
f 577 578 596 595
f 578 579 597 596
f 579 580 598 597
f 580 581 599 598
f 581 582 600 599
f 582 583 601 600
f 583 584 602 601
f 584 585 603 602
f 585 586 604 603
f 586 587 605 604
f 587 588 606 605
f 588 589 607 606
f 589 590 608 607
f 590 591 609 608
f 591 592 610 609
f 592 593 611 610
f 593 594 612 611
f 594 577 595 612
f 595 596 614 613
f 596 597 615 614
f 597 598 616 615
f 598 599 617 616
f 599 600 618 617
f 600 601 619 618
f 601 602 620 619
f 602 603 621 620
f 603 604 622 621
f 604 605 623 622
f 605 606 624 623
f 606 607 625 624
f 607 608 626 625
f 608 609 627 626
f 609 610 628 627
f 610 611 629 628
f 611 612 630 629
f 612 595 613 630
f 613 614 632 631
f 614 615 633 632
f 615 616 634 633
f 616 617 635 634
f 617 618 636 635
f 618 619 637 636
f 619 620 638 637
f 620 621 639 638
f 621 622 640 639
f 622 623 641 640
f 623 624 642 641
f 624 625 643 642
f 625 626 644 643
f 626 627 645 644
f 627 628 646 645
f 628 629 647 646
f 629 630 648 647
f 630 613 631 648
f 631 632 650 649
f 632 633 651 650
f 633 634 652 651
f 634 635 653 652
f 635 636 654 653
f 636 637 655 654
f 637 638 656 655
f 638 639 657 656
f 639 640 658 657
f 640 641 659 658
f 641 642 660 659
f 642 643 661 660
f 643 644 662 661
f 644 645 663 662
f 645 646 664 663
f 646 647 665 664
f 647 648 666 665
f 648 631 649 666

o Eye_L
usemtl Eyes
s 1
f 667 668 680 679
f 668 669 681 680
f 669 670 682 681
f 670 671 683 682
f 671 672 684 683
f 672 673 685 684
f 673 674 686 685
f 674 675 687 686
f 675 676 688 687
f 676 677 689 688
f 677 678 690 689
f 678 667 679 690
f 679 680 692 691
f 680 681 693 692
f 681 682 694 693
f 682 683 695 694
f 683 684 696 695
f 684 685 697 696
f 685 686 698 697
f 686 687 699 698
f 687 688 700 699
f 688 689 701 700
f 689 690 702 701
f 690 679 691 702
f 691 692 704 703
f 692 693 705 704
f 693 694 706 705
f 694 695 707 706
f 695 696 708 707
f 696 697 709 708
f 697 698 710 709
f 698 699 711 710
f 699 700 712 711
f 700 701 713 712
f 701 702 714 713
f 702 691 703 714
f 703 704 716 715
f 704 705 717 716
f 705 706 718 717
f 706 707 719 718
f 707 708 720 719
f 708 709 721 720
f 709 710 722 721
f 710 711 723 722
f 711 712 724 723
f 712 713 725 724
f 713 714 726 725
f 714 703 715 726
f 715 716 728 727
f 716 717 729 728
f 717 718 730 729
f 718 719 731 730
f 719 720 732 731
f 720 721 733 732
f 721 722 734 733
f 722 723 735 734
f 723 724 736 735
f 724 725 737 736
f 725 726 738 737
f 726 715 727 738
f 727 728 740 739
f 728 729 741 740
f 729 730 742 741
f 730 731 743 742
f 731 732 744 743
f 732 733 745 744
f 733 734 746 745
f 734 735 747 746
f 735 736 748 747
f 736 737 749 748
f 737 738 750 749
f 738 727 739 750
f 739 740 752 751
f 740 741 753 752
f 741 742 754 753
f 742 743 755 754
f 743 744 756 755
f 744 745 757 756
f 745 746 758 757
f 746 747 759 758
f 747 748 760 759
f 748 749 761 760
f 749 750 762 761
f 750 739 751 762
f 751 752 764 763
f 752 753 765 764
f 753 754 766 765
f 754 755 767 766
f 755 756 768 767
f 756 757 769 768
f 757 758 770 769
f 758 759 771 770
f 759 760 772 771
f 760 761 773 772
f 761 762 774 773
f 762 751 763 774

o Eye_R
usemtl Eyes
s 1
f 775 776 788 787
f 776 777 789 788
f 777 778 790 789
f 778 779 791 790
f 779 780 792 791
f 780 781 793 792
f 781 782 794 793
f 782 783 795 794
f 783 784 796 795
f 784 785 797 796
f 785 786 798 797
f 786 775 787 798
f 787 788 800 799
f 788 789 801 800
f 789 790 802 801
f 790 791 803 802
f 791 792 804 803
f 792 793 805 804
f 793 794 806 805
f 794 795 807 806
f 795 796 808 807
f 796 797 809 808
f 797 798 810 809
f 798 787 799 810
f 799 800 812 811
f 800 801 813 812
f 801 802 814 813
f 802 803 815 814
f 803 804 816 815
f 804 805 817 816
f 805 806 818 817
f 806 807 819 818
f 807 808 820 819
f 808 809 821 820
f 809 810 822 821
f 810 799 811 822
f 811 812 824 823
f 812 813 825 824
f 813 814 826 825
f 814 815 827 826
f 815 816 828 827
f 816 817 829 828
f 817 818 830 829
f 818 819 831 830
f 819 820 832 831
f 820 821 833 832
f 821 822 834 833
f 822 811 823 834
f 823 824 836 835
f 824 825 837 836
f 825 826 838 837
f 826 827 839 838
f 827 828 840 839
f 828 829 841 840
f 829 830 842 841
f 830 831 843 842
f 831 832 844 843
f 832 833 845 844
f 833 834 846 845
f 834 823 835 846
f 835 836 848 847
f 836 837 849 848
f 837 838 850 849
f 838 839 851 850
f 839 840 852 851
f 840 841 853 852
f 841 842 854 853
f 842 843 855 854
f 843 844 856 855
f 844 845 857 856
f 845 846 858 857
f 846 835 847 858
f 847 848 860 859
f 848 849 861 860
f 849 850 862 861
f 850 851 863 862
f 851 852 864 863
f 852 853 865 864
f 853 854 866 865
f 854 855 867 866
f 855 856 868 867
f 856 857 869 868
f 857 858 870 869
f 858 847 859 870
f 859 860 872 871
f 860 861 873 872
f 861 862 874 873
f 862 863 875 874
f 863 864 876 875
f 864 865 877 876
f 865 866 878 877
f 866 867 879 878
f 867 868 880 879
f 868 869 881 880
f 869 870 882 881
f 870 859 871 882

o Neck
usemtl Skin
s 1
f 883 884 896 895
f 884 885 897 896
f 885 886 898 897
f 886 887 899 898
f 887 888 900 899
f 888 889 901 900
f 889 890 902 901
f 890 891 903 902
f 891 892 904 903
f 892 893 905 904
f 893 894 906 905
f 894 883 895 906
f 883 884 885 886 887 888 889 890 891 892 893 894
f 906 905 904 903 902 901 900 899 898 897 896 895

o Torso
usemtl Top
s 1
f 907 908 924 923
f 908 909 925 924
f 909 910 926 925
f 910 911 927 926
f 911 912 928 927
f 912 913 929 928
f 913 914 930 929
f 914 915 931 930
f 915 916 932 931
f 916 917 933 932
f 917 918 934 933
f 918 919 935 934
f 919 920 936 935
f 920 921 937 936
f 921 922 938 937
f 922 907 923 938
f 907 908 909 910 911 912 913 914 915 916 917 918 919 920 921 922
f 938 937 936 935 934 933 932 931 930 929 928 927 926 925 924 923

o Skirt
usemtl Skirt
s 1
f 939 940 958 957
f 940 941 959 958
f 941 942 960 959
f 942 943 961 960
f 943 944 962 961
f 944 945 963 962
f 945 946 964 963
f 946 947 965 964
f 947 948 966 965
f 948 949 967 966
f 949 950 968 967
f 950 951 969 968
f 951 952 970 969
f 952 953 971 970
f 953 954 972 971
f 954 955 973 972
f 955 956 974 973
f 956 939 957 974
f 939 940 941 942 943 944 945 946 947 948 949 950 951 952 953 954 955 956
f 974 973 972 971 970 969 968 967 966 965 964 963 962 961 960 959 958 957

o UpperArm_-1
usemtl Skin
s 1
f 975 976 988 987
f 976 977 989 988
f 977 978 990 989
f 978 979 991 990
f 979 980 992 991
f 980 981 993 992
f 981 982 994 993
f 982 983 995 994
f 983 984 996 995
f 984 985 997 996
f 985 986 998 997
f 986 975 987 998
f 975 976 977 978 979 980 981 982 983 984 985 986
f 998 997 996 995 994 993 992 991 990 989 988 987

o ForeArm_-1
usemtl Skin
s 1
f 999 1000 1012 1011
f 1000 1001 1013 1012
f 1001 1002 1014 1013
f 1002 1003 1015 1014
f 1003 1004 1016 1015
f 1004 1005 1017 1016
f 1005 1006 1018 1017
f 1006 1007 1019 1018
f 1007 1008 1020 1019
f 1008 1009 1021 1020
f 1009 1010 1022 1021
f 1010 999 1011 1022
f 999 1000 1001 1002 1003 1004 1005 1006 1007 1008 1009 1010
f 1022 1021 1020 1019 1018 1017 1016 1015 1014 1013 1012 1011

o Hand_-1
usemtl Skin
s 1
f 1023 1024 1036 1035
f 1024 1025 1037 1036
f 1025 1026 1038 1037
f 1026 1027 1039 1038
f 1027 1028 1040 1039
f 1028 1029 1041 1040
f 1029 1030 1042 1041
f 1030 1031 1043 1042
f 1031 1032 1044 1043
f 1032 1033 1045 1044
f 1033 1034 1046 1045
f 1034 1023 1035 1046
f 1035 1036 1048 1047
f 1036 1037 1049 1048
f 1037 1038 1050 1049
f 1038 1039 1051 1050
f 1039 1040 1052 1051
f 1040 1041 1053 1052
f 1041 1042 1054 1053
f 1042 1043 1055 1054
f 1043 1044 1056 1055
f 1044 1045 1057 1056
f 1045 1046 1058 1057
f 1046 1035 1047 1058
f 1047 1048 1060 1059
f 1048 1049 1061 1060
f 1049 1050 1062 1061
f 1050 1051 1063 1062
f 1051 1052 1064 1063
f 1052 1053 1065 1064
f 1053 1054 1066 1065
f 1054 1055 1067 1066
f 1055 1056 1068 1067
f 1056 1057 1069 1068
f 1057 1058 1070 1069
f 1058 1047 1059 1070
f 1059 1060 1072 1071
f 1060 1061 1073 1072
f 1061 1062 1074 1073
f 1062 1063 1075 1074
f 1063 1064 1076 1075
f 1064 1065 1077 1076
f 1065 1066 1078 1077
f 1066 1067 1079 1078
f 1067 1068 1080 1079
f 1068 1069 1081 1080
f 1069 1070 1082 1081
f 1070 1059 1071 1082
f 1071 1072 1084 1083
f 1072 1073 1085 1084
f 1073 1074 1086 1085
f 1074 1075 1087 1086
f 1075 1076 1088 1087
f 1076 1077 1089 1088
f 1077 1078 1090 1089
f 1078 1079 1091 1090
f 1079 1080 1092 1091
f 1080 1081 1093 1092
f 1081 1082 1094 1093
f 1082 1071 1083 1094
f 1083 1084 1096 1095
f 1084 1085 1097 1096
f 1085 1086 1098 1097
f 1086 1087 1099 1098
f 1087 1088 1100 1099
f 1088 1089 1101 1100
f 1089 1090 1102 1101
f 1090 1091 1103 1102
f 1091 1092 1104 1103
f 1092 1093 1105 1104
f 1093 1094 1106 1105
f 1094 1083 1095 1106
f 1095 1096 1108 1107
f 1096 1097 1109 1108
f 1097 1098 1110 1109
f 1098 1099 1111 1110
f 1099 1100 1112 1111
f 1100 1101 1113 1112
f 1101 1102 1114 1113
f 1102 1103 1115 1114
f 1103 1104 1116 1115
f 1104 1105 1117 1116
f 1105 1106 1118 1117
f 1106 1095 1107 1118
f 1107 1108 1120 1119
f 1108 1109 1121 1120
f 1109 1110 1122 1121
f 1110 1111 1123 1122
f 1111 1112 1124 1123
f 1112 1113 1125 1124
f 1113 1114 1126 1125
f 1114 1115 1127 1126
f 1115 1116 1128 1127
f 1116 1117 1129 1128
f 1117 1118 1130 1129
f 1118 1107 1119 1130

o UpperArm_1
usemtl Skin
s 1
f 1131 1132 1144 1143
f 1132 1133 1145 1144
f 1133 1134 1146 1145
f 1134 1135 1147 1146
f 1135 1136 1148 1147
f 1136 1137 1149 1148
f 1137 1138 1150 1149
f 1138 1139 1151 1150
f 1139 1140 1152 1151
f 1140 1141 1153 1152
f 1141 1142 1154 1153
f 1142 1131 1143 1154
f 1131 1132 1133 1134 1135 1136 1137 1138 1139 1140 1141 1142
f 1154 1153 1152 1151 1150 1149 1148 1147 1146 1145 1144 1143

o ForeArm_1
usemtl Skin
s 1
f 1155 1156 1168 1167
f 1156 1157 1169 1168
f 1157 1158 1170 1169
f 1158 1159 1171 1170
f 1159 1160 1172 1171
f 1160 1161 1173 1172
f 1161 1162 1174 1173
f 1162 1163 1175 1174
f 1163 1164 1176 1175
f 1164 1165 1177 1176
f 1165 1166 1178 1177
f 1166 1155 1167 1178
f 1155 1156 1157 1158 1159 1160 1161 1162 1163 1164 1165 1166
f 1178 1177 1176 1175 1174 1173 1172 1171 1170 1169 1168 1167

o Hand_1
usemtl Skin
s 1
f 1179 1180 1192 1191
f 1180 1181 1193 1192
f 1181 1182 1194 1193
f 1182 1183 1195 1194
f 1183 1184 1196 1195
f 1184 1185 1197 1196
f 1185 1186 1198 1197
f 1186 1187 1199 1198
f 1187 1188 1200 1199
f 1188 1189 1201 1200
f 1189 1190 1202 1201
f 1190 1179 1191 1202
f 1191 1192 1204 1203
f 1192 1193 1205 1204
f 1193 1194 1206 1205
f 1194 1195 1207 1206
f 1195 1196 1208 1207
f 1196 1197 1209 1208
f 1197 1198 1210 1209
f 1198 1199 1211 1210
f 1199 1200 1212 1211
f 1200 1201 1213 1212
f 1201 1202 1214 1213
f 1202 1191 1203 1214
f 1203 1204 1216 1215
f 1204 1205 1217 1216
f 1205 1206 1218 1217
f 1206 1207 1219 1218
f 1207 1208 1220 1219
f 1208 1209 1221 1220
f 1209 1210 1222 1221
f 1210 1211 1223 1222
f 1211 1212 1224 1223
f 1212 1213 1225 1224
f 1213 1214 1226 1225
f 1214 1203 1215 1226
f 1215 1216 1228 1227
f 1216 1217 1229 1228
f 1217 1218 1230 1229
f 1218 1219 1231 1230
f 1219 1220 1232 1231
f 1220 1221 1233 1232
f 1221 1222 1234 1233
f 1222 1223 1235 1234
f 1223 1224 1236 1235
f 1224 1225 1237 1236
f 1225 1226 1238 1237
f 1226 1215 1227 1238
f 1227 1228 1240 1239
f 1228 1229 1241 1240
f 1229 1230 1242 1241
f 1230 1231 1243 1242
f 1231 1232 1244 1243
f 1232 1233 1245 1244
f 1233 1234 1246 1245
f 1234 1235 1247 1246
f 1235 1236 1248 1247
f 1236 1237 1249 1248
f 1237 1238 1250 1249
f 1238 1227 1239 1250
f 1239 1240 1252 1251
f 1240 1241 1253 1252
f 1241 1242 1254 1253
f 1242 1243 1255 1254
f 1243 1244 1256 1255
f 1244 1245 1257 1256
f 1245 1246 1258 1257
f 1246 1247 1259 1258
f 1247 1248 1260 1259
f 1248 1249 1261 1260
f 1249 1250 1262 1261
f 1250 1239 1251 1262
f 1251 1252 1264 1263
f 1252 1253 1265 1264
f 1253 1254 1266 1265
f 1254 1255 1267 1266
f 1255 1256 1268 1267
f 1256 1257 1269 1268
f 1257 1258 1270 1269
f 1258 1259 1271 1270
f 1259 1260 1272 1271
f 1260 1261 1273 1272
f 1261 1262 1274 1273
f 1262 1251 1263 1274
f 1263 1264 1276 1275
f 1264 1265 1277 1276
f 1265 1266 1278 1277
f 1266 1267 1279 1278
f 1267 1268 1280 1279
f 1268 1269 1281 1280
f 1269 1270 1282 1281
f 1270 1271 1283 1282
f 1271 1272 1284 1283
f 1272 1273 1285 1284
f 1273 1274 1286 1285
f 1274 1263 1275 1286

o Thigh_-1
usemtl Skin
s 1
f 1287 1288 1300 1299
f 1288 1289 1301 1300
f 1289 1290 1302 1301
f 1290 1291 1303 1302
f 1291 1292 1304 1303
f 1292 1293 1305 1304
f 1293 1294 1306 1305
f 1294 1295 1307 1306
f 1295 1296 1308 1307
f 1296 1297 1309 1308
f 1297 1298 1310 1309
f 1298 1287 1299 1310
f 1287 1288 1289 1290 1291 1292 1293 1294 1295 1296 1297 1298
f 1310 1309 1308 1307 1306 1305 1304 1303 1302 1301 1300 1299

o LowerLeg_-1
usemtl Socks
s 1
f 1311 1312 1324 1323
f 1312 1313 1325 1324
f 1313 1314 1326 1325
f 1314 1315 1327 1326
f 1315 1316 1328 1327
f 1316 1317 1329 1328
f 1317 1318 1330 1329
f 1318 1319 1331 1330
f 1319 1320 1332 1331
f 1320 1321 1333 1332
f 1321 1322 1334 1333
f 1322 1311 1323 1334
f 1311 1312 1313 1314 1315 1316 1317 1318 1319 1320 1321 1322
f 1334 1333 1332 1331 1330 1329 1328 1327 1326 1325 1324 1323

o Shoe_-1
usemtl Shoes
s 1
f 1335 1336 1350 1349
f 1336 1337 1351 1350
f 1337 1338 1352 1351
f 1338 1339 1353 1352
f 1339 1340 1354 1353
f 1340 1341 1355 1354
f 1341 1342 1356 1355
f 1342 1343 1357 1356
f 1343 1344 1358 1357
f 1344 1345 1359 1358
f 1345 1346 1360 1359
f 1346 1347 1361 1360
f 1347 1348 1362 1361
f 1348 1335 1349 1362
f 1349 1350 1364 1363
f 1350 1351 1365 1364
f 1351 1352 1366 1365
f 1352 1353 1367 1366
f 1353 1354 1368 1367
f 1354 1355 1369 1368
f 1355 1356 1370 1369
f 1356 1357 1371 1370
f 1357 1358 1372 1371
f 1358 1359 1373 1372
f 1359 1360 1374 1373
f 1360 1361 1375 1374
f 1361 1362 1376 1375
f 1362 1349 1363 1376
f 1363 1364 1378 1377
f 1364 1365 1379 1378
f 1365 1366 1380 1379
f 1366 1367 1381 1380
f 1367 1368 1382 1381
f 1368 1369 1383 1382
f 1369 1370 1384 1383
f 1370 1371 1385 1384
f 1371 1372 1386 1385
f 1372 1373 1387 1386
f 1373 1374 1388 1387
f 1374 1375 1389 1388
f 1375 1376 1390 1389
f 1376 1363 1377 1390
f 1377 1378 1392 1391
f 1378 1379 1393 1392
f 1379 1380 1394 1393
f 1380 1381 1395 1394
f 1381 1382 1396 1395
f 1382 1383 1397 1396
f 1383 1384 1398 1397
f 1384 1385 1399 1398
f 1385 1386 1400 1399
f 1386 1387 1401 1400
f 1387 1388 1402 1401
f 1388 1389 1403 1402
f 1389 1390 1404 1403
f 1390 1377 1391 1404
f 1391 1392 1406 1405
f 1392 1393 1407 1406
f 1393 1394 1408 1407
f 1394 1395 1409 1408
f 1395 1396 1410 1409
f 1396 1397 1411 1410
f 1397 1398 1412 1411
f 1398 1399 1413 1412
f 1399 1400 1414 1413
f 1400 1401 1415 1414
f 1401 1402 1416 1415
f 1402 1403 1417 1416
f 1403 1404 1418 1417
f 1404 1391 1405 1418
f 1405 1406 1420 1419
f 1406 1407 1421 1420
f 1407 1408 1422 1421
f 1408 1409 1423 1422
f 1409 1410 1424 1423
f 1410 1411 1425 1424
f 1411 1412 1426 1425
f 1412 1413 1427 1426
f 1413 1414 1428 1427
f 1414 1415 1429 1428
f 1415 1416 1430 1429
f 1416 1417 1431 1430
f 1417 1418 1432 1431
f 1418 1405 1419 1432
f 1419 1420 1434 1433
f 1420 1421 1435 1434
f 1421 1422 1436 1435
f 1422 1423 1437 1436
f 1423 1424 1438 1437
f 1424 1425 1439 1438
f 1425 1426 1440 1439
f 1426 1427 1441 1440
f 1427 1428 1442 1441
f 1428 1429 1443 1442
f 1429 1430 1444 1443
f 1430 1431 1445 1444
f 1431 1432 1446 1445
f 1432 1419 1433 1446
f 1433 1434 1448 1447
f 1434 1435 1449 1448
f 1435 1436 1450 1449
f 1436 1437 1451 1450
f 1437 1438 1452 1451
f 1438 1439 1453 1452
f 1439 1440 1454 1453
f 1440 1441 1455 1454
f 1441 1442 1456 1455
f 1442 1443 1457 1456
f 1443 1444 1458 1457
f 1444 1445 1459 1458
f 1445 1446 1460 1459
f 1446 1433 1447 1460

o Thigh_1
usemtl Skin
s 1
f 1461 1462 1474 1473
f 1462 1463 1475 1474
f 1463 1464 1476 1475
f 1464 1465 1477 1476
f 1465 1466 1478 1477
f 1466 1467 1479 1478
f 1467 1468 1480 1479
f 1468 1469 1481 1480
f 1469 1470 1482 1481
f 1470 1471 1483 1482
f 1471 1472 1484 1483
f 1472 1461 1473 1484
f 1461 1462 1463 1464 1465 1466 1467 1468 1469 1470 1471 1472
f 1484 1483 1482 1481 1480 1479 1478 1477 1476 1475 1474 1473

o LowerLeg_1
usemtl Socks
s 1
f 1485 1486 1498 1497
f 1486 1487 1499 1498
f 1487 1488 1500 1499
f 1488 1489 1501 1500
f 1489 1490 1502 1501
f 1490 1491 1503 1502
f 1491 1492 1504 1503
f 1492 1493 1505 1504
f 1493 1494 1506 1505
f 1494 1495 1507 1506
f 1495 1496 1508 1507
f 1496 1485 1497 1508
f 1485 1486 1487 1488 1489 1490 1491 1492 1493 1494 1495 1496
f 1508 1507 1506 1505 1504 1503 1502 1501 1500 1499 1498 1497

o Shoe_1
usemtl Shoes
s 1
f 1509 1510 1524 1523
f 1510 1511 1525 1524
f 1511 1512 1526 1525
f 1512 1513 1527 1526
f 1513 1514 1528 1527
f 1514 1515 1529 1528
f 1515 1516 1530 1529
f 1516 1517 1531 1530
f 1517 1518 1532 1531
f 1518 1519 1533 1532
f 1519 1520 1534 1533
f 1520 1521 1535 1534
f 1521 1522 1536 1535
f 1522 1509 1523 1536
f 1523 1524 1538 1537
f 1524 1525 1539 1538
f 1525 1526 1540 1539
f 1526 1527 1541 1540
f 1527 1528 1542 1541
f 1528 1529 1543 1542
f 1529 1530 1544 1543
f 1530 1531 1545 1544
f 1531 1532 1546 1545
f 1532 1533 1547 1546
f 1533 1534 1548 1547
f 1534 1535 1549 1548
f 1535 1536 1550 1549
f 1536 1523 1537 1550
f 1537 1538 1552 1551
f 1538 1539 1553 1552
f 1539 1540 1554 1553
f 1540 1541 1555 1554
f 1541 1542 1556 1555
f 1542 1543 1557 1556
f 1543 1544 1558 1557
f 1544 1545 1559 1558
f 1545 1546 1560 1559
f 1546 1547 1561 1560
f 1547 1548 1562 1561
f 1548 1549 1563 1562
f 1549 1550 1564 1563
f 1550 1537 1551 1564
f 1551 1552 1566 1565
f 1552 1553 1567 1566
f 1553 1554 1568 1567
f 1554 1555 1569 1568
f 1555 1556 1570 1569
f 1556 1557 1571 1570
f 1557 1558 1572 1571
f 1558 1559 1573 1572
f 1559 1560 1574 1573
f 1560 1561 1575 1574
f 1561 1562 1576 1575
f 1562 1563 1577 1576
f 1563 1564 1578 1577
f 1564 1551 1565 1578
f 1565 1566 1580 1579
f 1566 1567 1581 1580
f 1567 1568 1582 1581
f 1568 1569 1583 1582
f 1569 1570 1584 1583
f 1570 1571 1585 1584
f 1571 1572 1586 1585
f 1572 1573 1587 1586
f 1573 1574 1588 1587
f 1574 1575 1589 1588
f 1575 1576 1590 1589
f 1576 1577 1591 1590
f 1577 1578 1592 1591
f 1578 1565 1579 1592
f 1579 1580 1594 1593
f 1580 1581 1595 1594
f 1581 1582 1596 1595
f 1582 1583 1597 1596
f 1583 1584 1598 1597
f 1584 1585 1599 1598
f 1585 1586 1600 1599
f 1586 1587 1601 1600
f 1587 1588 1602 1601
f 1588 1589 1603 1602
f 1589 1590 1604 1603
f 1590 1591 1605 1604
f 1591 1592 1606 1605
f 1592 1579 1593 1606
f 1593 1594 1608 1607
f 1594 1595 1609 1608
f 1595 1596 1610 1609
f 1596 1597 1611 1610
f 1597 1598 1612 1611
f 1598 1599 1613 1612
f 1599 1600 1614 1613
f 1600 1601 1615 1614
f 1601 1602 1616 1615
f 1602 1603 1617 1616
f 1603 1604 1618 1617
f 1604 1605 1619 1618
f 1605 1606 1620 1619
f 1606 1593 1607 1620
f 1607 1608 1622 1621
f 1608 1609 1623 1622
f 1609 1610 1624 1623
f 1610 1611 1625 1624
f 1611 1612 1626 1625
f 1612 1613 1627 1626
f 1613 1614 1628 1627
f 1614 1615 1629 1628
f 1615 1616 1630 1629
f 1616 1617 1631 1630
f 1617 1618 1632 1631
f 1618 1619 1633 1632
f 1619 1620 1634 1633
f 1620 1607 1621 1634

o HairLock_-1
usemtl Hair
s 1
f 1635 1636 1646 1645
f 1636 1637 1647 1646
f 1637 1638 1648 1647
f 1638 1639 1649 1648
f 1639 1640 1650 1649
f 1640 1641 1651 1650
f 1641 1642 1652 1651
f 1642 1643 1653 1652
f 1643 1644 1654 1653
f 1644 1635 1645 1654
f 1635 1636 1637 1638 1639 1640 1641 1642 1643 1644
f 1654 1653 1652 1651 1650 1649 1648 1647 1646 1645

o HairLock_1
usemtl Hair
s 1
f 1655 1656 1666 1665
f 1656 1657 1667 1666
f 1657 1658 1668 1667
f 1658 1659 1669 1668
f 1659 1660 1670 1669
f 1660 1661 1671 1670
f 1661 1662 1672 1671
f 1662 1663 1673 1672
f 1663 1664 1674 1673
f 1664 1655 1665 1674
f 1655 1656 1657 1658 1659 1660 1661 1662 1663 1664
f 1674 1673 1672 1671 1670 1669 1668 1667 1666 1665

o BackHair
usemtl Hair
s 1
f 1675 1676 1694 1693
f 1676 1677 1695 1694
f 1677 1678 1696 1695
f 1678 1679 1697 1696
f 1679 1680 1698 1697
f 1680 1681 1699 1698
f 1681 1682 1700 1699
f 1682 1683 1701 1700
f 1683 1684 1702 1701
f 1684 1685 1703 1702
f 1685 1686 1704 1703
f 1686 1687 1705 1704
f 1687 1688 1706 1705
f 1688 1689 1707 1706
f 1689 1690 1708 1707
f 1690 1691 1709 1708
f 1691 1692 1710 1709
f 1692 1675 1693 1710
f 1675 1676 1677 1678 1679 1680 1681 1682 1683 1684 1685 1686 1687 1688 1689 1690 1691 1692
f 1710 1709 1708 1707 1706 1705 1704 1703 1702 1701 1700 1699 1698 1697 1696 1695 1694 1693

o Mouth
usemtl Mouth
s 1
f 1711 1712 1722 1721
f 1712 1713 1723 1722
f 1713 1714 1724 1723
f 1714 1715 1725 1724
f 1715 1716 1726 1725
f 1716 1717 1727 1726
f 1717 1718 1728 1727
f 1718 1719 1729 1728
f 1719 1720 1730 1729
f 1720 1711 1721 1730
f 1721 1722 1732 1731
f 1722 1723 1733 1732
f 1723 1724 1734 1733
f 1724 1725 1735 1734
f 1725 1726 1736 1735
f 1726 1727 1737 1736
f 1727 1728 1738 1737
f 1728 1729 1739 1738
f 1729 1730 1740 1739
f 1730 1721 1731 1740
f 1731 1732 1742 1741
f 1732 1733 1743 1742
f 1733 1734 1744 1743
f 1734 1735 1745 1744
f 1735 1736 1746 1745
f 1736 1737 1747 1746
f 1737 1738 1748 1747
f 1738 1739 1749 1748
f 1739 1740 1750 1749
f 1740 1731 1741 1750
f 1741 1742 1752 1751
f 1742 1743 1753 1752
f 1743 1744 1754 1753
f 1744 1745 1755 1754
f 1745 1746 1756 1755
f 1746 1747 1757 1756
f 1747 1748 1758 1757
f 1748 1749 1759 1758
f 1749 1750 1760 1759
f 1750 1741 1751 1760
f 1751 1752 1762 1761
f 1752 1753 1763 1762
f 1753 1754 1764 1763
f 1754 1755 1765 1764
f 1755 1756 1766 1765
f 1756 1757 1767 1766
f 1757 1758 1768 1767
f 1758 1759 1769 1768
f 1759 1760 1770 1769
f 1760 1751 1761 1770
f 1761 1762 1772 1771
f 1762 1763 1773 1772
f 1763 1764 1774 1773
f 1764 1765 1775 1774
f 1765 1766 1776 1775
f 1766 1767 1777 1776
f 1767 1768 1778 1777
f 1768 1769 1779 1778
f 1769 1770 1780 1779
f 1770 1761 1771 1780
